<svg width="34" height="32" viewBox="0 0 34 32" fill="none" xmlns="http://www.w3.org/2000/svg">
<g clip-path="url(#clip0_286_2420)">
<path d="M11.3215 0.000385917H21.3707L10.9386 30.9095C10.8314 31.2271 10.6273 31.5031 10.355 31.6986C10.0827 31.8942 9.75593 31.9994 9.42071 31.9994H1.59993C1.34594 31.9995 1.09559 31.939 0.869604 31.8231C0.643614 31.7072 0.448473 31.5391 0.300326 31.3328C0.152178 31.1265 0.0552822 30.8879 0.0176537 30.6367C-0.0199748 30.3855 0.00274607 30.129 0.0839362 29.8883L9.80318 1.09029C9.91035 0.772547 10.1145 0.496429 10.3869 0.300833C10.6593 0.105237 10.9861 0.000404588 11.3215 0.000385917Z" fill="#4C4D54"/>
<path d="M25.924 20.7324H9.98836C9.8402 20.7323 9.69544 20.7767 9.57291 20.86C9.45039 20.9433 9.35578 21.0616 9.30143 21.1994C9.24708 21.3372 9.23549 21.4882 9.26818 21.6327C9.30087 21.7772 9.37632 21.9085 9.4847 22.0095L19.7246 31.567C20.0227 31.8451 20.4153 31.9998 20.823 31.9997H29.8464L25.924 20.7324Z" fill="#76767C"/>
<path d="M11.3204 0.000988272C10.9814 -0.000312627 10.6509 0.106813 10.3771 0.306718C10.1033 0.506623 9.90063 0.788832 9.79864 1.11212L0.0948334 29.8627C0.00818096 30.1042 -0.0190234 30.3631 0.0155218 30.6173C0.050067 30.8716 0.145345 31.1138 0.293297 31.3235C0.441248 31.5331 0.63752 31.7041 0.86551 31.8218C1.0935 31.9396 1.3465 32.0007 1.6031 32H9.62573C9.92453 31.9466 10.2038 31.8149 10.435 31.6183C10.6662 31.4216 10.8411 31.1671 10.9418 30.8808L12.8769 25.1777L19.7892 31.6249C20.0789 31.8645 20.4422 31.997 20.8181 32H29.8079L25.8651 20.7328L14.3713 20.7355L21.4059 0.000988272H11.3204Z" fill="url(#paint0_linear_286_2420)"/>
<path d="M24.1561 1.08934C24.0491 0.772107 23.8453 0.496446 23.5733 0.301194C23.3013 0.105941 22.975 0.000937666 22.6402 0.000976573H11.4404C11.7752 0.00099565 12.1016 0.106021 12.3735 0.301266C12.6455 0.496511 12.8493 0.772139 12.9564 1.08934L22.676 29.8885C22.7573 30.1292 22.7801 30.3858 22.7425 30.6371C22.7049 30.8883 22.608 31.127 22.4599 31.3334C22.3117 31.5398 22.1165 31.7079 21.8905 31.8239C21.6645 31.9399 21.4141 32.0004 21.1601 32.0004H32.3602C32.6142 32.0003 32.8645 31.9398 33.0905 31.8238C33.3165 31.7078 33.5116 31.5396 33.6597 31.3332C33.8078 31.1269 33.9046 30.8882 33.9422 30.637C33.9798 30.3858 33.957 30.1292 33.8758 29.8885L24.1561 1.08934Z" fill="#8D8D8D"/>
</g>
<defs>
<linearGradient id="paint0_linear_286_2420" x1="18.2431" y1="16.7406" x2="15.829" y2="17.5568" gradientUnits="userSpaceOnUse">
<stop stop-opacity="0.3"/>
<stop offset="0.071" stop-opacity="0.2"/>
<stop offset="0.321" stop-opacity="0.1"/>
<stop offset="0.623" stop-opacity="0.05"/>
<stop offset="1" stop-opacity="0"/>
</linearGradient>
<clipPath id="clip0_286_2420">
<rect width="34" height="32" fill="white"/>
</clipPath>
</defs>
</svg>
