<svg width="1284" height="369" viewBox="0 0 1284 369" fill="none" xmlns="http://www.w3.org/2000/svg">
<path d="M0 343V26C0 11.6406 11.6406 0 26 0H1258C1272.36 0 1284 11.6406 1284 26V211.176C1284 225.536 1272.36 237.176 1258 237.176H1227.12C1192.88 237.176 1165.12 264.935 1165.12 299.176V343C1165.12 357.359 1153.48 369 1139.12 369H26C11.6406 369 0 357.359 0 343Z" fill="#4C4D54"/>
<g clip-path="url(#clip0_420_2190)">
<path d="M1254.28 316.521C1253.53 317.275 1252.53 317.425 1251.52 317.179C1250.74 316.992 1250 316.319 1249.26 316.881C1248.27 317.637 1247.89 318.542 1246.4 318.685C1245.76 318.747 1245.18 318.536 1244.56 318.491C1243.31 320.914 1242.34 323.477 1241.06 325.884C1240.69 326.575 1240.27 327.356 1239.79 327.96C1240.57 337.589 1241.13 347.257 1241.6 356.884C1241.64 357.792 1241.86 359.07 1241.77 359.942C1241.75 360.179 1241.61 360.385 1241.37 360.45C1241.09 360.529 1240.37 360.562 1240.03 360.589C1239.85 360.603 1239.67 360.58 1239.49 360.589C1239.46 362.259 1240.74 363.162 1241.62 364.33C1242.47 365.455 1242.76 366.948 1241.77 368.092C1240.82 369.192 1239.29 368.781 1237.98 368.796C1233.5 368.85 1228.98 368.917 1224.49 368.971C1223.83 368.979 1222.95 369.033 1222.32 368.971C1221.85 368.924 1220.26 367.909 1219.91 367.522C1218.78 366.28 1218.63 363.968 1220.2 362.999C1221.25 362.35 1222.54 362.668 1223.69 362.563C1224.43 362.495 1227.91 361.364 1228.36 360.874C1228.45 360.778 1228.5 360.648 1228.56 360.533C1228.1 360.345 1227.28 360.567 1226.94 360.188C1226.71 359.923 1226.87 359.779 1226.83 359.567C1226.49 357.771 1226 355.989 1225.62 354.201C1223.76 345.486 1222.22 336.701 1220.47 327.962L1219.28 327.493C1219.15 327.382 1219.09 326.778 1219.12 326.602C1219.2 326.15 1219.15 325.962 1219.16 325.511C1219.25 323.192 1219.83 320.635 1220.52 318.42C1220.93 317.106 1221.42 315.817 1221.9 314.527C1221.91 314.407 1221.88 314.462 1221.82 314.438C1221.58 314.349 1221.22 314.334 1220.93 314.244C1218.38 313.426 1217.86 309.756 1218.03 307.455C1218.07 306.835 1218.25 306.209 1218.31 305.585C1218.42 304.477 1218.43 303.355 1218.54 302.246C1218.99 297.487 1219.86 292.573 1220.72 287.878C1220.83 287.274 1221.35 287.273 1221.84 287.44C1221.94 286.647 1222.07 285.663 1222.85 285.243C1223.36 284.971 1223.73 285.096 1224.26 285.061C1224.85 285.022 1225.11 284.793 1225.71 285.208C1226.1 285.481 1226.31 286.113 1226.47 286.238C1226.53 286.284 1226.78 286.302 1226.89 286.354C1227.27 286.522 1227.52 286.95 1227.71 287.298L1227.99 288.29C1228.04 287.998 1228.13 287.7 1228.32 287.468C1227.32 286.677 1226.93 285.073 1228.33 284.469C1228.69 284.319 1229.2 284.307 1229.44 283.984C1229.86 283.426 1230.18 281.626 1230.41 280.874C1230.56 280.39 1231.02 278.616 1231.83 279.124C1232.3 279.421 1231.78 280.36 1231.66 280.761C1231.28 282.092 1230.94 284.79 1229.53 285.318C1229.26 285.416 1228.57 285.459 1228.51 285.786C1228.41 286.347 1229.67 287.427 1229.87 287.981C1229.91 288.204 1229.43 288.015 1229.38 288.024C1228.93 288.978 1228.96 290.426 1229.32 291.419C1229.86 292.939 1231.08 293.86 1232.75 293.729C1233.16 293.697 1235.23 293.044 1235.39 293.277C1235.19 294.251 1233.89 294.604 1233.06 294.893C1233.07 295.605 1232.82 296.275 1232.66 296.953L1234.51 296.896C1235.85 296.685 1236.9 295.672 1238.24 295.425C1238.07 294.843 1237.68 294.073 1237.68 293.465C1237.68 293.292 1237.79 293.139 1237.78 292.968C1237.76 292.222 1237.34 291.537 1237.45 290.647C1237.6 289.367 1239.34 288.982 1239.27 287.528C1239.22 286.545 1238.33 287.086 1237.76 287.104C1237.62 287.108 1237.33 287.147 1237.33 286.962C1237.92 285.6 1239.94 285.364 1240.33 287.033C1240.56 288.038 1240.18 289.012 1239.52 289.763C1239.31 290.009 1238.78 290.372 1238.68 290.627C1238.44 291.276 1239.02 292.79 1239.09 293.534C1239.12 293.828 1239.04 294.074 1239.04 294.313C1239.05 294.425 1239.24 295.375 1239.28 295.41C1240.4 295.679 1241.68 296.896 1241.82 298.062C1241.85 298.313 1241.79 298.573 1241.86 298.822C1241.91 299.051 1242.2 299.514 1242.31 299.785C1243.27 302.159 1244.22 304.645 1245.08 307.057C1245.75 308.959 1246.83 312.079 1246.48 314.064C1246.28 315.242 1245.62 316.239 1245.13 317.304C1245.16 317.461 1246.28 317.466 1246.46 317.442C1247.66 317.286 1248.31 315.512 1249.67 315.415C1250.74 315.338 1251.85 316.394 1252.87 316.059C1253.41 315.884 1253.99 315.264 1253.87 314.67C1253.79 314.228 1253.5 314.331 1253.18 314.173C1250.5 312.87 1250.98 310.075 1250.71 307.624C1250.36 304.46 1249.11 302.606 1248.21 299.755C1247.01 295.986 1247.99 294.328 1248.7 290.791C1250.06 284.079 1247.77 278.527 1241.16 276.13C1240.34 275.831 1239.34 275.484 1238.47 275.605C1238.63 274.899 1239.86 275.033 1240.43 275.104C1243.61 275.5 1247.1 277.982 1248.63 280.757C1250.15 283.492 1250.44 287.464 1249.96 290.508C1249.72 291.982 1249.17 293.428 1248.95 294.891C1248.31 299.273 1251.29 302.629 1251.85 306.944C1252.06 308.539 1251.81 311.189 1252.85 312.407C1253.43 313.092 1254.29 313.158 1254.74 313.917C1255.26 314.773 1254.95 315.844 1254.28 316.519L1254.28 316.521ZM1227.88 290.384C1227.76 290.048 1227.87 289.666 1227.82 289.34C1227.73 288.799 1227.17 287.93 1226.77 287.554C1226.47 287.28 1226.43 287.455 1226.15 287.439C1225.43 287.399 1225.36 286.277 1224.98 286.161C1224.82 286.113 1224.55 286.241 1224.38 286.251C1224.14 286.264 1223.55 286.197 1223.4 286.304C1223.29 286.384 1223.15 286.827 1223.11 286.975C1223.07 287.156 1222.98 287.652 1222.98 287.814C1222.98 287.861 1223 287.895 1223.04 287.922C1224.12 288.385 1225.25 288.765 1226.28 289.336L1227.88 290.385V290.384ZM1231.86 294.921C1230.2 294.704 1228.79 293.606 1228.28 292.026C1228.21 291.954 1228.02 292.456 1228.01 292.521C1227.61 294.169 1227.39 296.565 1227.2 298.289C1227.03 299.874 1226.92 301.469 1226.91 303.065C1227.68 302.14 1228.36 301.133 1229.13 300.208C1229.29 300.019 1230.02 299.312 1230.07 299.214C1230.14 299.05 1230.07 298.799 1230.13 298.591C1230.28 297.98 1231.21 296.913 1231.91 296.887C1231.89 296.463 1231.86 296.046 1231.86 295.618C1231.86 295.388 1231.97 295.176 1231.86 294.92V294.921ZM1236.06 302.348C1235.78 302.123 1235.65 302.324 1235.68 302.636C1235.75 303.193 1236.17 304.163 1236.33 304.765C1236.9 306.874 1237.51 309.32 1236.37 311.314C1234.45 314.687 1230.62 316.777 1228.72 320.184C1228.53 320.54 1227.91 321.671 1227.88 322.005C1227.82 322.63 1228.37 322.796 1228.79 322.402C1229.25 321.966 1229.74 320.723 1230.13 320.114C1231.17 318.493 1232.56 317.59 1233.86 316.232C1235.33 314.696 1237.59 312.266 1237.99 310.147C1238.31 308.41 1237.81 305.786 1237.11 304.162C1236.96 303.81 1236.32 302.553 1236.06 302.349L1236.06 302.348ZM1227.08 323.734C1227.03 323.958 1226.86 324.095 1226.78 324.309C1226.5 325.03 1226.11 326.63 1225.97 327.41C1225.82 328.26 1225.76 328.712 1226.55 329.214C1227.65 329.916 1229.73 330.225 1230.41 328.826C1230.54 328.556 1231.06 326.513 1230.98 326.337L1227.08 323.734H1227.08ZM1223.38 329.054C1223.47 328.609 1221.99 328.116 1221.84 328.262L1221.96 329.224L1223.38 329.054ZM1231.75 329.846V328.601C1231.68 328.633 1231.61 328.837 1231.58 328.913C1231.46 329.229 1231.44 329.562 1231.24 329.846H1231.75ZM1237.39 328.997L1233 328.855V329.846L1237.39 329.789V328.997ZM1225.37 329.846C1225.3 329.737 1224.88 329.089 1224.75 329.224C1224.74 329.345 1224.77 329.76 1224.86 329.821L1225.37 329.846H1225.37ZM1224.29 333.131L1223.69 330.298C1223.63 330.209 1223.25 330.233 1223.12 330.244C1223.02 330.252 1222.33 330.357 1222.29 330.381C1222.23 330.427 1222.23 330.529 1222.24 330.602L1222.78 333.244C1222.81 333.291 1222.84 333.297 1222.89 333.298C1223.05 333.302 1223.52 333.152 1223.75 333.131C1223.93 333.113 1224.11 333.141 1224.29 333.131ZM1237.39 330.922H1233V334.263L1237.28 334.295L1237.39 330.922H1237.39ZM1238.64 330.922V334.319H1238.98C1238.99 333.231 1238.82 332.151 1238.81 331.063L1238.64 330.921V330.922ZM1226.8 334.205V331.063C1226.62 330.875 1226.36 331.03 1226.14 331.037C1225.81 331.048 1225.48 331.025 1225.14 331.035L1225.83 334.205H1226.8ZM1231.75 330.979L1228.05 331.036V334.121C1228.1 334.202 1228.16 334.199 1228.25 334.21C1229.06 334.304 1230.13 334.178 1230.98 334.204C1231.2 334.211 1231.43 334.318 1231.66 334.254L1231.75 334.178V330.979ZM1225.54 338.672L1224.6 334.375C1224.48 334.225 1223.3 334.358 1223.04 334.439L1223.92 338.906L1223.98 338.954L1225.54 338.672ZM1226.85 338.622V335.48C1226.73 335.356 1226.37 335.371 1226.2 335.394C1226.11 335.407 1226.11 335.361 1226.11 335.48L1226.85 338.622H1226.85ZM1231.66 335.394H1228.11V339.103C1228.27 339.202 1228.65 339.233 1228.87 339.247C1229.79 339.3 1230.77 339.202 1231.69 339.245L1231.75 335.538C1231.75 335.487 1231.71 335.408 1231.66 335.394ZM1237.33 335.452H1233V339.245H1237.24L1237.33 339.16V335.452ZM1238.64 335.452V339.245H1239.32L1239.09 335.545L1239 335.46L1238.64 335.452ZM1225.04 344.563C1225.57 344.48 1226.18 344.502 1226.71 344.394C1226.77 344.381 1226.82 344.377 1226.85 344.304L1225.87 339.962L1225.74 339.864C1225.3 339.974 1224.68 339.917 1224.27 340.039C1224.21 340.057 1224.15 340.05 1224.13 340.125L1225.04 344.562V344.563ZM1231.69 345.105V340.462C1231.64 340.381 1231.58 340.384 1231.5 340.374C1230.45 340.251 1229.23 340.531 1228.16 340.433C1228.28 342.055 1227.84 343.722 1228.34 345.295C1228.62 345.36 1228.9 345.25 1229.16 345.243C1229.83 345.225 1230.67 345.32 1231.32 345.245C1231.46 345.229 1231.6 345.205 1231.69 345.104V345.105ZM1233 340.377V345.189H1237.27L1237.33 340.433L1233 340.377ZM1238.67 345.19H1239.72L1239.41 340.377L1238.64 340.434L1238.58 344.995L1238.67 345.19ZM1227.82 348.813C1227.64 348.23 1227.39 345.974 1227.03 345.61C1226.8 345.386 1225.62 345.708 1225.26 345.699L1225.83 348.637L1227.82 348.812V348.813ZM1237.27 346.379L1233 346.492C1232.99 347.256 1233.02 348.024 1233.01 348.788C1233 349.248 1232.89 349.783 1232.94 350.26C1232.95 350.343 1232.95 350.406 1233.03 350.456H1237.27V346.379ZM1238.58 350.455H1239.98C1240.17 350.285 1240.01 350.008 1240.01 349.803C1239.97 348.918 1239.95 348.025 1239.89 347.143C1239.88 346.919 1239.85 346.55 1239.75 346.378H1238.67L1238.58 346.463V350.455ZM1231.64 350.456L1231.67 346.602L1228.67 346.605L1229.48 350.393L1231.64 350.456ZM1229.35 355.831L1228.16 350.093L1228.02 350.002L1226.11 349.946L1227.24 355.744C1227.94 355.841 1228.67 356.015 1229.35 355.831ZM1237.27 356.739V351.616C1237.27 351.584 1237.18 351.525 1237.13 351.527L1233 351.611C1232.94 351.652 1232.95 351.722 1232.94 351.782C1232.85 352.521 1232.9 353.758 1232.89 354.556C1232.87 355.302 1232.9 356.051 1232.89 356.796L1237.27 356.739ZM1238.53 356.739H1240.4L1240.12 351.587L1238.72 351.528L1238.61 351.583L1238.53 356.738V356.739ZM1231.64 351.644H1229.76L1230.91 356.757C1231 356.945 1231.44 356.817 1231.64 356.852V351.644ZM1230.27 359.514L1229.7 357.104C1229.39 357.094 1229.08 357.147 1228.76 357.138C1228.55 357.132 1227.51 356.961 1227.42 357.023C1227.59 357.5 1227.53 358.08 1227.68 358.552C1227.74 358.771 1227.91 358.969 1227.95 359.219L1230.27 359.513V359.514ZM1240.52 359.458V358.41C1240.52 358.331 1240.41 358.101 1240.45 357.965L1240.37 357.88L1238.53 357.929V359.373L1238.61 359.458H1240.52ZM1237.27 357.985L1232.89 358.042V359.458H1237.19L1237.27 359.373V357.985H1237.27ZM1231.64 358.041C1231.54 358.076 1231.23 357.952 1231.24 358.127C1231.24 358.301 1231.44 359.226 1231.51 359.386C1231.54 359.468 1231.52 359.471 1231.64 359.457V358.041H1231.64ZM1222.47 367.724C1222.13 366.814 1221.83 365.94 1222.34 365.025C1222.86 364.11 1223.91 363.821 1224.9 363.711C1226.48 363.534 1229.44 363.852 1230.78 363.222C1231.61 362.835 1231.87 361.515 1232.01 360.7C1231.89 360.534 1231.19 360.745 1230.98 360.761C1230.57 360.792 1230.17 360.699 1229.76 360.708C1229.59 361.891 1228.37 362.348 1227.38 362.726C1226.3 363.139 1224.59 363.738 1223.46 363.815C1222.12 363.907 1219.98 363.359 1220.26 365.528C1220.42 366.72 1221.37 367.429 1222.47 367.723L1222.47 367.724ZM1238.3 360.646H1232.89V361.523C1232.89 362.193 1232.39 363.411 1231.89 363.871C1230.41 365.229 1226.74 364.664 1224.78 364.956C1223.84 365.096 1223.18 365.366 1223.33 366.444C1223.38 366.818 1223.8 367.676 1224.2 367.724C1224.77 367.79 1225.36 367.672 1225.91 367.663C1230.63 367.592 1235.36 367.669 1240.09 367.606C1240.42 367.602 1240.47 367.728 1240.78 367.442C1242.34 365.995 1239.41 363.969 1238.78 362.686C1238.48 362.08 1238.28 361.322 1238.3 360.646H1238.3Z" fill="#4C4D55"/>
<path d="M1232.82 274.264C1233.62 274.222 1235.47 274.481 1235.91 275.235C1236.02 275.431 1236.02 275.619 1235.75 275.569C1232.94 275.046 1230.15 275.247 1229.49 278.538C1229.39 279.018 1229.38 280.649 1228.86 280.803C1228.58 280.885 1228.31 280.796 1228.19 280.532C1227.99 280.109 1228.2 278.811 1228.29 278.313C1228.74 275.982 1230.39 274.39 1232.82 274.263V274.264Z" fill="#4C4D56"/>
<path d="M1235.95 276.75C1237.53 276.479 1235.71 277.845 1235.42 278.151C1234.7 278.909 1234.23 279.817 1233.94 280.813C1233.75 281.463 1233.69 282.492 1233.44 283.034C1233.09 283.832 1232.36 283.411 1232.37 282.599C1232.41 280.685 1233.79 277.119 1235.95 276.749L1235.95 276.75Z" fill="#4C4D56"/>
<path d="M1238.58 277.873C1238.64 277.936 1238.29 278.711 1238.24 278.862C1238.06 279.368 1237.87 279.898 1237.75 280.42C1237.56 281.258 1237.41 284.016 1237.01 284.495C1236.94 284.582 1236.89 284.636 1236.76 284.608C1236.48 284.043 1236.46 283.446 1236.47 282.824C1236.51 281.448 1236.79 279.873 1237.59 278.727C1237.68 278.594 1238.43 277.714 1238.58 277.873H1238.58Z" fill="#4C4D56"/>
<path d="M1239.36 271.033C1240.18 270.864 1240.37 271.378 1239.81 271.927C1239.09 272.629 1238.84 272.763 1238.47 273.765C1238.34 274.089 1238.09 275.266 1237.96 275.41C1237.92 275.451 1237.88 275.5 1237.82 275.489C1237.24 274.949 1237.41 273.74 1237.63 273.046C1237.85 272.353 1238.58 271.196 1239.36 271.033Z" fill="#4C4D56"/>
<path d="M1233.5 284.562C1234.42 284.411 1234.17 286.157 1233.71 286.59C1232.93 287.339 1231.97 286.385 1232.57 285.738C1232.7 285.596 1232.98 285.568 1233.03 285.459C1233.15 285.217 1232.94 284.653 1233.5 284.562H1233.5Z" fill="#4C4D56"/>
<path d="M1233.78 290.682C1233.83 290.734 1233.86 290.851 1233.86 290.923C1233.84 291.734 1231.44 292.017 1231.3 291.249C1231.2 290.692 1231.95 290.581 1232.35 290.552C1232.62 290.531 1233.62 290.505 1233.79 290.682H1233.78Z" fill="#4C4D56"/>
</g>
<defs>
<clipPath id="clip0_420_2190">
<rect width="37" height="98" fill="white" transform="translate(1218 271)"/>
</clipPath>
</defs>
</svg>
