<svg width="336" height="370" viewBox="0 0 336 370" fill="none" xmlns="http://www.w3.org/2000/svg">
<path d="M0 343V26.0001C0 11.6407 11.6406 0.000111857 26 0.000106905L310 8.96624e-06C324.359 4.01432e-06 336 11.6406 336 26V235.864C336 245.328 328.328 253 318.864 253C296.295 253 278 271.295 278 293.864V343C278 357.359 266.359 369 252 369H26C11.6406 369 0 357.359 0 343Z" fill="#4C4D54"/>
<g clip-path="url(#clip0_465_2157)">
<path d="M335.355 323.412C334.686 324.082 333.799 324.215 332.896 323.997C332.2 323.83 331.54 323.233 330.88 323.732C329.993 324.403 329.662 325.206 328.333 325.334C327.755 325.389 327.239 325.201 326.689 325.161C325.577 327.312 324.712 329.588 323.567 331.724C323.237 332.338 322.858 333.031 322.432 333.568C323.13 342.115 323.626 350.699 324.047 359.244C324.087 360.051 324.278 361.186 324.204 361.959C324.185 362.17 324.056 362.353 323.848 362.411C323.596 362.481 322.951 362.51 322.651 362.534C322.492 362.547 322.328 362.526 322.169 362.534C322.137 364.017 323.284 364.818 324.069 365.855C324.826 366.853 325.086 368.179 324.202 369.195C323.352 370.171 321.987 369.806 320.821 369.82C316.823 369.868 312.794 369.927 308.79 369.975C308.203 369.982 307.418 370.03 306.856 369.975C306.43 369.933 305.015 369.033 304.702 368.689C303.7 367.586 303.562 365.533 304.958 364.673C305.894 364.097 307.046 364.379 308.07 364.286C308.731 364.226 311.838 363.222 312.244 362.787C312.324 362.701 312.367 362.586 312.419 362.484C312.011 362.317 311.273 362.514 310.976 362.178C310.768 361.943 310.909 361.815 310.874 361.627C310.572 360.033 310.135 358.451 309.794 356.863C308.136 349.126 306.768 341.327 305.207 333.57L304.143 333.153C304.025 333.054 303.974 332.518 304 332.362C304.067 331.961 304.022 331.794 304.038 331.393C304.118 329.335 304.631 327.065 305.245 325.099C305.609 323.932 306.051 322.787 306.477 321.643C306.491 321.536 306.463 321.584 306.407 321.563C306.189 321.484 305.868 321.471 305.616 321.391C303.341 320.664 302.877 317.407 303.025 315.364C303.065 314.813 303.224 314.257 303.278 313.704C303.372 312.721 303.387 311.724 303.482 310.74C303.886 306.515 304.663 302.152 305.423 297.985C305.521 297.448 305.992 297.447 306.426 297.596C306.513 296.891 306.627 296.018 307.325 295.645C307.777 295.403 308.111 295.515 308.584 295.484C309.11 295.449 309.343 295.246 309.877 295.614C310.228 295.856 310.415 296.418 310.553 296.528C310.605 296.57 310.827 296.585 310.931 296.631C311.267 296.781 311.492 297.161 311.659 297.469L311.911 298.35C311.953 298.091 312.039 297.826 312.208 297.621C311.31 296.918 310.96 295.494 312.217 294.958C312.531 294.825 312.987 294.814 313.203 294.528C313.576 294.032 313.861 292.434 314.07 291.767C314.204 291.337 314.616 289.762 315.334 290.213C315.752 290.477 315.29 291.31 315.187 291.666C314.843 292.848 314.538 295.243 313.281 295.711C313.046 295.799 312.428 295.837 312.376 296.127C312.286 296.625 313.411 297.584 313.587 298.076C313.621 298.274 313.192 298.106 313.152 298.114C312.747 298.961 312.775 300.246 313.093 301.128C313.577 302.477 314.667 303.295 316.154 303.178C316.524 303.15 318.363 302.571 318.512 302.777C318.335 303.642 317.168 303.956 316.429 304.212C316.443 304.844 316.222 305.439 316.076 306.041L317.726 305.99C318.922 305.803 319.857 304.903 321.054 304.684C320.903 304.168 320.555 303.484 320.552 302.944C320.551 302.79 320.649 302.655 320.643 302.503C320.622 301.841 320.254 301.232 320.348 300.442C320.484 299.307 322.037 298.965 321.97 297.674C321.924 296.801 321.134 297.281 320.623 297.297C320.499 297.301 320.241 297.336 320.24 297.172C320.767 295.962 322.57 295.753 322.916 297.234C323.125 298.127 322.785 298.991 322.195 299.658C322.002 299.876 321.534 300.198 321.447 300.425C321.229 301.001 321.745 302.345 321.807 303.005C321.833 303.267 321.763 303.485 321.768 303.698C321.771 303.796 321.94 304.64 321.979 304.671C322.976 304.91 324.123 305.99 324.246 307.025C324.272 307.249 324.218 307.479 324.276 307.7C324.329 307.903 324.584 308.314 324.682 308.555C325.537 310.662 326.387 312.869 327.148 315.011C327.748 316.699 328.717 319.469 328.404 321.231C328.218 322.277 327.633 323.162 327.197 324.108C327.225 324.247 328.224 324.251 328.387 324.23C329.457 324.092 330.032 322.516 331.242 322.431C332.203 322.362 333.195 323.3 334.104 323.002C334.58 322.846 335.103 322.296 334.997 321.769C334.917 321.377 334.663 321.468 334.374 321.328C331.987 320.171 332.419 317.69 332.175 315.514C331.86 312.705 330.75 311.06 329.94 308.528C328.87 305.183 329.748 303.71 330.383 300.571C331.59 294.612 329.552 289.683 323.657 287.555C322.922 287.289 322.036 286.981 321.258 287.089C321.398 286.462 322.498 286.581 323.003 286.644C325.844 286.996 328.953 289.199 330.323 291.663C331.674 294.091 331.933 297.617 331.5 300.319C331.292 301.628 330.799 302.911 330.608 304.21C330.035 308.1 332.69 311.08 333.19 314.91C333.375 316.326 333.156 318.679 334.079 319.76C334.598 320.368 335.365 320.427 335.772 321.1C336.231 321.861 335.955 322.811 335.357 323.411L335.355 323.412ZM311.81 300.209C311.708 299.91 311.803 299.572 311.757 299.283C311.679 298.802 311.182 298.031 310.82 297.697C310.556 297.454 310.517 297.609 310.267 297.595C309.622 297.559 309.564 296.563 309.222 296.46C309.083 296.418 308.846 296.531 308.686 296.54C308.478 296.551 307.953 296.492 307.82 296.587C307.72 296.658 307.589 297.052 307.558 297.183C307.521 297.343 307.443 297.784 307.445 297.928C307.445 297.969 307.456 297.999 307.492 298.023C308.463 298.435 309.463 298.772 310.389 299.279L311.81 300.21V300.209ZM315.357 304.237C313.884 304.044 312.621 303.07 312.165 301.667C312.103 301.603 311.938 302.048 311.924 302.106C311.571 303.569 311.371 305.696 311.207 307.226C311.056 308.634 310.956 310.05 310.947 311.467C311.637 310.646 312.237 309.751 312.929 308.93C313.07 308.762 313.724 308.135 313.764 308.048C313.831 307.902 313.767 307.68 313.815 307.495C313.953 306.953 314.783 306.005 315.408 305.982C315.387 305.606 315.358 305.235 315.362 304.855C315.365 304.652 315.457 304.464 315.357 304.236V304.237ZM319.108 310.83C318.859 310.631 318.739 310.809 318.77 311.086C318.827 311.58 319.206 312.441 319.351 312.976C319.856 314.848 320.399 317.019 319.385 318.79C317.669 321.784 314.253 323.639 312.563 326.664C312.387 326.98 311.838 327.984 311.811 328.281C311.759 328.836 312.253 328.983 312.623 328.633C313.032 328.246 313.475 327.142 313.821 326.602C314.743 325.163 315.982 324.361 317.144 323.156C318.459 321.792 320.476 319.635 320.827 317.754C321.115 316.212 320.672 313.882 320.047 312.44C319.911 312.128 319.336 311.013 319.109 310.831L319.108 310.83ZM311.101 329.816C311.057 330.015 310.903 330.137 310.83 330.326C310.581 330.966 310.23 332.387 310.107 333.079C309.972 333.834 309.923 334.235 310.626 334.68C311.609 335.304 313.459 335.578 314.069 334.337C314.186 334.097 314.645 332.283 314.579 332.127L311.102 329.816H311.101ZM307.798 334.538C307.879 334.144 306.556 333.706 306.426 333.835L306.528 334.69L307.798 334.538ZM315.263 335.242V334.137C315.2 334.165 315.136 334.346 315.11 334.413C315.007 334.694 314.983 334.989 314.806 335.242H315.263ZM320.291 334.488L316.381 334.362V335.242L320.291 335.191V334.488ZM309.575 335.242C309.508 335.145 309.134 334.57 309.017 334.69C309.009 334.797 309.037 335.165 309.116 335.22L309.576 335.242H309.575ZM308.611 338.158L308.079 335.643C308.019 335.564 307.686 335.586 307.57 335.595C307.478 335.602 306.861 335.695 306.83 335.717C306.769 335.757 306.775 335.848 306.786 335.913L307.265 338.258C307.287 338.3 307.318 338.305 307.362 338.306C307.504 338.31 307.924 338.177 308.129 338.158C308.288 338.142 308.452 338.167 308.611 338.158ZM320.291 336.197H316.381V339.163L320.193 339.191L320.292 336.197H320.291ZM321.408 336.197V339.212H321.712C321.725 338.247 321.569 337.288 321.56 336.322L321.408 336.196V336.197ZM310.845 339.112V336.322C310.69 336.155 310.453 336.293 310.262 336.299C309.966 336.308 309.667 336.288 309.372 336.297L309.981 339.112H310.845ZM315.263 336.248L311.963 336.298V339.037C312.007 339.109 312.064 339.106 312.138 339.116C312.861 339.199 313.819 339.088 314.58 339.111C314.774 339.116 314.974 339.211 315.179 339.155L315.263 339.088V336.248ZM309.721 343.077L308.89 339.262C308.777 339.129 307.726 339.247 307.499 339.319L308.281 343.285L308.335 343.328L309.721 343.077ZM310.896 343.033V340.243C310.784 340.133 310.461 340.146 310.31 340.167C310.234 340.178 310.229 340.138 310.235 340.243L310.895 343.033H310.896ZM315.187 340.167H312.013V343.459C312.162 343.548 312.498 343.576 312.697 343.587C313.518 343.635 314.387 343.548 315.213 343.586L315.266 340.295C315.264 340.249 315.226 340.179 315.187 340.167ZM320.24 340.218H316.38V343.586H320.163L320.24 343.51V340.218ZM321.408 340.218V343.586H322.017L321.806 340.301L321.731 340.225L321.408 340.218ZM309.275 348.307C309.756 348.233 310.292 348.253 310.767 348.157C310.825 348.145 310.871 348.141 310.892 348.077L310.023 344.223L309.905 344.135C309.511 344.233 308.959 344.182 308.588 344.291C308.536 344.307 308.486 344.3 308.465 344.367L309.275 348.306V348.307ZM315.212 348.788V344.666C315.167 344.594 315.11 344.597 315.037 344.588C314.1 344.479 313.017 344.728 312.063 344.64C312.167 346.08 311.78 347.56 312.222 348.956C312.467 349.015 312.722 348.917 312.95 348.91C313.555 348.895 314.305 348.979 314.882 348.912C315 348.898 315.126 348.877 315.212 348.787V348.788ZM316.38 344.59V348.862H320.188L320.24 344.64L316.38 344.59ZM321.433 348.863H322.372L322.092 344.59L321.407 344.641L321.354 348.69L321.433 348.863ZM311.759 352.08C311.594 351.563 311.371 349.559 311.051 349.237C310.852 349.038 309.793 349.323 309.472 349.315L309.986 351.924L311.759 352.079V352.08ZM320.189 349.919L316.38 350.019C316.368 350.698 316.396 351.379 316.383 352.058C316.374 352.466 316.277 352.941 316.327 353.365C316.335 353.438 316.334 353.494 316.406 353.538H320.189V349.919ZM321.357 353.537H322.601C322.774 353.387 322.634 353.141 322.627 352.958C322.599 352.173 322.58 351.38 322.525 350.597C322.511 350.398 322.488 350.071 322.398 349.918H321.433L321.357 349.994V353.537ZM315.162 353.538L315.19 350.117L312.52 350.12L313.236 353.483L315.162 353.538ZM313.126 358.31L312.058 353.216L311.936 353.135L310.235 353.085L311.244 358.233C311.864 358.319 312.514 358.474 313.126 358.31ZM320.189 359.116V354.568C320.189 354.54 320.104 354.488 320.061 354.489L316.377 354.564C316.325 354.6 316.334 354.662 316.327 354.715C316.247 355.372 316.288 356.47 316.277 357.179C316.265 357.84 316.29 358.505 316.279 359.167L320.189 359.116ZM321.306 359.116H322.982L322.729 354.542L321.484 354.49L321.38 354.539L321.306 359.115V359.116ZM315.162 354.593H313.486L314.511 359.132C314.599 359.299 314.988 359.185 315.162 359.217V354.593ZM313.942 361.58L313.438 359.44C313.155 359.432 312.882 359.479 312.595 359.47C312.41 359.465 311.482 359.314 311.404 359.368C311.553 359.792 311.501 360.306 311.631 360.726C311.691 360.92 311.841 361.096 311.871 361.318L313.942 361.579V361.58ZM323.084 361.53V360.6C323.084 360.53 322.987 360.325 323.026 360.204L322.95 360.129L321.306 360.173V361.454L321.383 361.53H323.084ZM320.189 360.223L316.279 360.273V361.53H320.114L320.19 361.454V360.223H320.189ZM315.162 360.272C315.073 360.303 314.804 360.193 314.805 360.348C314.806 360.503 314.987 361.324 315.048 361.466C315.079 361.539 315.059 361.542 315.163 361.529V360.272H315.162ZM306.985 368.868C306.684 368.06 306.415 367.284 306.875 366.472C307.335 365.66 308.275 365.403 309.15 365.306C310.563 365.148 313.205 365.431 314.4 364.871C315.135 364.528 315.372 363.356 315.496 362.632C315.388 362.485 314.768 362.673 314.579 362.687C314.21 362.714 313.856 362.631 313.491 362.64C313.339 363.69 312.246 364.095 311.365 364.431C310.405 364.798 308.88 365.33 307.874 365.398C306.674 365.48 304.77 364.993 305.019 366.919C305.156 367.977 306.005 368.606 306.986 368.867L306.985 368.868ZM321.103 362.584H316.279V363.363C316.279 363.958 315.836 365.039 315.388 365.448C314.064 366.653 310.797 366.152 309.049 366.411C308.211 366.535 307.622 366.775 307.751 367.732C307.796 368.064 308.175 368.825 308.533 368.868C309.034 368.927 309.561 368.822 310.055 368.814C314.267 368.751 318.487 368.819 322.704 368.764C322.999 368.76 323.038 368.871 323.313 368.618C324.705 367.333 322.099 365.534 321.531 364.396C321.262 363.857 321.089 363.184 321.101 362.584H321.103Z" fill="#4C4D55"/>
<path d="M316.217 285.896C316.928 285.859 318.58 286.089 318.973 286.758C319.075 286.933 319.068 287.099 318.828 287.055C316.323 286.591 313.833 286.769 313.246 289.691C313.16 290.117 313.149 291.565 312.687 291.701C312.439 291.774 312.197 291.695 312.088 291.461C311.912 291.086 312.097 289.933 312.18 289.491C312.575 287.421 314.049 286.008 316.217 285.895V285.896Z" fill="#4C4D56"/>
<path d="M319.007 288.106C320.42 287.865 318.797 289.077 318.538 289.349C317.899 290.022 317.479 290.828 317.219 291.712C317.049 292.289 316.99 293.203 316.774 293.684C316.456 294.393 315.807 294.018 315.821 293.298C315.851 291.599 317.079 288.433 319.008 288.105L319.007 288.106Z" fill="#4C4D56"/>
<path d="M321.355 289.101C321.41 289.157 321.097 289.845 321.05 289.979C320.892 290.428 320.725 290.899 320.619 291.362C320.449 292.106 320.31 294.555 319.957 294.98C319.893 295.057 319.847 295.105 319.734 295.08C319.483 294.579 319.462 294.049 319.475 293.496C319.504 292.275 319.761 290.876 320.472 289.86C320.555 289.742 321.219 288.96 321.356 289.101H321.355Z" fill="#4C4D56"/>
<path d="M322.054 283.029C322.785 282.879 322.949 283.335 322.449 283.823C321.812 284.446 321.59 284.565 321.254 285.455C321.145 285.742 320.916 286.788 320.8 286.915C320.765 286.952 320.735 286.995 320.679 286.985C320.157 286.505 320.31 285.432 320.508 284.817C320.707 284.201 321.351 283.174 322.054 283.029Z" fill="#4C4D56"/>
<path d="M316.824 295.039C317.649 294.906 317.419 296.455 317.014 296.84C316.315 297.504 315.462 296.658 315.997 296.084C316.114 295.958 316.358 295.933 316.407 295.836C316.513 295.621 316.325 295.121 316.825 295.039H316.824Z" fill="#4C4D56"/>
<path d="M317.078 300.472C317.122 300.518 317.146 300.622 317.144 300.686C317.128 301.406 314.99 301.658 314.866 300.975C314.775 300.481 315.446 300.383 315.795 300.357C316.039 300.338 316.93 300.315 317.079 300.472H317.078Z" fill="#4C4D56"/>
</g>
<defs>
<clipPath id="clip0_465_2157">
<rect width="33" height="87" fill="white" transform="translate(303 283)"/>
</clipPath>
</defs>
</svg>
