<svg width="23" height="20" viewBox="0 0 23 20" fill="none" xmlns="http://www.w3.org/2000/svg">
<path d="M2.3 19.1998C1.6675 19.1998 1.12604 18.9746 0.675625 18.5242C0.225208 18.0738 0 17.5323 0 16.8998V3.0998C0 2.4673 0.225208 1.92585 0.675625 1.47543C1.12604 1.02501 1.6675 0.799805 2.3 0.799805H20.7C21.3325 0.799805 21.874 1.02501 22.3244 1.47543C22.7748 1.92585 23 2.4673 23 3.0998V16.8998C23 17.5323 22.7748 18.0738 22.3244 18.5242C21.874 18.9746 21.3325 19.1998 20.7 19.1998H2.3ZM11.5 11.1498L20.7 5.3998V3.0998L11.5 8.8498L2.3 3.0998V5.3998L11.5 11.1498Z" fill="#4C4D54"/>
</svg>
