<svg width="282" height="348" viewBox="0 0 282 348" fill="none" xmlns="http://www.w3.org/2000/svg">
<g clip-path="url(#clip0_461_2125)">
<path d="M96.498 165.992C96.5422 166.044 97.5002 166.251 97.806 166.395C107.533 170.901 111.007 183.055 115.911 191.921C120.384 200.004 124.253 205.3 131.209 211.408C133.117 213.084 136.507 215.269 138.043 217.037C139.429 218.631 137.855 220.126 138.043 220.359C138.463 220.189 138.913 220.034 139.37 219.979C144.826 219.303 150.618 221.374 155.622 223.378C156.067 223.437 155.85 223.311 155.924 223.083C156.152 222.378 156.226 221.067 156.318 220.259C157.136 213.058 157.349 205.466 158.352 198.35C158.503 197.276 158.621 196.036 159.527 195.301L211.208 169.805C215.382 168.76 214.62 172.868 214.336 175.555C212.041 197.272 207.877 218.842 205.029 240.485C204.407 242.567 203.5 241.876 201.968 242.448C199.289 243.445 196.544 245.501 193.799 246.505L193.674 246.918C194.661 246.852 194.893 247.944 195.487 248.424C196.813 249.494 199.433 250.701 201.006 251.746C214.704 260.833 227.946 270.606 241.273 280.221C242.197 281.335 241.855 282.273 241.276 283.45L231.723 295.427C232.099 297.97 236.958 297.963 238.966 297.841C247.735 297.306 250.694 290.478 257.941 287.673C266.739 284.266 271.555 292.858 267.259 300.229C266.68 301.222 265.277 303.3 264.558 304.163C263.891 304.968 262.959 305.714 261.891 305.082C260.428 304.219 262.119 302.229 262.528 301.325C263.655 298.837 266.227 293.777 263.626 291.618C261.695 290.016 258.538 291.806 256.743 292.914C253.019 295.213 250.049 298.723 245.933 300.395C242.035 301.978 235.024 302.687 231.211 300.753C230.289 300.284 229.777 299.561 228.937 299.048L218.986 311.438C222.626 316.447 229 313.601 233.436 311.412C239.228 308.552 247.403 301.539 253.615 301.853C255.24 301.934 258.939 302.849 259.783 304.326C262.097 308.382 260.034 312.228 257.698 315.598C251.081 325.146 235.212 337.614 223.635 339.629C215.685 341.013 210.07 335.019 204.005 331.066C203.788 331.084 202.273 333.358 201.905 333.749C200.999 334.709 199.053 336.381 197.745 335.491L169.766 316.742C170.027 317.62 170.234 318.569 170.344 319.484C170.882 323.968 171.052 328.22 170.319 332.686C169.327 338.725 158.978 341.364 153.905 342.6C141.322 345.663 128.151 346.638 115.241 347.328C93.0199 348.513 70.5414 348.077 48.3577 346.117C32.0911 344.682 15.7508 342.401 0.0736705 337.846C-0.154762 337.584 0.191571 334.222 0.184202 333.568C-0.070021 300.358 1.96745 258.74 15.946 228.121C19.9731 219.299 26.2366 209.404 35.1933 205.145L38.7672 195.888C35.4549 193.725 34.3128 189.167 35.4144 185.443C35.9855 183.513 39.3272 178.121 41.6337 178.567C45.307 179.276 39.8909 184.709 39.2535 186.071C38.1445 188.448 38.6456 191.408 39.2204 193.884C39.2904 194.194 39.0841 194.235 39.6183 194.187C41.6189 188.964 44.1059 183.878 46.8913 179.032C49.9199 173.762 54.0206 167.395 58.5966 163.39C60.8736 161.397 65.1954 159.297 66.6397 156.758C67.8997 154.54 67.9955 151.989 68.2571 149.509C63.8137 147.582 58.4603 146.663 56.397 141.659C55.2328 138.835 54.1422 130.501 54.5069 127.497C54.5843 126.847 55.1259 124.802 56.0691 125.389C58.1103 129.656 58.0771 134.764 59.4551 139.2C60.7557 143.386 65.4864 144.261 69.2445 145.49C77.1107 148.066 83.1605 150.107 90.8425 145.589C95.1753 143.043 99.1471 136.816 100.975 132.195C102.802 127.574 101.336 126.508 100.54 122.385C100.094 120.078 100.871 118.827 103.377 119.506L103.594 119.333C104.04 116.959 104.633 114.586 104.895 112.18C105.061 110.652 104.39 107.186 106.619 106.857C109.703 106.403 108.94 110.869 108.686 112.759C108.207 116.306 106.98 119.761 104.902 122.658C106.243 127.057 106.28 130.265 104.467 134.495C102.047 140.142 97.4854 146.848 91.9183 149.693C91.2588 150.029 87.5228 151.377 87.4381 151.653C87.9502 156.119 91.1741 158.906 93.8452 162.098C94.2837 162.623 94.5932 163.324 94.969 163.789C95.249 164.136 95.8495 164.324 96.1517 164.815C96.4096 165.236 96.4317 165.907 96.4943 165.981L96.498 165.992ZM92.0436 164.819C87.847 161.777 84.4795 157.869 83.4184 152.635C79.6861 152.565 76.0238 151.757 72.4536 150.738C72.041 150.683 72.1957 150.756 72.1589 151.033C71.5436 155.566 70.8951 160.777 65.7296 162.206C65.7517 162.493 66.0244 162.523 66.2233 162.615C74.1079 166.269 83.7389 168.196 92.0399 164.819H92.0436ZM155.916 261.213L201.194 238.259L210.14 174.88L162.637 198.018L161.734 208.784L155.913 261.209L155.916 261.213ZM78.7355 190.411C77.5565 190.651 77.2323 192.042 77.3944 193.08C77.5897 194.331 82.6741 200.502 83.8126 201.941C91.5314 211.693 99.1102 219.502 109.338 226.677C110.768 227.681 113.984 230.01 115.657 230.029C118.269 230.058 115.598 227.312 114.846 226.593C110.974 222.88 106.14 219.639 102.084 216.037C96.1811 210.799 91.513 204.872 86.6312 198.719C85.0358 196.711 82.6557 192.851 80.9977 191.286C80.434 190.754 79.535 190.249 78.7392 190.411H78.7355ZM34.1985 217.945C32.8316 218.543 33.1374 215.948 33.189 215.022C33.3143 212.648 34.077 210.194 34.6001 207.887C34.3901 207.629 30.2231 212.121 29.8804 212.512C13.3485 231.372 7.97302 266.088 5.68132 290.496C4.45442 303.569 3.78754 316.827 4.28125 329.929C4.31809 330.929 4.02703 334.55 4.57232 335.071C4.90023 335.384 9.78942 336.421 10.6626 336.617C40.0457 343.135 73.7505 344.434 103.786 343.715C120.447 343.316 141.146 342.637 157.022 337.691C159.343 336.968 165.183 335.048 166.104 332.705C167.78 328.446 166.516 320.458 165.956 315.852C165.879 315.21 166.148 314.354 165.768 313.826L131.212 290.193C132.738 293.674 134.521 297.047 136.065 300.52C140.014 309.39 143.279 318.595 145.814 327.98C146.208 329.438 147.626 333.982 147.468 335.152C147.158 337.477 144.336 337.639 143.404 335.026C142.413 332.258 141.816 328.737 140.95 325.814C134.193 303.027 122.182 275.987 103.587 260.619C88.1971 247.896 65.3501 236.322 46.556 229.619C41.3168 227.751 35.1823 226.681 30.8826 222.987C30.551 222.699 27.8209 220.082 28.1782 219.764C29.3167 219.27 35.0681 222.507 35.407 222.178L34.1985 217.952V217.945ZM154.708 235.052L154.818 233.243C154.151 232.86 150.544 230.379 150.688 229.726C150.869 228.925 154.343 229.143 155.014 229.586C156.325 227.615 153.783 227.035 152.35 226.445C147.298 224.371 142.045 223.717 136.927 221.949L126.791 232.738C126.725 233.122 126.832 232.985 127.042 233.081C127.657 233.362 128.928 233.683 129.65 233.893C136.721 235.986 143.842 236.152 150.935 238.123C151.594 238.307 153.359 239.075 153.816 239.068C154.063 239.064 154.199 238.975 154.273 238.739L154.284 237.078C153.374 237.041 149.299 235.074 149.483 234.144C149.741 232.849 154.52 235.248 154.704 235.045L154.708 235.052ZM153.3 246.523L153.684 243.641C153.466 242.943 147.494 241.419 146.473 241.19C143.4 240.496 140.449 240.337 137.391 239.824C130.347 238.643 123.32 236.455 117.613 232.059L104.294 245.42L104.545 245.763C120.097 251.236 135.53 257.05 151.388 261.623C151.952 261.718 151.624 260.763 151.683 260.419C146.746 259.777 143.986 255.09 139.712 253.196C136.216 251.65 132.251 251.484 128.552 250.694C123.239 249.557 117.182 247.387 112.783 244.157C112.05 243.618 107.673 240.19 110.93 240.78C113.048 241.164 116.84 243.22 119.105 244.061C122.171 245.198 125.152 246.173 128.357 246.866C133.817 248.051 138.869 248.073 143.765 251.152C146.576 252.916 148.886 255.905 152.298 256.385C149.071 253.182 145.368 250.376 142.461 246.826C142.501 245.929 145.335 247.272 145.674 247.427C148.175 248.549 150.533 250.292 152.696 251.96C152.807 251.41 153.149 250.749 152.696 250.251L144.012 244.32C143.404 243.833 143.872 243.36 144.554 243.334C147.085 243.246 151.079 245.316 153.297 246.523H153.3ZM191.666 247.73L183.03 252.052L186.729 254.566L191.662 247.73H191.666ZM200.475 254.599L194.801 250.155L189.861 256.784L196.36 260.6L200.402 255.175L200.479 254.602L200.475 254.599ZM123.98 256.787L113.737 253.366C115.266 254.68 116.851 255.983 118.494 257.149C119.345 257.754 121.423 259.342 122.307 259.57C122.705 259.674 122.514 259.515 122.617 259.338C122.816 258.998 124.109 256.924 123.98 256.784V256.787ZM180.211 264.634L184.201 257.924C184.142 257.599 179.412 254.145 178.929 254.171C177.463 254.248 177.551 255.809 176.969 256.854C176.63 257.459 174.128 260.249 174.191 260.504L180.215 264.634H180.211ZM105.304 256.983C108.649 259.397 111.814 262.416 114.644 265.435C115.207 266.037 116.298 267.672 116.84 268.063C117.05 268.214 117.064 268.351 117.355 268.163C117.595 268.008 119.724 264.49 119.993 263.962C120.1 263.748 120.248 263.553 120.314 263.324L120.181 263.121L108.528 254.868C108.358 254.839 105.705 256.311 105.506 256.492C105.326 256.658 105.234 256.695 105.3 256.983H105.304ZM207.096 267.421L210.736 262.542L203.611 257.197L199.709 262.903C201.872 264.106 204.075 266.155 206.256 267.214C206.496 267.332 206.831 267.572 207.096 267.417V267.421ZM135.026 260.611C133.493 260.471 129.12 258.194 127.9 258.386C127.307 258.478 126.264 260.925 125.807 261.519L131.916 264.989L135.026 260.611ZM167.345 263.416L168.745 261.076C167.574 258.781 165.65 261.298 163.952 261.619L167.345 263.416ZM187.079 260.043L182.44 266.325L189.153 271.067L193.866 263.929L187.834 260.12C187.609 260.013 187.311 259.91 187.079 260.046V260.043ZM147.077 264.435L138.776 262.04L135.442 266.923L141.51 270.92L142.115 271.049L147.074 264.435H147.077ZM154.31 266.845L158.127 269.174L162.946 262.929L162.261 262.623L154.435 266.432L154.314 266.845H154.31ZM177.4 270.067L178.321 267.65C176.449 266.745 174.161 264.287 172.374 263.534C172.194 263.457 171.988 263.342 171.803 263.453C171.73 264.114 170.374 265.088 170.661 265.642L177.4 270.071V270.067ZM210.552 270.056L217.475 274.271L220.596 269.964L213.857 264.845C213.168 266.269 211.204 268.137 210.652 269.466C210.571 269.661 210.49 269.835 210.556 270.052L210.552 270.056ZM123.711 265.254L119.765 271.577C120.634 273.88 123.361 273.902 125.266 274.88L129.392 268.384C129.296 268.063 124.083 265.144 123.711 265.254ZM165.654 265.443L161.564 271.551C161.623 271.842 165.776 274.544 166.037 274.481L170.374 269.163L165.658 265.443H165.654ZM150.869 265.664C150.673 265.55 150.327 265.631 150.194 265.849L145.069 273.175L151.992 277.722L156.299 271.606C154.962 270.27 153.44 269.085 152.195 267.657C151.867 267.281 150.972 265.727 150.869 265.668V265.664ZM204.495 270.695L197.414 266.258L192.683 273.363L199.971 278.301L204.491 270.695H204.495ZM186.014 275.877C186.147 275.271 187.333 274.485 186.954 273.891L180.406 269.159C179.64 268.82 178.811 270.355 178.211 270.772L185.447 275.799L186.014 275.877ZM132.955 270.488L128.611 276.408L135.729 280.929C136.172 280.055 139.771 275.094 139.631 274.625L132.951 270.488H132.955ZM169.184 276.489L176.107 280.531C176.855 280.512 179.025 276.799 179.81 276.209L173.086 271.267L172.691 271.484L169.184 276.493V276.489ZM230.205 282.731C231.026 281.31 232.106 280.01 233.233 278.822L223.79 272.167L220.795 276.412L230.201 282.731H230.205ZM210.327 284.746L215.165 277.419L208.054 273.097C206.175 275.334 204.812 277.914 203.353 280.431L210.327 284.746ZM164.147 276.914L159.457 274.123C158.856 274.692 154.7 279.623 154.91 279.925L159.63 283.1L164.147 276.914ZM188.851 278.313L196.787 283.746L198.066 281.804L190.708 276.552L190.093 276.545L188.851 278.313ZM145.843 286.742L149.461 281.062L142.785 276.718L138.843 282.834C140.865 283.871 143.095 285.731 145.125 286.613C145.338 286.706 145.626 286.872 145.843 286.742ZM189.028 282.572L182.753 278.342C182.488 278.394 179.806 282.572 179.813 282.852C179.824 283.255 180.882 283.79 181.239 284.033C182.783 285.082 184.47 286.049 186.114 286.938C186.349 286.894 188.586 283.849 188.825 283.417C188.954 283.188 189.172 282.812 189.028 282.568V282.572ZM169.755 289.979L174.386 283.247L167.283 278.936L162.729 285.451L169.755 289.979ZM126.688 279.364C125.535 280.339 125.782 280.97 126.585 282.048L132.421 285.879L133.733 283.749L126.688 279.364ZM227.791 285.591L218.706 279.741L213.761 287.167L223.311 292.404L223.698 292.201L227.585 286.432L227.791 285.587V285.591ZM235.16 280.335L232.865 284.694C233.167 285.347 233.967 286.067 234.663 285.477C235.591 284.683 236.428 282.863 237.456 282.029L235.164 280.335H235.16ZM154.277 291.574L157.302 286.488L152.423 283.159L148.699 288.455C149.259 289.027 153.868 291.817 154.277 291.574ZM201.308 283.753L200.184 286.167L206.429 290.581C206.702 290.072 208.345 288.448 208.047 287.975L201.308 283.753ZM189.669 289.367L196.592 293.585L199.248 290.086L192.359 285.152C192.023 285.096 192.112 285.255 192.005 285.406C191.692 285.849 189.54 289.178 189.669 289.37V289.367ZM177.923 285.565L173.402 292.275C174.22 292.869 179.548 296.169 180.086 296.01L184.419 289.688L177.923 285.565ZM143.459 289.592L136.931 285.775L135.475 288.082L141.356 292.205C141.879 292.205 143.603 289.795 143.459 289.592ZM232.437 288.182C231.896 288.145 231.391 287.47 230.934 287.979C230.076 289.965 227.747 292.216 226.981 294.084C226.881 294.323 226.782 294.552 227.121 294.619C229.177 292.843 230.713 290.304 232.441 288.182H232.437ZM160.157 288.809C159.829 289.662 157.143 292.832 157.335 293.478L164.626 297.819L167.272 293.404L160.846 288.968L160.153 288.809H160.157ZM221.163 295.652L211.599 290.216C210.692 290.086 210.003 292.028 209.347 292.5L218.905 299.421C219.281 299.542 219.133 299.332 219.233 299.192C219.583 298.69 221.381 296.029 221.163 295.652ZM150.286 298.24C150.401 297.424 152.412 295.239 152.011 294.615C151.856 294.371 147.431 291.88 147.018 291.755C146.742 291.67 146.606 291.511 146.278 291.688C145.998 291.84 144.377 294.076 144.554 294.416L150.286 298.24ZM194.676 295.829L187.974 291.825C187.595 291.899 183.744 297.904 183.815 298.321L190.332 302.048L194.672 295.829H194.676ZM202.446 292.423C202.225 292.478 200.383 295.143 200.254 295.486C200.184 295.671 200.011 295.818 200.188 296.029L209.543 302.58L212.066 299.04C210.876 298.372 203.014 292.279 202.45 292.423H202.446ZM175.186 304.673L177.791 299.579C175.79 298.431 173.653 296.9 171.59 295.918C171.335 295.796 170.882 295.493 170.61 295.652C170.315 296.416 167.736 299.443 168.053 300.048L174.6 304.573L175.189 304.669L175.186 304.673ZM162.721 300.878L155.4 296.623C155.054 296.582 155.154 296.756 155.047 296.878C154.354 297.667 153.901 299.317 153.138 300.155L160.227 305.09C160.584 304.444 163.005 301.369 162.718 300.882L162.721 300.878ZM207.501 305.315L198.206 298.446L194.064 304.182L204.016 311.519C204.978 309.858 206.426 307.998 207.236 306.3C207.358 306.046 207.66 305.592 207.501 305.319V305.315ZM219.583 304.281L215.463 301.469L212.969 305.16L216.875 307.847C217.099 307.832 219.719 304.466 219.583 304.278V304.281ZM181.56 301.679C180.97 301.831 178.664 306.193 178.255 306.998L184.319 311.316L188.247 305.381L181.563 301.679H181.56ZM170.956 312.302C171.265 311.397 173.447 308.685 173.097 307.906C172.92 307.515 166.339 302.968 165.953 303.156C165.378 304.241 163.93 305.684 163.455 306.699C163.348 306.928 163.248 307.23 163.381 307.463L170.381 312.22L170.956 312.302ZM216.171 314.944L206.547 327.896C206.599 328.198 210.652 330.974 211.282 331.409C217.604 335.779 219.535 337.385 227.265 334.417C236.498 330.878 246.541 323.138 252.713 315.443C255.609 311.833 260.516 305.197 251.615 306.094C248.678 306.389 240.889 312.106 237.658 313.844C231.015 317.414 222.851 321.366 216.458 314.952H216.167L216.171 314.944ZM198.268 320.957L202.292 314.276C199.587 312.335 196.736 310.342 193.858 308.622C193.401 308.349 192.016 307.393 191.596 307.515L187.672 313.841L198.268 320.957ZM211.042 307.913C210.526 309.013 207.369 313.221 207.325 314.055C207.314 314.247 207.321 314.369 207.424 314.538C207.686 314.952 209.487 316.111 209.863 316.738L214.767 310.615C214.771 310.028 211.613 308.452 211.042 307.91V307.913ZM176.405 310.316C176.427 311.065 173.933 314.354 173.996 314.627L179.916 318.764L182.378 314.642L176.401 310.316H176.405ZM204.281 324.563L208.916 318.259L206.028 316.369L201.529 323.123C201.463 323.562 203.799 324.847 204.285 324.563H204.281ZM193.67 328.021L195.792 324.194L186.357 317.336C186.125 317.151 185.918 317.089 185.638 317.24C185.432 317.351 183.229 320.776 183.321 320.979L193.67 328.017V328.021ZM201.706 327.622L199.296 326.5L196.725 329.981L196.71 330.413L198.781 331.642L201.706 327.622Z" fill="#4C4D56"/>
<path d="M157.501 113.125C155.268 113.033 153.017 113.177 150.784 113.114C150.305 113.099 149.881 112.918 149.395 112.896C148.496 112.856 148.363 113.509 147.269 112.608C146.403 111.896 146.337 110.667 146.263 109.593C145.545 99.3619 146.827 88.3004 146.263 77.9808C146.411 76.0578 146.049 73.6699 148.223 72.6992C184.68 72.8394 221.207 72.2747 257.635 72.8653C263.711 72.9649 272.719 72.3301 278.437 73.7548C282.578 74.7882 281.304 77.202 281.436 80.6124C281.764 89.2674 282.298 100.24 281.654 108.785C281.333 113.044 279.664 111.881 276.315 112.088C270.866 112.428 265.708 112.575 260.247 112.693C231.107 113.317 201.864 112.837 172.691 113.11C169.427 115.716 166.612 119.045 163.23 121.537C162.047 122.123 160.754 121.562 160.094 120.492C158.96 118.643 158.204 115.233 157.504 113.125H157.501Z" fill="#4C4D56"/>
<path d="M175.956 0.0664355L274.926 0C276.963 0.690191 281.491 -0.937478 281.849 2.11855C282.07 16.3948 282.052 30.6341 281.753 44.8956C281.425 45.5083 280.836 46.1689 280.125 46.2834L264.573 46.3978L256.504 60.2459C254.953 62.2537 253.527 61.9917 251.924 60.2754C249.994 58.2048 247.621 54.9421 245.93 52.5984C244.46 50.5574 243.133 48.4241 241.744 46.3277C223.613 46.0841 205.468 46.5417 187.337 46.3055C186.762 46.2981 186.272 46.0951 185.749 46.0878C181.829 46.0287 177.897 46.2243 173.981 46.0066C172.993 45.5046 172.68 44.8624 172.577 43.7883C172.194 39.7026 172.525 34.122 172.577 29.8886C172.658 23.2081 173.601 14.8631 172.997 8.3561C172.853 6.81332 172.304 5.95335 172.378 4.13007C172.496 1.20322 172.979 0.405994 175.956 0.0701263V0.0664355ZM277.627 42.0684V4.53607L177.201 4.43272C177.124 10.7035 177.3 16.9853 177.212 23.2561C177.149 27.508 176.962 31.8779 176.803 36.1298C176.729 38.1081 176.6 40.1196 176.689 42.0758C176.906 42.3895 180.841 42.2899 181.53 42.2714C202.023 41.7805 222.611 42.1607 243.133 42.109C243.808 42.2456 244.213 42.4929 244.684 42.969C246.88 45.1946 249.209 49.69 251.15 52.388C252.038 53.6208 252.971 54.8462 254.024 55.9423L260.988 43.4008C261.655 42.5002 262.307 41.906 263.49 41.8802C263.884 41.8691 264.252 42.0684 264.665 42.0684L277.627 42.0573V42.0684Z" fill="#4C4D56"/>
<path d="M70.9137 69.4953C71.8974 69.4288 79.1483 69.4621 79.1851 70.5435C78.1167 71.2521 76.6208 70.9089 75.475 71.0491C57.7788 73.212 48.811 84.6942 41.9949 100.089C37.8831 109.375 32.4044 128.39 32.9828 138.367C33.3291 144.313 36.5272 150.284 35.5472 156.212C34.7698 160.907 31.4943 165.247 29.6079 169.577C26.7672 176.091 24.0297 187.673 29.3721 193.501C30.3669 194.586 32.7396 195.634 31.6712 197.406C29.9874 200.189 26.0304 196.103 24.9987 194.464C20.3048 187.016 22.6739 175.762 25.9935 168.17C27.7768 164.092 31.6601 158.781 31.9622 154.433C32.198 151.056 30.5032 146.87 29.8732 143.497C28.5873 136.632 29.3058 131.295 30.6801 124.57C34.9355 103.765 45.7124 71.2041 70.91 69.4953H70.9137Z" fill="#4C4D56"/>
<path d="M98.0343 67.2767C108.1 66.9704 117.989 76.4965 120.664 85.7384C123.633 95.9842 120.656 103.868 118.531 113.582C116.685 122.023 119.931 126.899 125.984 132.324C127.417 133.609 132.24 136.794 132.568 138.407C133.069 140.85 130.895 141.131 129.138 140.031C121.143 135.037 112.654 125.747 113.958 115.642C115.012 107.5 118.302 101.735 117.749 92.6809C116.972 79.9733 106.217 69.3067 93.1709 70.8679C92.3198 70.9713 88.978 72.2631 90.1497 70.4546C91.4834 68.3951 95.7168 67.3469 98.0343 67.2767Z" fill="#4C4D56"/>
<path d="M118.899 137.68C122.528 138.754 124.746 144.511 124.993 148.007C125.417 153.953 122.834 156.16 121.217 161.146C119.551 166.284 121.427 169.174 121.769 173.979C122.042 177.814 121.416 184.185 120.719 188.016C120.421 189.651 118.855 190.488 117.643 189.178C115.966 187.366 117.602 181.047 117.75 178.6C118.122 172.496 115.502 167.21 117.046 161.194C118.59 155.178 122.462 152.797 120.705 145.46C120.38 144.098 118.059 138.857 118.446 138.06C118.516 137.912 118.737 137.72 118.896 137.68H118.899Z" fill="#4C4D56"/>
<path d="M69.2962 52.5802C77.306 51.2293 86.5834 58.6775 85.5959 67.1C85.5186 67.7681 84.6048 70.7687 83.7022 69.44C83.5732 69.2518 83.0869 66.9671 82.899 66.4246C81.3699 62.0657 78.8388 58.4007 74.2148 57.0166C72.0521 56.367 71.0242 56.821 69.1009 56.7102C66.5255 56.5589 66.4629 53.06 69.2999 52.5839L69.2962 52.5802Z" fill="#4C4D56"/>
<path d="M81.5983 85.3327C82.0183 89.2967 80.2461 93.6556 78.4186 97.1398C77.2507 99.3727 72.8478 106.072 70.9393 107.356C69.3071 108.452 67.686 107.452 67.9513 105.573C68.1097 104.437 73.1758 98.4574 74.2516 96.7854C75.3274 95.1135 79.9624 85.8531 80.7951 85.4324C81.053 85.3032 81.322 85.3179 81.5983 85.3327Z" fill="#4C4D56"/>
<path d="M93.5615 88.957C94.5748 88.6654 96.1959 91.4262 96.5017 92.2382C97.9865 96.1726 96.7375 103.241 94.8584 106.968C93.6573 109.353 90.8977 108.81 90.8719 106.566C90.8572 105.4 92.3899 101.919 92.751 100.425C93.4547 97.505 93.5542 94.8661 93.4621 91.8617C93.4436 91.3007 92.8652 89.1563 93.5652 88.9533L93.5615 88.957Z" fill="#4C4D56"/>
<path d="M85.3934 91.5957C86.2003 93.478 85.5702 95.5671 84.9107 97.4014C84.3212 99.0439 80.9537 105.451 79.6641 106.226C79.0857 106.573 78.5662 106.721 77.9362 106.415C75.7513 105.352 77.6893 102.613 78.5036 101.244C80.4452 97.9846 82.6669 94.8474 84.6528 91.6142L85.3897 91.5957H85.3934Z" fill="#4C4D56"/>
<path d="M70.4125 133.89C71.4036 132.657 73.7211 134.642 75.0696 135.041C76.4181 135.44 79.3988 135.215 79.7488 136.791C80.283 139.171 77.4571 139.692 75.6923 139.444C73.9274 139.197 68.6661 136.056 70.4125 133.886V133.89Z" fill="#4C4D56"/>
<path d="M83.5509 117.764C84.87 117.366 85.6768 119.809 86.34 120.732C87.0548 121.728 88.0385 122.005 88.2154 123.485C88.6686 127.283 83.1751 128.556 83.0093 125.866C82.9467 124.869 84.2215 124.09 84.2215 123.666C83.6909 122.791 82.9725 121.887 82.8251 120.831C82.7219 120.082 82.6262 118.041 83.5509 117.764Z" fill="#4C4D56"/>
<path d="M71.1088 113.951C73.3968 113.615 72.8589 115.154 73.2052 116.383C73.4889 117.376 75.6075 117.742 73.9679 119.845C70.3572 124.474 66.4002 114.649 71.1088 113.955V113.951Z" fill="#4C4D56"/>
<path d="M95.2121 111.73C97.2459 111.464 96.3985 113.523 96.697 114.38C96.7891 114.649 97.2312 114.76 97.4412 115.044C98.7602 116.819 96.8038 118.812 94.7442 118.148C91.8078 117.199 92.8136 112.047 95.2121 111.733V111.73Z" fill="#4C4D56"/>
<path d="M185.789 203.695C186.747 203.503 186.493 204.145 186.935 204.677C188.387 206.4 190.66 208.415 191.865 210.202C192.675 211.398 192.653 212.088 192.031 213.383C191.124 215.273 187.808 220.787 186.53 222.363C185.797 223.264 184.691 223.733 183.638 223.072C182.768 222.526 179.854 217.694 179.309 216.546C178.41 214.657 178.877 214.251 179.71 212.516C180.646 210.556 182.639 206.67 183.862 205.005C184.179 204.573 185.281 203.806 185.789 203.702V203.695ZM184.437 217.344C184.743 217.417 184.758 217.299 184.924 217.133C185.222 216.838 187.838 212.483 187.853 212.199C187.889 211.519 186.066 209.87 185.539 209.301L183.026 214.649L184.437 217.347V217.344Z" fill="#4C4D56"/>
</g>
<defs>
<clipPath id="clip0_461_2125">
<rect width="282" height="348" fill="white"/>
</clipPath>
</defs>
</svg>
