<svg width="766" height="943" viewBox="0 0 766 943" fill="none" xmlns="http://www.w3.org/2000/svg">
<g clip-path="url(#clip0_420_2128)">
<path d="M261.91 449.74C262.03 449.88 264.63 450.44 265.46 450.83C291.86 463.04 301.29 495.97 314.6 519.99C326.74 541.89 337.24 556.24 356.12 572.79C361.3 577.33 370.5 583.25 374.67 588.04C378.43 592.36 374.16 596.41 374.67 597.04C375.81 596.58 377.03 596.16 378.27 596.01C393.08 594.18 408.8 599.79 422.38 605.22C423.59 605.38 423 605.04 423.2 604.42C423.82 602.51 424.02 598.96 424.27 596.77C426.49 577.26 427.07 556.69 429.79 537.41C430.2 534.5 430.52 531.14 432.98 529.15L573.25 460.07C584.58 457.24 582.51 468.37 581.74 475.65C575.51 534.49 564.21 592.93 556.48 651.57C554.79 657.21 552.33 655.34 548.17 656.89C540.9 659.59 533.45 665.16 526 667.88L525.66 669C528.34 668.82 528.97 671.78 530.58 673.08C534.18 675.98 541.29 679.25 545.56 682.08C582.74 706.7 618.68 733.18 654.85 759.23C657.36 762.25 656.43 764.79 654.86 767.98L628.93 800.43C629.95 807.32 643.14 807.3 648.59 806.97C672.39 805.52 680.42 787.02 700.09 779.42C723.97 770.19 737.04 793.47 725.38 813.44C723.81 816.13 720 821.76 718.05 824.1C716.24 826.28 713.71 828.3 710.81 826.59C706.84 824.25 711.43 818.86 712.54 816.41C715.6 809.67 722.58 795.96 715.52 790.11C710.28 785.77 701.71 790.62 696.84 793.62C686.73 799.85 678.67 809.36 667.5 813.89C656.92 818.18 637.89 820.1 627.54 814.86C625.04 813.59 623.65 811.63 621.37 810.24L594.36 843.81C604.24 857.38 621.54 849.67 633.58 843.74C649.3 835.99 671.49 816.99 688.35 817.84C692.76 818.06 702.8 820.54 705.09 824.54C711.37 835.53 705.77 845.95 699.43 855.08C681.47 880.95 638.4 914.73 606.98 920.19C585.4 923.94 570.16 907.7 553.7 896.99C553.11 897.04 549 903.2 548 904.26C545.54 906.86 540.26 911.39 536.71 908.98L460.77 858.18C461.48 860.56 462.04 863.13 462.34 865.61C463.8 877.76 464.26 889.28 462.27 901.38C459.58 917.74 431.49 924.89 417.72 928.24C383.57 936.54 347.82 939.18 312.78 941.05C252.47 944.26 191.46 943.08 131.25 937.77C87.1002 933.88 42.7502 927.7 0.200161 915.36C-0.419839 914.65 0.520161 905.54 0.500161 903.77C-0.189839 813.79 5.34016 701.03 43.2802 618.07C54.2102 594.17 71.2102 567.36 95.5202 555.82L105.22 530.74C96.2302 524.88 93.1302 512.53 96.1202 502.44C97.6702 497.21 106.74 482.6 113 483.81C122.97 485.73 108.27 500.45 106.54 504.14C103.53 510.58 104.89 518.6 106.45 525.31C106.64 526.15 106.08 526.26 107.53 526.13C112.96 511.98 119.71 498.2 127.27 485.07C135.49 470.79 146.62 453.54 159.04 442.69C165.22 437.29 176.95 431.6 180.87 424.72C184.29 418.71 184.55 411.8 185.26 405.08C173.2 399.86 158.67 397.37 153.07 383.81C149.91 376.16 146.95 353.58 147.94 345.44C148.15 343.68 149.62 338.14 152.18 339.73C157.72 351.29 157.63 365.13 161.37 377.15C164.9 388.49 177.74 390.86 187.94 394.19C209.29 401.17 225.71 406.7 246.56 394.46C258.32 387.56 269.1 370.69 274.06 358.17C279.02 345.65 275.04 342.76 272.88 331.59C271.67 325.34 273.78 321.95 280.58 323.79L281.17 323.32C282.38 316.89 283.99 310.46 284.7 303.94C285.15 299.8 283.33 290.41 289.38 289.52C297.75 288.29 295.68 300.39 294.99 305.51C293.69 315.12 290.36 324.48 284.72 332.33C288.36 344.25 288.46 352.94 283.54 364.4C276.97 379.7 264.59 397.87 249.48 405.58C247.69 406.49 237.55 410.14 237.32 410.89C238.71 422.99 247.46 430.54 254.71 439.19C255.9 440.61 256.74 442.51 257.76 443.77C258.52 444.71 260.15 445.22 260.97 446.55C261.67 447.69 261.73 449.51 261.9 449.71L261.91 449.74ZM249.82 446.56C238.43 438.32 229.29 427.73 226.41 413.55C216.28 413.36 206.34 411.17 196.65 408.41C195.53 408.26 195.95 408.46 195.85 409.21C194.18 421.49 192.42 435.61 178.4 439.48C178.46 440.26 179.2 440.34 179.74 440.59C201.14 450.49 227.28 455.71 249.81 446.56H249.82ZM423.18 707.73L546.07 645.54L570.35 473.82L441.42 536.51L438.97 565.68L423.17 707.72L423.18 707.73ZM213.7 515.9C210.5 516.55 209.62 520.32 210.06 523.13C210.59 526.52 224.39 543.24 227.48 547.14C248.43 573.56 269 594.72 296.76 614.16C300.64 616.88 309.37 623.19 313.91 623.24C321 623.32 313.75 615.88 311.71 613.93C301.2 603.87 288.08 595.09 277.07 585.33C261.05 571.14 248.38 555.08 235.13 538.41C230.8 532.97 224.34 522.51 219.84 518.27C218.31 516.83 215.87 515.46 213.71 515.9H213.7ZM92.8202 590.5C89.1102 592.12 89.9402 585.09 90.0802 582.58C90.4202 576.15 92.4902 569.5 93.9102 563.25C93.3402 562.55 82.0302 574.72 81.1002 575.78C36.2302 626.88 21.6402 720.94 15.4202 787.07C12.0902 822.49 10.2802 858.41 11.6202 893.91C11.7202 896.62 10.9302 906.43 12.4102 907.84C13.3002 908.69 26.5702 911.5 28.9402 912.03C108.69 929.69 200.17 933.21 281.69 931.26C326.91 930.18 383.09 928.34 426.18 914.94C432.48 912.98 448.33 907.78 450.83 901.43C455.38 889.89 451.95 868.25 450.43 855.77C450.22 854.03 450.95 851.71 449.92 850.28L356.13 786.25C360.27 795.68 365.11 804.82 369.3 814.23C380.02 838.26 388.88 863.2 395.76 888.63C396.83 892.58 400.68 904.89 400.25 908.06C399.41 914.36 391.75 914.8 389.22 907.72C386.53 900.22 384.91 890.68 382.56 882.76C364.22 821.02 331.62 747.76 281.15 706.12C239.38 671.65 177.37 640.29 126.36 622.13C112.14 617.07 95.4902 614.17 83.8202 604.16C82.9202 603.38 75.5102 596.29 76.4802 595.43C79.5702 594.09 95.1802 602.86 96.1002 601.97L92.8202 590.52V590.5ZM419.9 636.85L420.2 631.95C418.39 630.91 408.6 624.19 408.99 622.42C409.48 620.25 418.91 620.84 420.73 622.04C424.29 616.7 417.39 615.13 413.5 613.53C399.79 607.91 385.53 606.14 371.64 601.35L344.13 630.58C343.95 631.62 344.24 631.25 344.81 631.51C346.48 632.27 349.93 633.14 351.89 633.71C371.08 639.38 390.41 639.83 409.66 645.17C411.45 645.67 416.24 647.75 417.48 647.73C418.15 647.72 418.52 647.48 418.72 646.84L418.75 642.34C416.28 642.24 405.22 636.91 405.72 634.39C406.42 630.88 419.39 637.38 419.89 636.83L419.9 636.85ZM416.08 667.93L417.12 660.12C416.53 658.23 400.32 654.1 397.55 653.48C389.21 651.6 381.2 651.17 372.9 649.78C353.78 646.58 334.71 640.65 319.22 628.74L283.07 664.94L283.75 665.87C325.96 680.7 367.85 696.45 410.89 708.84C412.42 709.1 411.53 706.51 411.69 705.58C398.29 703.84 390.8 691.14 379.2 686.01C369.71 681.82 358.95 681.37 348.91 679.23C334.49 676.15 318.05 670.27 306.11 661.52C304.12 660.06 292.24 650.77 301.08 652.37C306.83 653.41 317.12 658.98 323.27 661.26C331.59 664.34 339.68 666.98 348.38 668.86C363.2 672.07 376.91 672.13 390.2 680.47C397.83 685.25 404.1 693.35 413.36 694.65C404.6 685.97 394.55 678.37 386.66 668.75C386.77 666.32 394.46 669.96 395.38 670.38C402.17 673.42 408.57 678.14 414.44 682.66C414.74 681.17 415.67 679.38 414.44 678.03L390.87 661.96C389.22 660.64 390.49 659.36 392.34 659.29C399.21 659.05 410.05 664.66 416.07 667.93H416.08ZM520.21 671.2L496.77 682.91L506.81 689.72L520.2 671.2H520.21ZM544.12 689.81L528.72 677.77L515.31 695.73L532.95 706.07L543.92 691.37L544.13 689.82L544.12 689.81ZM336.5 695.74L308.7 686.47C312.85 690.03 317.15 693.56 321.61 696.72C323.92 698.36 329.56 702.66 331.96 703.28C333.04 703.56 332.52 703.13 332.8 702.65C333.34 701.73 336.85 696.11 336.5 695.73V695.74ZM489.12 717L499.95 698.82C499.79 697.94 486.95 688.58 485.64 688.65C481.66 688.86 481.9 693.09 480.32 695.92C479.4 697.56 472.61 705.12 472.78 705.81L489.13 717H489.12ZM285.81 696.27C294.89 702.81 303.48 710.99 311.16 719.17C312.69 720.8 315.65 725.23 317.12 726.29C317.69 726.7 317.73 727.07 318.52 726.56C319.17 726.14 324.95 716.61 325.68 715.18C325.97 714.6 326.37 714.07 326.55 713.45L326.19 712.9L294.56 690.54C294.1 690.46 286.9 694.45 286.36 694.94C285.87 695.39 285.62 695.49 285.8 696.27H285.81ZM562.09 724.55L571.97 711.33L552.63 696.85L542.04 712.31C547.91 715.57 553.89 721.12 559.81 723.99C560.46 724.31 561.37 724.96 562.09 724.54V724.55ZM366.48 706.1C362.32 705.72 350.45 699.55 347.14 700.07C345.53 700.32 342.7 706.95 341.46 708.56L358.04 717.96L366.48 706.1ZM454.2 713.7L458 707.36C454.82 701.14 449.6 707.96 444.99 708.83L454.2 713.7ZM507.76 704.56L495.17 721.58L513.39 734.43L526.18 715.09L509.81 704.77C509.2 704.48 508.39 704.2 507.76 704.57V704.56ZM399.19 716.46L376.66 709.97L367.61 723.2L384.08 734.03L385.72 734.38L399.18 716.46H399.19ZM418.82 722.99L429.18 729.3L442.26 712.38L440.4 711.55L419.16 721.87L418.83 722.99H418.82ZM481.49 731.72L483.99 725.17C478.91 722.72 472.7 716.06 467.85 714.02C467.36 713.81 466.8 713.5 466.3 713.8C466.1 715.59 462.42 718.23 463.2 719.73L481.49 731.73V731.72ZM571.47 731.69L590.26 743.11L598.73 731.44L580.44 717.57C578.57 721.43 573.24 726.49 571.74 730.09C571.52 730.62 571.3 731.09 571.48 731.68L571.47 731.69ZM335.77 718.68L325.06 735.81C327.42 742.05 334.82 742.11 339.99 744.76L351.19 727.16C350.93 726.29 336.78 718.38 335.77 718.68ZM449.61 719.19L438.51 735.74C438.67 736.53 449.94 743.85 450.65 743.68L462.42 729.27L449.62 719.19H449.61ZM409.48 719.79C408.95 719.48 408.01 719.7 407.65 720.29L393.74 740.14L412.53 752.46L424.22 735.89C420.59 732.27 416.46 729.06 413.08 725.19C412.19 724.17 409.76 719.96 409.48 719.8V719.79ZM555.03 733.42L535.81 721.4L522.97 740.65L542.75 754.03L555.02 733.42H555.03ZM504.87 747.46C505.23 745.82 508.45 743.69 507.42 742.08L489.65 729.26C487.57 728.34 485.32 732.5 483.69 733.63L503.33 747.25L504.87 747.46ZM360.86 732.86L349.07 748.9L368.39 761.15C369.59 758.78 379.36 745.34 378.98 744.07L360.85 732.86H360.86ZM459.19 749.12L477.98 760.07C480.01 760.02 485.9 749.96 488.03 748.36L469.78 734.97L468.71 735.56L459.19 749.13V749.12ZM624.81 766.03C627.04 762.18 629.97 758.66 633.03 755.44L607.4 737.41L599.27 748.91L624.8 766.03H624.81ZM570.86 771.49L583.99 751.64L564.69 739.93C559.59 745.99 555.89 752.98 551.93 759.8L570.86 771.49ZM445.52 750.27L432.79 742.71C431.16 744.25 419.88 757.61 420.45 758.43L433.26 767.03L445.52 750.27ZM512.57 754.06L534.11 768.78L537.58 763.52L517.61 749.29L515.94 749.27L512.57 754.06ZM395.84 776.9L405.66 761.51L387.54 749.74L376.84 766.31C382.33 769.12 388.38 774.16 393.89 776.55C394.47 776.8 395.25 777.25 395.84 776.9ZM513.05 765.6L496.02 754.14C495.3 754.28 488.02 765.6 488.04 766.36C488.07 767.45 490.94 768.9 491.91 769.56C496.1 772.4 500.68 775.02 505.14 777.43C505.78 777.31 511.85 769.06 512.5 767.89C512.85 767.27 513.44 766.25 513.05 765.59V765.6ZM460.74 785.67L473.31 767.43L454.03 755.75L441.67 773.4L460.74 785.67ZM343.85 756.91C340.72 759.55 341.39 761.26 343.57 764.18L359.41 774.56L362.97 768.79L343.85 756.91ZM618.26 773.78L593.6 757.93L580.18 778.05L606.1 792.24L607.15 791.69L617.7 776.06L618.26 773.77V773.78ZM638.26 759.54L632.03 771.35C632.85 773.12 635.02 775.07 636.91 773.47C639.43 771.32 641.7 766.39 644.49 764.13L638.27 759.54H638.26ZM418.73 789.99L426.94 776.21L413.7 767.19L403.59 781.54C405.11 783.09 417.62 790.65 418.73 789.99ZM546.38 768.8L543.33 775.34L560.28 787.3C561.02 785.92 565.48 781.52 564.67 780.24L546.38 768.8ZM514.79 784.01L533.58 795.44L540.79 785.96L522.09 772.59C521.18 772.44 521.42 772.87 521.13 773.28C520.28 774.48 514.44 783.5 514.79 784.02V784.01ZM482.91 773.71L470.64 791.89C472.86 793.5 487.32 802.44 488.78 802.01L500.54 784.88L482.91 773.71ZM389.37 784.62L371.65 774.28L367.7 780.53L383.66 791.7C385.08 791.7 389.76 785.17 389.37 784.62ZM630.87 780.8C629.4 780.7 628.03 778.87 626.79 780.25C624.46 785.63 618.14 791.73 616.06 796.79C615.79 797.44 615.52 798.06 616.44 798.24C622.02 793.43 626.19 786.55 630.88 780.8H630.87ZM434.69 782.5C433.8 784.81 426.51 793.4 427.03 795.15L446.82 806.91L454 794.95L436.56 782.93L434.68 782.5H434.69ZM600.27 801.04L574.31 786.31C571.85 785.96 569.98 791.22 568.2 792.5L594.14 811.25C595.16 811.58 594.76 811.01 595.03 810.63C595.98 809.27 600.86 802.06 600.27 801.04ZM407.9 808.05C408.21 805.84 413.67 799.92 412.58 798.23C412.16 797.57 400.15 790.82 399.03 790.48C398.28 790.25 397.91 789.82 397.02 790.3C396.26 790.71 391.86 796.77 392.34 797.69L407.9 808.05ZM528.38 801.52L510.19 790.67C509.16 790.87 498.71 807.14 498.9 808.27L516.59 818.37L528.37 801.52H528.38ZM549.47 792.29C548.87 792.44 543.87 799.66 543.52 800.59C543.33 801.09 542.86 801.49 543.34 802.06L568.73 819.81L575.58 810.22C572.35 808.41 551.01 791.9 549.48 792.29H549.47ZM475.48 825.48L482.55 811.68C477.12 808.57 471.32 804.42 465.72 801.76C465.03 801.43 463.8 800.61 463.06 801.04C462.26 803.11 455.26 811.31 456.12 812.95L473.89 825.21L475.49 825.47L475.48 825.48ZM441.65 815.2L421.78 803.67C420.84 803.56 421.11 804.03 420.82 804.36C418.94 806.5 417.71 810.97 415.64 813.24L434.88 826.61C435.85 824.86 442.42 816.53 441.64 815.21L441.65 815.2ZM563.19 827.22L537.96 808.61L526.72 824.15L553.73 844.03C556.34 839.53 560.27 834.49 562.47 829.89C562.8 829.2 563.62 827.97 563.19 827.23V827.22ZM595.98 824.42L584.8 816.8L578.03 826.8L588.63 834.08C589.24 834.04 596.35 824.92 595.98 824.41V824.42ZM492.78 817.37C491.18 817.78 484.92 829.6 483.81 831.78L500.27 843.48L510.93 827.4L492.79 817.37H492.78ZM464 846.15C464.84 843.7 470.76 836.35 469.81 834.24C469.33 833.18 451.47 820.86 450.42 821.37C448.86 824.31 444.93 828.22 443.64 830.97C443.35 831.59 443.08 832.41 443.44 833.04L462.44 845.93L464 846.15ZM586.72 853.31L560.6 888.4C560.74 889.22 571.74 896.74 573.45 897.92C590.61 909.76 595.85 914.11 616.83 906.07C641.89 896.48 669.15 875.51 685.9 854.66C693.76 844.88 707.08 826.9 682.92 829.33C674.95 830.13 653.81 845.62 645.04 850.33C627.01 860 604.85 870.71 587.5 853.33H586.71L586.72 853.31ZM538.13 869.6L549.05 851.5C541.71 846.24 533.97 840.84 526.16 836.18C524.92 835.44 521.16 832.85 520.02 833.18L509.37 850.32L538.13 869.6ZM572.8 834.26C571.4 837.24 562.83 848.64 562.71 850.9C562.68 851.42 562.7 851.75 562.98 852.21C563.69 853.33 568.58 856.47 569.6 858.17L582.91 841.58C582.92 839.99 574.35 835.72 572.8 834.25V834.26ZM478.79 840.77C478.85 842.8 472.08 851.71 472.25 852.45L488.32 863.66L495 852.49L478.78 840.77H478.79ZM554.45 879.37L567.03 862.29L559.19 857.17L546.98 875.47C546.8 876.66 553.14 880.14 554.46 879.37H554.45ZM525.65 888.74L531.41 878.37L505.8 859.79C505.17 859.29 504.61 859.12 503.85 859.53C503.29 859.83 497.31 869.11 497.56 869.66L525.65 888.73V888.74ZM547.46 887.66L540.92 884.62L533.94 894.05L533.9 895.22L539.52 898.55L547.46 887.66Z" fill="#4C4D56"/>
<path d="M427.48 306.5C421.42 306.25 415.31 306.64 409.25 306.47C407.95 306.43 406.8 305.94 405.48 305.88C403.04 305.77 402.68 307.54 399.71 305.1C397.36 303.17 397.18 299.84 396.98 296.93C395.03 269.21 398.51 239.24 396.98 211.28C397.38 206.07 396.4 199.6 402.3 196.97C501.25 197.35 600.39 195.82 699.26 197.42C715.75 197.69 740.2 195.97 755.72 199.83C766.96 202.63 763.5 209.17 763.86 218.41C764.75 241.86 766.2 271.59 764.45 294.74C763.58 306.28 759.05 303.13 749.96 303.69C735.17 304.61 721.17 305.01 706.35 305.33C627.26 307.02 547.89 305.72 468.71 306.46C459.85 313.52 452.21 322.54 443.03 329.29C439.82 330.88 436.31 329.36 434.52 326.46C431.44 321.45 429.39 312.21 427.49 306.5H427.48Z" fill="#4C4D56"/>
<path d="M477.57 0.18L746.19 0C751.72 1.87 764.01 -2.54 764.98 5.74C765.58 44.42 765.53 83 764.72 121.64C763.83 123.3 762.23 125.09 760.3 125.4L718.09 125.71L696.19 163.23C691.98 168.67 688.11 167.96 683.76 163.31C678.52 157.7 672.08 148.86 667.49 142.51C663.5 136.98 659.9 131.2 656.13 125.52C606.92 124.86 557.67 126.1 508.46 125.46C506.9 125.44 505.57 124.89 504.15 124.87C493.51 124.71 482.84 125.24 472.21 124.65C469.53 123.29 468.68 121.55 468.4 118.64C467.36 107.57 468.26 92.45 468.4 80.98C468.62 62.88 471.18 40.27 469.54 22.64C469.15 18.46 467.66 16.13 467.86 11.19C468.18 3.26 469.49 1.1 477.57 0.19V0.18ZM753.52 113.98V12.29L480.95 12.01C480.74 29 481.22 46.02 480.98 63.01C480.81 74.53 480.3 86.37 479.87 97.89C479.67 103.25 479.32 108.7 479.56 114C480.15 114.85 490.83 114.58 492.7 114.53C548.32 113.2 604.2 114.23 659.9 114.09C661.73 114.46 662.83 115.13 664.11 116.42C670.07 122.45 676.39 134.63 681.66 141.94C684.07 145.28 686.6 148.6 689.46 151.57L708.36 117.59C710.17 115.15 711.94 113.54 715.15 113.47C716.22 113.44 717.22 113.98 718.34 113.98L753.52 113.95V113.98Z" fill="#4C4D56"/>
<path d="M192.47 188.29C195.14 188.11 214.82 188.2 214.92 191.13C212.02 193.05 207.96 192.12 204.85 192.5C156.82 198.36 132.48 229.47 113.98 271.18C102.82 296.34 87.9495 347.86 89.5195 374.89C90.4595 391 99.1395 407.18 96.4795 423.24C94.3695 435.96 85.4795 447.72 80.3595 459.45C72.6495 477.1 65.2195 508.48 79.7195 524.27C82.4195 527.21 88.8595 530.05 85.9595 534.85C81.3895 542.39 70.6495 531.32 67.8495 526.88C55.1095 506.7 61.5395 476.21 70.5495 455.64C75.3895 444.59 85.9295 430.2 86.7495 418.42C87.3895 409.27 82.7895 397.93 81.0795 388.79C77.5895 370.19 79.5395 355.73 83.2695 337.51C94.8195 281.14 124.07 192.92 192.46 188.29H192.47Z" fill="#4C4D56"/>
<path d="M266.08 182.28C293.4 181.45 320.24 207.26 327.5 232.3C335.56 260.06 327.48 281.42 321.71 307.74C316.7 330.61 325.51 343.82 341.94 358.52C345.83 362 358.92 370.63 359.81 375C361.17 381.62 355.27 382.38 350.5 379.4C328.8 365.87 305.76 340.7 309.3 313.32C312.16 291.26 321.09 275.64 319.59 251.11C317.48 216.68 288.29 187.78 252.88 192.01C250.57 192.29 241.5 195.79 244.68 190.89C248.3 185.31 259.79 182.47 266.08 182.28Z" fill="#4C4D56"/>
<path d="M322.71 373.03C332.56 375.94 338.58 391.54 339.25 401.01C340.4 417.12 333.39 423.1 329 436.61C324.48 450.53 329.57 458.36 330.5 471.38C331.24 481.77 329.54 499.03 327.65 509.41C326.84 513.84 322.59 516.11 319.3 512.56C314.75 507.65 319.19 490.53 319.59 483.9C320.6 467.36 313.49 453.04 317.68 436.74C321.87 420.44 332.38 413.99 327.61 394.11C326.73 390.42 320.43 376.22 321.48 374.06C321.67 373.66 322.27 373.14 322.7 373.03H322.71Z" fill="#4C4D56"/>
<path d="M188.08 142.46C209.82 138.8 235 158.98 232.32 181.8C232.11 183.61 229.63 191.74 227.18 188.14C226.83 187.63 225.51 181.44 225 179.97C220.85 168.16 213.98 158.23 201.43 154.48C195.56 152.72 192.77 153.95 187.55 153.65C180.56 153.24 180.39 143.76 188.09 142.47L188.08 142.46Z" fill="#4C4D56"/>
<path d="M221.47 231.2C222.61 241.94 217.8 253.75 212.84 263.19C209.67 269.24 197.72 287.39 192.54 290.87C188.11 293.84 183.71 291.13 184.43 286.04C184.86 282.96 198.61 266.76 201.53 262.23C204.45 257.7 217.03 232.61 219.29 231.47C219.99 231.12 220.72 231.16 221.47 231.2Z" fill="#4C4D56"/>
<path d="M253.94 241.02C256.69 240.23 261.09 247.71 261.92 249.91C265.95 260.57 262.56 279.72 257.46 289.82C254.2 296.28 246.71 294.81 246.64 288.73C246.6 285.57 250.76 276.14 251.74 272.09C253.65 264.18 253.92 257.03 253.67 248.89C253.62 247.37 252.05 241.56 253.95 241.01L253.94 241.02Z" fill="#4C4D56"/>
<path d="M231.77 248.17C233.96 253.27 232.25 258.93 230.46 263.9C228.86 268.35 219.72 285.71 216.22 287.81C214.65 288.75 213.24 289.15 211.53 288.32C205.6 285.44 210.86 278.02 213.07 274.31C218.34 265.48 224.37 256.98 229.76 248.22L231.76 248.17H231.77Z" fill="#4C4D56"/>
<path d="M191.11 362.76C193.8 359.42 200.09 364.8 203.75 365.88C207.41 366.96 215.5 366.35 216.45 370.62C217.9 377.07 210.23 378.48 205.44 377.81C200.65 377.14 186.37 368.63 191.11 362.75V362.76Z" fill="#4C4D56"/>
<path d="M226.77 319.07C230.35 317.99 232.54 324.61 234.34 327.11C236.28 329.81 238.95 330.56 239.43 334.57C240.66 344.86 225.75 348.31 225.3 341.02C225.13 338.32 228.59 336.21 228.59 335.06C227.15 332.69 225.2 330.24 224.8 327.38C224.52 325.35 224.26 319.82 226.77 319.07Z" fill="#4C4D56"/>
<path d="M193 308.74C199.21 307.83 197.75 312 198.69 315.33C199.46 318.02 205.21 319.01 200.76 324.71C190.96 337.25 180.22 310.63 193 308.75V308.74Z" fill="#4C4D56"/>
<path d="M258.42 302.72C263.94 302 261.64 307.58 262.45 309.9C262.7 310.63 263.9 310.93 264.47 311.7C268.05 316.51 262.74 321.91 257.15 320.11C249.18 317.54 251.91 303.58 258.42 302.73V302.72Z" fill="#4C4D56"/>
<path d="M504.26 551.89C506.86 551.37 506.17 553.11 507.37 554.55C511.31 559.22 517.48 564.68 520.75 569.52C522.95 572.76 522.89 574.63 521.2 578.14C518.74 583.26 509.74 598.2 506.27 602.47C504.28 604.91 501.28 606.18 498.42 604.39C496.06 602.91 488.15 589.82 486.67 586.71C484.23 581.59 485.5 580.49 487.76 575.79C490.3 570.48 495.71 559.95 499.03 555.44C499.89 554.27 502.88 552.19 504.26 551.91V551.89ZM500.59 588.87C501.42 589.07 501.46 588.75 501.91 588.3C502.72 587.5 509.82 575.7 509.86 574.93C509.96 573.09 505.01 568.62 503.58 567.08L496.76 581.57L500.59 588.88V588.87Z" fill="#4C4D56"/>
</g>
<defs>
<clipPath id="clip0_420_2128">
<rect width="765.39" height="942.87" fill="white"/>
</clipPath>
</defs>
</svg>
