<svg width="25" height="34" viewBox="0 0 25 34" fill="none" xmlns="http://www.w3.org/2000/svg">
<path d="M2.19214 31.269L0 6.68164H24.0878L21.8933 31.2652L12.0292 33.9998L2.19214 31.269Z" fill="#76767C"/>
<path d="M20.0137 29.7001L21.889 8.69238H12.043V31.9099L20.0137 29.7001Z" fill="#8D8D8D"/>
<path d="M5.02539 17.8115L5.29566 20.827H12.0439V17.8115H5.02539Z" fill="#EBEBEB"/>
<path d="M4.75655 14.7236H12.044V11.708H12.0335H4.48242L4.75655 14.7236Z" fill="#EBEBEB"/>
<path d="M12.0293 28.7846L12.0432 28.7807V25.6433L12.0299 25.6468L8.67151 24.74L8.45682 22.335H6.82488H5.42969L5.85216 27.0698L12.0293 28.7846Z" fill="#EBEBEB"/>
<path d="M5.66797 0H9.32031V1.52734H7.19531V3.05469H9.32031V4.58203H5.66797V0Z" fill="#31323A"/>
<path d="M10.0508 0H13.7031V1.32812H11.5781V1.59375H13.7031V4.64844H10.0508V3.25391H12.1758V2.98828H10.0508V0Z" fill="#31323A"/>
<path d="M14.4336 0H18.0859V1.32812H15.9609V1.59375H18.0859V4.64844H14.4336V3.25391H16.5586V2.98828H14.4336V0Z" fill="#31323A"/>
<path d="M19.5852 11.708H12.0312V14.7236H16.2805L16.0061 17.8115H12.0312V20.827H15.7446L15.3945 24.738L12.0312 25.6458V28.783L18.2133 27.0697L18.2586 26.5602L18.9672 18.6213L19.0408 17.8115L19.5852 11.708Z" fill="white"/>
</svg>
