<svg width="40" height="41" viewBox="0 0 40 41" fill="none" xmlns="http://www.w3.org/2000/svg">
<rect y="0.185547" width="40" height="40" rx="20" fill="#DFFFAD"/>
<mask id="mask0_192_2006" style="mask-type:alpha" maskUnits="userSpaceOnUse" x="8" y="8" width="24" height="25">
<rect x="8" y="8.18555" width="24" height="24" fill="#D9D9D9"/>
</mask>
<g mask="url(#mask0_192_2006)">
<path d="M16.8 19.1351L18.95 16.9601L17.55 15.5351L17.15 15.9351C16.9667 16.1185 16.7375 16.2143 16.4625 16.2226C16.1875 16.231 15.95 16.1351 15.75 15.9351C15.55 15.7351 15.45 15.4976 15.45 15.2226C15.45 14.9476 15.55 14.7101 15.75 14.5101L16.125 14.1351L15 13.0101L12.825 15.1851L16.8 19.1351ZM25 27.3601L27.175 25.1851L26.05 24.0601L25.65 24.4351C25.45 24.6351 25.2167 24.7351 24.95 24.7351C24.6833 24.7351 24.45 24.6351 24.25 24.4351C24.05 24.2351 23.95 24.0018 23.95 23.7351C23.95 23.4685 24.05 23.2351 24.25 23.0351L24.625 22.6351L23.2 21.2351L21.05 23.3851L25 27.3601ZM12 29.1851C11.7167 29.1851 11.4792 29.0893 11.2875 28.8976C11.0958 28.706 11 28.4685 11 28.1851V25.3601C11 25.2268 11.025 25.0976 11.075 24.9726C11.125 24.8476 11.2 24.7351 11.3 24.6351L15.375 20.5601L11.05 16.2351C10.7667 15.9518 10.625 15.6018 10.625 15.1851C10.625 14.7685 10.7667 14.4185 11.05 14.1351L13.95 11.2351C14.2333 10.9518 14.5833 10.8143 15 10.8226C15.4167 10.831 15.7667 10.9768 16.05 11.2601L20.4 15.5851L24.175 11.7851C24.375 11.5851 24.6 11.4351 24.85 11.3351C25.1 11.2351 25.3583 11.1851 25.625 11.1851C25.8917 11.1851 26.15 11.2351 26.4 11.3351C26.65 11.4351 26.875 11.5851 27.075 11.7851L28.4 13.1351C28.6 13.3351 28.75 13.5601 28.85 13.8101C28.95 14.0601 29 14.3185 29 14.5851C29 14.8518 28.95 15.106 28.85 15.3476C28.75 15.5893 28.6 15.8101 28.4 16.0101L24.625 19.8101L28.95 24.1351C29.2333 24.4185 29.375 24.7685 29.375 25.1851C29.375 25.6018 29.2333 25.9518 28.95 26.2351L26.05 29.1351C25.7667 29.4185 25.4167 29.5601 25 29.5601C24.5833 29.5601 24.2333 29.4185 23.95 29.1351L19.625 24.8101L15.55 28.8851C15.45 28.9851 15.3375 29.0601 15.2125 29.1101C15.0875 29.1601 14.9583 29.1851 14.825 29.1851H12ZM13 27.1851H14.4L24.2 17.4101L22.775 15.9851L13 25.7851V27.1851Z" fill="#4C4D54"/>
</g>
</svg>
