<svg width="40" height="40" viewBox="0 0 40 40" fill="none" xmlns="http://www.w3.org/2000/svg">
<rect width="40" height="40" rx="20" fill="#DFFFAD"/>
<mask id="mask0_192_1993" style="mask-type:alpha" maskUnits="userSpaceOnUse" x="8" y="8" width="24" height="24">
<rect x="8" y="8" width="24" height="24" fill="#D9D9D9"/>
</mask>
<g mask="url(#mask0_192_1993)">
<path d="M16.175 22.975L19.025 15.475C19.075 15.325 19.1667 15.2083 19.3 15.125C19.4333 15.0417 19.575 15 19.725 15H20.275C20.425 15 20.5667 15.0417 20.7 15.125C20.8333 15.2083 20.925 15.325 20.975 15.475L23.825 23.05C23.9083 23.2833 23.8833 23.5 23.75 23.7C23.6167 23.9 23.425 24 23.175 24C23.025 24 22.8833 23.9542 22.75 23.8625C22.6167 23.7708 22.525 23.65 22.475 23.5L21.85 21.7H18.2L17.575 23.525C17.525 23.675 17.4333 23.7917 17.3 23.875C17.1667 23.9583 17.025 24 16.875 24C16.6083 24 16.4042 23.8917 16.2625 23.675C16.1208 23.4583 16.0917 23.225 16.175 22.975ZM18.65 20.4H21.35L20.05 16.65H19.95L18.65 20.4ZM9 30V26C9 25.7167 9.09583 25.4792 9.2875 25.2875C9.47917 25.0958 9.71667 25 10 25H11V15H10C9.71667 15 9.47917 14.9042 9.2875 14.7125C9.09583 14.5208 9 14.2833 9 14V10C9 9.71667 9.09583 9.47917 9.2875 9.2875C9.47917 9.09583 9.71667 9 10 9H14C14.2833 9 14.5208 9.09583 14.7125 9.2875C14.9042 9.47917 15 9.71667 15 10V11H25V10C25 9.71667 25.0958 9.47917 25.2875 9.2875C25.4792 9.09583 25.7167 9 26 9H30C30.2833 9 30.5208 9.09583 30.7125 9.2875C30.9042 9.47917 31 9.71667 31 10V14C31 14.2833 30.9042 14.5208 30.7125 14.7125C30.5208 14.9042 30.2833 15 30 15H29V25H30C30.2833 25 30.5208 25.0958 30.7125 25.2875C30.9042 25.4792 31 25.7167 31 26V30C31 30.2833 30.9042 30.5208 30.7125 30.7125C30.5208 30.9042 30.2833 31 30 31H26C25.7167 31 25.4792 30.9042 25.2875 30.7125C25.0958 30.5208 25 30.2833 25 30V29H15V30C15 30.2833 14.9042 30.5208 14.7125 30.7125C14.5208 30.9042 14.2833 31 14 31H10C9.71667 31 9.47917 30.9042 9.2875 30.7125C9.09583 30.5208 9 30.2833 9 30ZM15 27H25V26C25 25.7167 25.0958 25.4792 25.2875 25.2875C25.4792 25.0958 25.7167 25 26 25H27V15H26C25.7167 15 25.4792 14.9042 25.2875 14.7125C25.0958 14.5208 25 14.2833 25 14V13H15V14C15 14.2833 14.9042 14.5208 14.7125 14.7125C14.5208 14.9042 14.2833 15 14 15H13V25H14C14.2833 25 14.5208 25.0958 14.7125 25.2875C14.9042 25.4792 15 25.7167 15 26V27ZM11 13H13V11H11V13ZM27 13H29V11H27V13ZM27 29H29V27H27V29ZM11 29H13V27H11V29Z" fill="#4C4D54"/>
</g>
</svg>
