<svg width="21" height="21" viewBox="0 0 21 21" fill="none" xmlns="http://www.w3.org/2000/svg">
<mask id="mask0_286_2446" style="mask-type:alpha" maskUnits="userSpaceOnUse" x="0" y="0" width="21" height="21">
<rect x="0.5" y="0.625" width="20" height="20" fill="#D9D9D9"/>
</mask>
<g mask="url(#mask0_286_2446)">
<path d="M10.5003 18.9587C9.34755 18.9587 8.26421 18.7399 7.25033 18.3024C6.23644 17.8649 5.35449 17.2712 4.60449 16.5212C3.85449 15.7712 3.26074 14.8892 2.82324 13.8753C2.38574 12.8614 2.16699 11.7781 2.16699 10.6253C2.16699 9.47255 2.38574 8.38921 2.82324 7.37533C3.26074 6.36144 3.85449 5.47949 4.60449 4.72949C5.35449 3.97949 6.23644 3.38574 7.25033 2.94824C8.26421 2.51074 9.34755 2.29199 10.5003 2.29199C12.4587 2.29199 14.1774 2.8788 15.6566 4.05241C17.1357 5.22602 18.1045 6.72255 18.5628 8.54199C18.6323 8.76421 18.608 8.97255 18.4899 9.16699C18.3719 9.36144 18.2017 9.49338 17.9795 9.56283C17.7573 9.63227 17.5489 9.60449 17.3545 9.47949C17.16 9.35449 17.0281 9.18088 16.9587 8.95866C16.6948 7.94477 16.2191 7.04199 15.5316 6.25033C14.8441 5.45866 14.0003 4.86144 13.0003 4.45866V4.79199C13.0003 5.25033 12.8371 5.64269 12.5107 5.96908C12.1844 6.29546 11.792 6.45866 11.3337 6.45866H9.66699V8.12533C9.66699 8.36144 9.58713 8.55935 9.42741 8.71908C9.26769 8.8788 9.06977 8.95866 8.83366 8.95866H7.16699V10.6253H12.167C12.3753 10.6253 12.535 10.7191 12.6462 10.9066C12.7573 11.0941 12.7573 11.285 12.6462 11.4795C12.4795 11.7989 12.358 12.1323 12.2816 12.4795C12.2052 12.8267 12.167 13.1809 12.167 13.542C12.167 14.2781 12.3337 14.9691 12.667 15.6149C13.0003 16.2607 13.3684 16.8753 13.7712 17.4587C13.8823 17.6253 13.917 17.8059 13.8753 18.0003C13.8337 18.1948 13.7156 18.3267 13.5212 18.3962C13.0489 18.5906 12.5594 18.733 12.0524 18.8232C11.5455 18.9135 11.0281 18.9587 10.5003 18.9587ZM9.66699 17.2503V15.6253C9.20866 15.6253 8.8163 15.4621 8.48991 15.1357C8.16352 14.8094 8.00033 14.417 8.00033 13.9587V13.1253L4.00033 9.12533C3.95866 9.37533 3.92046 9.62533 3.88574 9.87533C3.85102 10.1253 3.83366 10.3753 3.83366 10.6253C3.83366 12.3059 4.38574 13.7781 5.48991 15.042C6.59408 16.3059 7.98644 17.042 9.66699 17.2503ZM16.7503 18.9587C16.6531 18.9587 16.5698 18.9309 16.5003 18.8753C16.4309 18.8198 16.3823 18.7503 16.3545 18.667C16.2017 18.1809 15.9864 17.7295 15.7087 17.3128C15.4309 16.8962 15.1323 16.4864 14.8128 16.0837C14.5212 15.7225 14.285 15.3267 14.1045 14.8962C13.9239 14.4656 13.8337 14.0142 13.8337 13.542C13.8337 12.7364 14.1184 12.0489 14.6878 11.4795C15.2573 10.91 15.9448 10.6253 16.7503 10.6253C17.5559 10.6253 18.2434 10.91 18.8128 11.4795C19.3823 12.0489 19.667 12.7364 19.667 13.542C19.667 14.0142 19.5732 14.4621 19.3857 14.8857C19.1982 15.3094 18.9656 15.7087 18.6878 16.0837C18.3684 16.4864 18.0698 16.8962 17.792 17.3128C17.5142 17.7295 17.2989 18.1809 17.1462 18.667C17.1184 18.7503 17.0698 18.8198 17.0003 18.8753C16.9309 18.9309 16.8475 18.9587 16.7503 18.9587ZM16.7503 16.6045C16.8892 16.3684 17.042 16.1496 17.2087 15.9482C17.3753 15.7469 17.535 15.542 17.6878 15.3337C17.8823 15.0698 18.0524 14.7885 18.1982 14.4899C18.3441 14.1913 18.417 13.8753 18.417 13.542C18.417 13.0837 18.2538 12.6913 17.9274 12.3649C17.601 12.0385 17.2087 11.8753 16.7503 11.8753C16.292 11.8753 15.8996 12.0385 15.5732 12.3649C15.2469 12.6913 15.0837 13.0837 15.0837 13.542C15.0837 13.8753 15.1566 14.1913 15.3024 14.4899C15.4482 14.7885 15.6184 15.0698 15.8128 15.3337C15.9795 15.542 16.1427 15.7469 16.3024 15.9482C16.4621 16.1496 16.6114 16.3684 16.7503 16.6045ZM16.7503 14.5837C16.4587 14.5837 16.2121 14.483 16.0107 14.2816C15.8094 14.0802 15.7087 13.8337 15.7087 13.542C15.7087 13.2503 15.8094 13.0038 16.0107 12.8024C16.2121 12.601 16.4587 12.5003 16.7503 12.5003C17.042 12.5003 17.2885 12.601 17.4899 12.8024C17.6913 13.0038 17.792 13.2503 17.792 13.542C17.792 13.8337 17.6913 14.0802 17.4899 14.2816C17.2885 14.483 17.042 14.5837 16.7503 14.5837Z" fill="#31323A"/>
</g>
</svg>
