<svg width="28" height="34" viewBox="0 0 28 34" fill="none" xmlns="http://www.w3.org/2000/svg">
<path d="M4.19111 31.2709L2 6.67773H26.0833L23.8922 31.2614L14.0228 34.0003L4.19111 31.2709Z" fill="#76767C"/>
<path d="M14.0391 31.9132L22.0102 29.7032L23.8896 8.68945H14.0391V31.9132Z" fill="#8D8D8D"/>
<path d="M14.0416 17.812H10.0466L9.77267 14.7237H14.0416V11.7109H14.0321H6.47656L6.55212 12.5137L7.28879 20.8248H14.0416V17.812Z" fill="#EBEBEB"/>
<path d="M14.0408 25.6415L14.0314 25.6509L10.6691 24.7348L10.4519 22.3359H8.81802H7.42969L7.84524 27.0676L14.0314 28.7864L14.0408 28.777V25.6415Z" fill="#EBEBEB"/>
<path d="M4.24023 0H5.77023V1.5111H7.16801V0H8.69801V4.58052H7.16801V3.04109H5.77023V4.58052H4.24023V0Z" fill="#31323A"/>
<path d="M10.7197 1.52054H9.36914V0H13.6003V1.52054H12.2497V4.58052H10.7197V1.52054Z" fill="#31323A"/>
<path d="M14.277 0H15.8731L16.8554 1.61499L17.8376 0H19.4337V4.58052H17.9131V2.31387L16.8554 3.94775H16.827L15.7692 2.31387V4.58996H14.2676V0H14.277Z" fill="#31323A"/>
<path d="M20.1973 0H21.7273V3.06942H23.8806V4.58052H20.1973V0Z" fill="#31323A"/>
<path d="M14.0332 17.8125V20.8253H17.7449L17.3954 24.7352L14.0332 25.6419V28.7869L20.2099 27.068L20.2571 26.558L20.9654 18.6247L21.041 17.8125H20.2288H14.0332Z" fill="white"/>
<path d="M14.0332 11.7109V13.5809V14.7142V14.7237H21.3054H21.3149L21.381 14.0437L21.5132 12.5137L21.5888 11.7109H14.0332Z" fill="white"/>
</svg>
