<svg width="34" height="32" viewBox="0 0 34 32" fill="none" xmlns="http://www.w3.org/2000/svg">
<g clip-path="url(#clip0_286_2376)">
<path d="M5.92182 0H27.254C30.495 0 33.0879 2.60741 33.0879 5.86667V26.1333C33.0879 29.3926 30.495 32 27.254 32H5.92182C2.68075 32 0.0878906 29.3926 0.0878906 26.1333V5.86667C0.0878906 2.60741 2.68075 0 5.92182 0Z" fill="#76767C"/>
<path d="M16.0577 18.9632H11.0488L10.047 22.341C10.047 22.4595 9.92916 22.5188 9.8113 22.5188H7.27737C7.15951 22.5188 7.10059 22.4595 7.10059 22.2817L11.4613 9.65953C11.5202 9.54101 11.5202 9.36323 11.5792 9.18545C11.6381 8.94842 11.697 8.71138 11.6381 8.41508C11.6381 8.35582 11.697 8.29656 11.7559 8.2373C11.7559 8.2373 11.7559 8.2373 11.8149 8.2373H15.2917C15.4095 8.2373 15.4684 8.29656 15.4684 8.35582L20.4184 22.2225C20.4774 22.341 20.4184 22.4595 20.3006 22.4595H17.472C17.3542 22.4595 17.2952 22.4003 17.2363 22.2817L16.0577 18.9632ZM11.8149 16.5929H15.5274C15.4684 16.2966 15.1149 15.6447 14.997 15.2892C14.8792 14.9336 14.7024 14.6373 14.5845 14.2225C14.4667 13.8077 14.3488 13.3929 14.172 12.978C14.0542 12.5632 13.9363 12.1484 13.8184 11.7929C13.7006 11.378 13.5827 11.0225 13.5238 10.7262C13.4059 11.3188 13.2292 11.9114 13.0524 12.504C12.8756 13.1558 12.6399 13.8077 12.4042 14.5188C12.2274 15.1114 11.9917 16.0003 11.8149 16.5929Z" fill="white"/>
<path d="M23.3063 10.4888C22.8348 10.4888 22.4223 10.311 22.1277 10.0147C21.833 9.65917 21.6562 9.24435 21.6562 8.77028C21.6562 8.2962 21.833 7.88139 22.1277 7.52583C22.4813 7.22954 22.8938 7.05176 23.3652 7.05176C23.8366 7.05176 24.2491 7.17028 24.6027 7.52583C24.8973 7.88139 25.0741 8.2962 25.0741 8.77028C25.0741 9.24435 24.8973 9.65917 24.6027 10.0147C24.2491 10.311 23.7777 10.4888 23.3063 10.4888ZM21.892 22.2221V12.1481C21.892 12.0295 21.9509 11.9703 22.0688 11.9703H24.5438C24.6616 11.9703 24.7205 12.0295 24.7205 12.1481V22.1629C24.7205 22.2814 24.6616 22.3999 24.5438 22.3999H22.0688C21.9509 22.3999 21.892 22.3406 21.892 22.2221Z" fill="white"/>
</g>
<defs>
<clipPath id="clip0_286_2376">
<rect width="33" height="32" fill="white" transform="translate(0.0878906)"/>
</clipPath>
</defs>
</svg>
