<svg width="38" height="38" viewBox="0 0 38 38" fill="none" xmlns="http://www.w3.org/2000/svg">
<g clip-path="url(#clip0_529_1991)">
<rect width="38" height="38" fill="#8D8D8D"/>
<path d="M0 0H38V38H0V0Z" fill="#8D8D8D"/>
<path d="M9.99136 31.7553L12.8993 29.9954C13.4603 30.9901 13.9707 31.8317 15.1948 31.8317C16.3682 31.8317 17.1082 31.3728 17.1082 29.5873V17.4455H20.6792V29.6378C20.6792 33.3364 18.5111 35.02 15.3479 35.02C12.4912 35.02 10.833 33.5405 9.99121 31.755M22.6188 31.3726L25.5264 29.6892C26.2919 30.9392 27.2867 31.8574 29.0466 31.8574C30.5264 31.8574 31.4698 31.1176 31.4698 30.0972C31.4698 28.8729 30.5005 28.4392 28.868 27.7252L27.9755 27.3422C25.399 26.2457 23.6901 24.8682 23.6901 21.9603C23.6901 19.2819 25.7306 17.2412 28.9192 17.2412C31.1894 17.2412 32.8219 18.0321 33.9952 20.0982L31.2147 21.8839C30.6024 20.7871 29.9394 20.3535 28.9191 20.3535C27.8732 20.3535 27.21 21.0167 27.21 21.8839C27.21 22.9552 27.8732 23.389 29.4036 24.0523L30.2963 24.4348C33.3318 25.7358 35.0408 27.0621 35.0408 30.0463C35.0408 33.2606 32.5156 35.0205 29.123 35.0205C25.8071 35.0205 23.6644 33.439 22.6186 31.3728" fill="white"/>
</g>
<defs>
<clipPath id="clip0_529_1991">
<rect width="38" height="38" fill="white"/>
</clipPath>
</defs>
</svg>
