<svg width="32" height="32" viewBox="0 0 32 32" fill="none" xmlns="http://www.w3.org/2000/svg">
<path d="M30.6635 0H15.2539C15.2539 1.84488 15.9868 3.61419 17.2913 4.91872C18.5958 6.22325 20.3651 6.95612 22.21 6.95612H25.0486V9.69686C25.0512 13.5351 28.162 16.6461 32.0003 16.6486V1.33678C32.0003 0.598706 31.4019 0 30.6635 0Z" fill="#76767C"/>
<path d="M23.0384 7.67773H7.62891C7.63129 11.516 10.7421 14.627 14.5805 14.6295H17.4191V17.379C17.424 21.2172 20.537 24.3261 24.3753 24.3261V9.01477C24.3753 8.27644 23.7767 7.67773 23.0384 7.67773Z" fill="#76767C"/>
<path d="M15.4096 15.3516H0C0 19.1933 3.11448 22.3077 6.95612 22.3077H9.80364V25.0483C9.80615 28.883 12.9116 31.9926 16.7465 31.9999V16.6885C16.7465 15.9501 16.1479 15.3516 15.4096 15.3516Z" fill="#76767C"/>
</svg>
