<svg width="36" height="36" viewBox="0 0 36 36" fill="none" xmlns="http://www.w3.org/2000/svg">
<mask id="mask0_382_2451" style="mask-type:alpha" maskUnits="userSpaceOnUse" x="0" y="0" width="36" height="36">
<rect width="36" height="36" fill="#D9D9D9"/>
</mask>
<g mask="url(#mask0_382_2451)">
<path d="M18.0002 22.4617C17.8002 22.4617 17.6127 22.4305 17.4377 22.368C17.2627 22.3055 17.1002 22.1992 16.9502 22.0492L10.0502 15.1492C9.7752 14.8742 9.6377 14.5242 9.6377 14.0992C9.6377 13.6742 9.7752 13.3242 10.0502 13.0492C10.3252 12.7742 10.6752 12.6367 11.1002 12.6367C11.5252 12.6367 11.8752 12.7742 12.1502 13.0492L18.0002 18.8992L23.8502 13.0492C24.1252 12.7742 24.4752 12.6367 24.9002 12.6367C25.3252 12.6367 25.6752 12.7742 25.9502 13.0492C26.2252 13.3242 26.3627 13.6742 26.3627 14.0992C26.3627 14.5242 26.2252 14.8742 25.9502 15.1492L19.0502 22.0492C18.9002 22.1992 18.7377 22.3055 18.5627 22.368C18.3877 22.4305 18.2002 22.4617 18.0002 22.4617Z" fill="#76767C"/>
</g>
</svg>
