<svg width="216" height="144" viewBox="0 0 216 144" fill="none" xmlns="http://www.w3.org/2000/svg">
<path d="M49.2834 82.139L31.1162 101.079V135.288H0V97.9869L31.1162 63.1987L91.0293 0H125.818L69.7698 60.2997L125.769 135.288H92.5754L49.2834 82.139Z" fill="url(#paint0_linear_373_2108)"/>
<path d="M130.767 135.288L129.956 109.31C129.956 109.31 134.75 110.163 142.738 110.163C151.629 110.163 158.2 108.874 162.452 106.297C166.704 103.592 168.83 100.048 168.83 95.6677C168.83 92.4466 167.541 89.8052 164.964 87.7437C162.516 85.5533 159.295 83.8139 155.301 82.5255C151.436 81.237 146.153 79.8197 139.453 78.2736C129.145 75.8255 120.706 73.3775 114.135 70.9294C108.297 67.1503 104.965 52.844 104.965 43.8248L175.981 60.2996C182.552 62.7477 188.156 66.6131 192.795 71.8957C197.562 77.1784 199.946 84.3293 199.946 93.3485C199.946 101.079 197.755 108.166 193.375 114.608C189.123 120.921 182.681 125.946 174.048 129.683C165.415 133.419 143.136 135.288 130.767 135.288Z" fill="url(#paint1_linear_373_2108)"/>
<path d="M33.3221 29.4416V1.01367H16.661H0V22.673V44.3324H16.264L33.3221 29.4416Z" fill="#DFFFAD"/>
<defs>
<linearGradient id="paint0_linear_373_2108" x1="5.67848e-07" y1="136.621" x2="221.592" y2="-84.9713" gradientUnits="userSpaceOnUse">
<stop stop-color="#31323A"/>
<stop offset="1" stop-color="#76767C"/>
</linearGradient>
<linearGradient id="paint1_linear_373_2108" x1="5.67848e-07" y1="136.621" x2="221.592" y2="-84.9713" gradientUnits="userSpaceOnUse">
<stop stop-color="#31323A"/>
<stop offset="1" stop-color="#76767C"/>
</linearGradient>
</defs>
</svg>
