<svg width="32" height="32" viewBox="0 0 32 32" fill="none" xmlns="http://www.w3.org/2000/svg">
<path d="M21.6221 3.74532V27.2874C21.6221 29.9236 23.4394 31.3894 25.3682 31.3894C27.152 31.3894 29.1142 30.141 29.1142 27.2874V3.92367C29.1142 1.51039 27.3304 0 25.3682 0C23.4059 0 21.6221 1.66644 21.6221 3.74532Z" fill="#8D8D8D"/>
<path d="M11.8115 15.6945V27.2872C11.8115 29.9234 13.6288 31.3892 15.5576 31.3892C17.3415 31.3892 19.3037 30.1408 19.3037 27.2872V15.8729C19.3037 13.4596 17.5198 11.9492 15.5576 11.9492C13.5954 11.9492 11.8115 13.6157 11.8115 15.6945Z" fill="#76767C"/>
<path d="M9.49217 27.6438C9.49217 29.7115 7.81424 31.3891 5.74609 31.3891C3.67793 31.3891 2 29.7115 2 27.6438C2 25.576 3.67793 23.8984 5.74609 23.8984C7.81424 23.8984 9.49217 25.576 9.49217 27.6438Z" fill="#76767C"/>
</svg>
