<svg width="32" height="32" viewBox="0 0 32 32" fill="none" xmlns="http://www.w3.org/2000/svg">
<g clip-path="url(#clip0_286_2412)">
<path d="M1.92544 1.38054L19.632 0.0727017C21.807 -0.113858 22.3658 0.0119016 23.7334 1.00614L29.3856 4.9879C30.3178 5.6727 30.6282 5.85926 30.6282 6.60486V28.4426C30.6282 29.8113 30.1312 30.6209 28.3914 30.7444L7.82944 31.9898C6.52384 32.0516 5.90208 31.865 5.21824 30.9937L1.056 25.5812C0.30944 24.585 0 23.8394 0 22.9677V3.55654C0 2.4375 0.49696 1.50438 1.92544 1.38054Z" fill="white"/>
<path fill-rule="evenodd" clip-rule="evenodd" d="M19.632 0.0730217L1.92544 1.38086C0.49696 1.50438 0 2.43782 0 3.55654V22.9677C0 23.8391 0.30944 24.5847 1.056 25.5812L5.21824 30.9933C5.90208 31.8647 6.52384 32.0516 7.82944 31.9895L28.3917 30.7447C30.1302 30.6209 30.6285 29.8113 30.6285 28.4429V6.60518C30.6285 5.89798 30.3491 5.69414 29.5267 5.09062L23.7334 1.00614C22.3661 0.0119016 21.807 -0.113858 19.632 0.0727017V0.0730217ZM8.2944 6.24774C6.61536 6.3607 6.23456 6.3863 5.28096 5.61094L2.85664 3.68262C2.61024 3.43302 2.73408 3.12166 3.35488 3.05958L20.3766 1.81574C21.8061 1.69094 22.5504 2.18918 23.1094 2.62438L26.0288 4.73958C26.1536 4.80262 26.464 5.17478 26.0906 5.17478L8.512 6.23302L8.2944 6.24774ZM6.33696 28.2564V9.71782C6.33696 8.90822 6.5856 8.53478 7.32992 8.47206L27.52 7.28998C28.2048 7.22822 28.5142 7.66342 28.5142 8.47174V26.8868C28.5142 27.6964 28.3894 28.3812 27.2717 28.4429L7.95104 29.5629C6.83328 29.6247 6.33728 29.2525 6.33728 28.2564H6.33696ZM25.409 10.7117C25.5328 11.2717 25.409 11.8317 24.849 11.8957L23.9178 12.0804V25.7677C23.1091 26.2029 22.3648 26.4516 21.7427 26.4516C20.7485 26.4516 20.5002 26.1402 19.7555 25.2077L13.6659 15.6269V24.8964L15.5923 25.3325C15.5923 25.3325 15.5923 26.4525 14.0381 26.4525L9.75328 26.7012C9.62848 26.4516 9.75328 25.8298 10.1875 25.706L11.3066 25.3956V13.1396L9.7536 13.0138C9.6288 12.4538 9.9392 11.6452 10.8096 11.5825L15.407 11.273L21.743 20.9777V12.3921L20.128 12.2065C20.0032 11.5207 20.5002 11.0225 21.121 10.9617L25.409 10.7117Z" fill="#76767C"/>
</g>
<defs>
<clipPath id="clip0_286_2412">
<rect width="32" height="32" fill="white"/>
</clipPath>
</defs>
</svg>
