<svg width="33" height="32" viewBox="0 0 33 32" fill="none" xmlns="http://www.w3.org/2000/svg">
<g clip-path="url(#clip0_286_2386)">
<path d="M5.83393 0H27.1661C30.4071 0 33 2.60741 33 5.86667V26.1333C33 29.3926 30.4071 32 27.1661 32H5.83393C2.59286 32 0 29.3926 0 26.1333V5.86667C0 2.60741 2.59286 0 5.83393 0Z" fill="#76767C"/>
<path d="M6.83594 22.3407V8.35551C6.83594 8.23699 6.89487 8.17773 6.95379 8.17773C7.18951 8.17773 7.48415 8.17773 7.77879 8.17773C8.07344 8.17773 8.42701 8.17773 8.83951 8.17773C9.19308 8.17773 9.60558 8.17773 10.0181 8.17773C10.4306 8.17773 10.8431 8.17773 11.2556 8.17773C12.1984 8.17773 13.1413 8.29625 14.0252 8.59255C14.7324 8.82959 15.3217 9.18514 15.852 9.71847C16.2645 10.1333 16.6181 10.6666 16.8538 11.2592C17.0306 11.8518 17.1484 12.4444 17.1484 13.037C17.2074 14.0444 16.9127 15.0518 16.3234 15.9407C15.7931 16.7111 15.027 17.3037 14.1431 17.6C13.1413 17.9555 12.1395 18.1333 11.0788 18.1333C10.7842 18.1333 10.5484 18.1333 10.4306 18.1333C10.3127 18.1333 10.077 18.1333 9.8413 18.1333V22.4592C9.8413 22.5777 9.78237 22.637 9.66451 22.637H9.60558H6.95379C6.89487 22.5185 6.83594 22.4592 6.83594 22.3407ZM9.8413 10.7851V15.3481C10.0181 15.3481 10.1949 15.3481 10.3717 15.3481H11.0788C11.6092 15.3481 12.1395 15.2888 12.6109 15.1111C13.0234 14.9925 13.4359 14.7555 13.7306 14.4C14.0252 13.9851 14.202 13.5111 14.1431 12.9777C14.1431 12.5629 14.0252 12.1481 13.8484 11.7925C13.6127 11.437 13.2592 11.1407 12.9056 11.0222C12.3752 10.8444 11.8449 10.7259 11.3145 10.7259C10.9609 10.7259 10.6663 10.7259 10.3717 10.7259C10.1359 10.7851 9.95915 10.7851 9.8413 10.7851Z" fill="white"/>
<path d="M25.6337 14.459C25.1033 14.222 24.573 14.1035 24.0426 13.985C23.5712 13.8664 23.0408 13.8072 22.5105 13.8072C22.2158 13.8072 21.9801 13.8072 21.6855 13.9257C21.5087 13.985 21.3908 14.0442 21.273 14.222C21.214 14.3405 21.1551 14.459 21.1551 14.5775C21.1551 14.6961 21.214 14.8146 21.273 14.9331C21.3908 15.1109 21.5676 15.2294 21.7444 15.2887C22.039 15.4664 22.3926 15.585 22.6872 15.7627C23.3944 15.9998 24.1015 16.3553 24.7497 16.7701C25.2212 17.0664 25.5747 17.422 25.8105 17.8961C26.0462 18.3109 26.164 18.785 26.1051 19.3183C26.1051 19.9701 25.9283 20.5627 25.5747 21.1553C25.2212 21.6887 24.6908 22.1035 24.0426 22.3998C23.2765 22.6961 22.4515 22.8738 21.5676 22.8146C20.9783 22.8146 20.3301 22.7553 19.7408 22.6368C19.2105 22.5183 18.739 22.3998 18.2676 22.222C18.1497 22.1627 18.0908 22.0442 18.0908 21.985V19.6146C18.0908 19.5553 18.0908 19.4961 18.1497 19.4961C18.2087 19.4961 18.2087 19.4961 18.2676 19.4961C18.798 19.7924 19.3872 20.0294 20.0355 20.1479C20.5658 20.2664 21.0962 20.3257 21.6265 20.385C22.039 20.385 22.3926 20.3257 22.7462 20.2072C22.9819 20.0887 23.0997 19.9109 23.0997 19.6146C23.0997 19.3775 22.9819 19.1998 22.7462 19.0812C22.3337 18.785 21.8622 18.6072 21.3908 18.4294C20.6837 18.1924 20.0355 17.8368 19.4462 17.422C19.0337 17.1257 18.6801 16.7109 18.4444 16.2961C18.2087 15.8812 18.1497 15.4072 18.1497 14.9331C18.1497 14.3405 18.3265 13.8072 18.6212 13.2738C18.9747 12.7405 19.4462 12.2664 20.0355 12.0294C20.6837 11.6738 21.4497 11.4961 22.2158 11.4961C22.8051 11.4368 23.4533 11.4961 24.0426 11.4961C24.514 11.6146 25.0444 11.7331 25.4569 11.9701C25.5158 11.9701 25.5747 12.0294 25.5747 12.0887C25.5747 12.1479 25.5747 12.2072 25.5747 12.2664V14.459C25.5747 14.5183 25.5747 14.5775 25.5158 14.5775C25.7515 14.5183 25.6926 14.5183 25.6337 14.459Z" fill="white"/>
</g>
<defs>
<clipPath id="clip0_286_2386">
<rect width="33" height="32" fill="white"/>
</clipPath>
</defs>
</svg>
