<svg width="236" height="87" viewBox="0 0 236 87" fill="none" xmlns="http://www.w3.org/2000/svg">
<path d="M38.4922 3.73438C42.8359 3.73438 46.0859 4.67969 48.2422 6.57031C50.4141 8.46094 51.5 11.1484 51.5 14.6328C51.5 16.1953 51.2734 17.6953 50.8203 19.1328C50.3828 20.5703 49.6562 21.8516 48.6406 22.9766C47.6406 24.1016 46.3047 24.9922 44.6328 25.6484C42.9766 26.3047 40.9297 26.6328 38.4922 26.6328H35.8906V38H26.6328V3.73438H38.4922ZM38.2812 11.2109H35.8906V19.0859H37.7188C38.5156 19.0859 39.2578 18.9531 39.9453 18.6875C40.6328 18.4062 41.1797 17.9609 41.5859 17.3516C42.0078 16.7266 42.2188 15.8984 42.2188 14.8672C42.2188 13.7891 41.8984 12.9141 41.2578 12.2422C40.6172 11.5547 39.625 11.2109 38.2812 11.2109ZM72.4531 10.9766C72.9531 10.9766 73.4766 11.0156 74.0234 11.0938C74.5703 11.1562 74.9766 11.2109 75.2422 11.2578L74.4219 19.9062C74.125 19.8281 73.7422 19.7656 73.2734 19.7188C72.8047 19.6562 72.1484 19.625 71.3047 19.625C70.7266 19.625 70.1094 19.6797 69.4531 19.7891C68.7969 19.8984 68.1719 20.1328 67.5781 20.4922C67 20.8359 66.5234 21.3672 66.1484 22.0859C65.7734 22.7891 65.5859 23.7422 65.5859 24.9453V38H56.4219V11.4453H63.2422L64.6719 15.6875H65.1172C65.6016 14.8125 66.2188 14.0234 66.9688 13.3203C67.7344 12.6016 68.5859 12.0312 69.5234 11.6094C70.4766 11.1875 71.4531 10.9766 72.4531 10.9766ZM104.328 24.6641C104.328 26.8828 104.023 28.8516 103.414 30.5703C102.805 32.2891 101.922 33.7344 100.766 34.9062C99.6094 36.0781 98.2109 36.9688 96.5703 37.5781C94.9297 38.1719 93.0781 38.4688 91.0156 38.4688C89.0938 38.4688 87.3281 38.1719 85.7188 37.5781C84.125 36.9688 82.7344 36.0781 81.5469 34.9062C80.3594 33.7344 79.4375 32.2891 78.7812 30.5703C78.1406 28.8516 77.8203 26.8828 77.8203 24.6641C77.8203 21.7266 78.3516 19.2422 79.4141 17.2109C80.4922 15.1797 82.0234 13.6328 84.0078 12.5703C86.0078 11.5078 88.3906 10.9766 91.1562 10.9766C93.7031 10.9766 95.9688 11.5078 97.9531 12.5703C99.9375 13.6328 101.492 15.1797 102.617 17.2109C103.758 19.2422 104.328 21.7266 104.328 24.6641ZM87.125 24.6641C87.125 26.1797 87.2578 27.4609 87.5234 28.5078C87.7891 29.5391 88.2109 30.3281 88.7891 30.875C89.3828 31.4062 90.1562 31.6719 91.1094 31.6719C92.0625 31.6719 92.8203 31.4062 93.3828 30.875C93.9453 30.3281 94.3516 29.5391 94.6016 28.5078C94.8672 27.4609 95 26.1797 95 24.6641C95 23.1484 94.8672 21.8828 94.6016 20.8672C94.3516 19.8516 93.9375 19.0859 93.3594 18.5703C92.7969 18.0547 92.0312 17.7969 91.0625 17.7969C89.6719 17.7969 88.6641 18.375 88.0391 19.5312C87.4297 20.6875 87.125 22.3984 87.125 24.6641ZM108.898 49.5312C108.164 49.5312 107.32 49.4688 106.367 49.3438C105.398 49.2344 104.602 49.1016 103.977 48.9453V41.7969C104.477 41.9375 104.938 42.0391 105.359 42.1016C105.781 42.1797 106.258 42.2188 106.789 42.2188C107.539 42.2188 108.188 41.9531 108.734 41.4219C109.297 40.9062 109.578 39.8438 109.578 38.2344V11.4453H118.742V40.1562C118.742 41.75 118.43 43.2578 117.805 44.6797C117.18 46.1172 116.148 47.2812 114.711 48.1719C113.273 49.0781 111.336 49.5312 108.898 49.5312ZM109.344 4.83594C109.344 3.21094 109.812 2.125 110.75 1.57812C111.703 1.03125 112.852 0.757812 114.195 0.757812C115.508 0.757812 116.648 1.03125 117.617 1.57812C118.602 2.125 119.094 3.21094 119.094 4.83594C119.094 6.41406 118.602 7.48438 117.617 8.04688C116.648 8.59375 115.508 8.86719 114.195 8.86719C112.852 8.86719 111.703 8.59375 110.75 8.04688C109.812 7.48438 109.344 6.41406 109.344 4.83594ZM137.094 10.9766C139.672 10.9766 141.898 11.4297 143.773 12.3359C145.648 13.2266 147.094 14.5703 148.109 16.3672C149.125 18.1641 149.633 20.4141 149.633 23.1172V27.1953H133.25C133.328 28.5859 133.844 29.7266 134.797 30.6172C135.766 31.5078 137.188 31.9531 139.062 31.9531C140.719 31.9531 142.234 31.7891 143.609 31.4609C145 31.1328 146.43 30.625 147.898 29.9375V36.5234C146.617 37.1953 145.219 37.6875 143.703 38C142.188 38.3125 140.273 38.4688 137.961 38.4688C135.289 38.4688 132.898 37.9922 130.789 37.0391C128.68 36.0859 127.016 34.6094 125.797 32.6094C124.594 30.6094 123.992 28.0391 123.992 24.8984C123.992 21.7109 124.539 19.0938 125.633 17.0469C126.727 14.9844 128.258 13.4609 130.227 12.4766C132.195 11.4766 134.484 10.9766 137.094 10.9766ZM137.422 17.2109C136.344 17.2109 135.438 17.5547 134.703 18.2422C133.984 18.9141 133.562 19.9766 133.438 21.4297H141.312C141.297 20.6484 141.141 19.9375 140.844 19.2969C140.547 18.6562 140.109 18.1484 139.531 17.7734C138.969 17.3984 138.266 17.2109 137.422 17.2109ZM166.906 38.4688C164.219 38.4688 161.883 37.9922 159.898 37.0391C157.914 36.0703 156.375 34.5859 155.281 32.5859C154.203 30.5703 153.664 27.9922 153.664 24.8516C153.664 21.6328 154.266 19 155.469 16.9531C156.688 14.9062 158.352 13.3984 160.461 12.4297C162.57 11.4609 164.961 10.9766 167.633 10.9766C169.258 10.9766 170.797 11.1562 172.25 11.5156C173.719 11.875 175.078 12.3672 176.328 12.9922L173.633 19.7656C172.539 19.2812 171.516 18.8984 170.562 18.6172C169.625 18.3203 168.648 18.1719 167.633 18.1719C166.711 18.1719 165.898 18.4141 165.195 18.8984C164.492 19.3828 163.945 20.1172 163.555 21.1016C163.164 22.0703 162.969 23.3047 162.969 24.8047C162.969 26.3359 163.164 27.5703 163.555 28.5078C163.961 29.4453 164.516 30.125 165.219 30.5469C165.938 30.9688 166.758 31.1797 167.68 31.1797C169.008 31.1797 170.328 30.9766 171.641 30.5703C172.969 30.1484 174.227 29.5703 175.414 28.8359V36.125C174.32 36.8438 173.086 37.4141 171.711 37.8359C170.336 38.2578 168.734 38.4688 166.906 38.4688ZM193.695 31.2266C194.523 31.2266 195.281 31.1406 195.969 30.9688C196.656 30.7969 197.375 30.5781 198.125 30.3125V36.9922C197.125 37.4297 196.062 37.7812 194.938 38.0469C193.828 38.3281 192.406 38.4688 190.672 38.4688C188.953 38.4688 187.438 38.2031 186.125 37.6719C184.812 37.125 183.789 36.1875 183.055 34.8594C182.336 33.5156 181.977 31.6484 181.977 29.2578V18.3125H178.766V14.5859L182.844 11.7031L185.211 6.125H191.211V11.4453H197.727V18.3125H191.211V28.6484C191.211 29.5078 191.43 30.1562 191.867 30.5938C192.305 31.0156 192.914 31.2266 193.695 31.2266ZM34.2031 68.8203C34.2031 71.4609 33.8828 73.8672 33.2422 76.0391C32.6172 78.1953 31.6328 80.0547 30.2891 81.6172C28.9453 83.1797 27.2188 84.3828 25.1094 85.2266C23 86.0547 20.4766 86.4688 17.5391 86.4688C14.6641 86.4688 12.1719 86.0547 10.0625 85.2266C7.96875 84.3828 6.24219 83.1875 4.88281 81.6406C3.52344 80.0781 2.51562 78.2109 1.85938 76.0391C1.20312 73.8672 0.875 71.4453 0.875 68.7734C0.875 65.2109 1.46094 62.1172 2.63281 59.4922C3.82031 56.8516 5.64844 54.8125 8.11719 53.375C10.5859 51.9219 13.7422 51.1953 17.5859 51.1953C21.4922 51.1953 24.6641 51.9219 27.1016 53.375C29.5547 54.8281 31.3516 56.875 32.4922 59.5156C33.6328 62.1562 34.2031 65.2578 34.2031 68.8203ZM10.625 68.8203C10.625 70.8828 10.8594 72.6562 11.3281 74.1406C11.7969 75.625 12.5391 76.7656 13.5547 77.5625C14.5703 78.3594 15.8984 78.7578 17.5391 78.7578C19.2422 78.7578 20.5938 78.3594 21.5938 77.5625C22.6094 76.7656 23.3359 75.625 23.7734 74.1406C24.2266 72.6562 24.4531 70.8828 24.4531 68.8203C24.4531 65.7266 23.9375 63.2812 22.9062 61.4844C21.875 59.6875 20.1016 58.7891 17.5859 58.7891C15.9141 58.7891 14.5625 59.1953 13.5312 60.0078C12.5156 60.8203 11.7734 61.9766 11.3047 63.4766C10.8516 64.9766 10.625 66.7578 10.625 68.8203ZM46.8125 86L36.6875 59.4453H46.25L50.75 75.1484C50.7969 75.2891 50.875 75.6484 50.9844 76.2266C51.1094 76.8047 51.1719 77.3438 51.1719 77.8438H51.3359C51.3359 77.3125 51.3906 76.8047 51.5 76.3203C51.6094 75.8359 51.6953 75.4609 51.7578 75.1953L56.4688 59.4453H66.0078L55.8828 86H46.8125ZM81.1484 58.9766C83.7266 58.9766 85.9531 59.4297 87.8281 60.3359C89.7031 61.2266 91.1484 62.5703 92.1641 64.3672C93.1797 66.1641 93.6875 68.4141 93.6875 71.1172V75.1953H77.3047C77.3828 76.5859 77.8984 77.7266 78.8516 78.6172C79.8203 79.5078 81.2422 79.9531 83.1172 79.9531C84.7734 79.9531 86.2891 79.7891 87.6641 79.4609C89.0547 79.1328 90.4844 78.625 91.9531 77.9375V84.5234C90.6719 85.1953 89.2734 85.6875 87.7578 86C86.2422 86.3125 84.3281 86.4688 82.0156 86.4688C79.3438 86.4688 76.9531 85.9922 74.8438 85.0391C72.7344 84.0859 71.0703 82.6094 69.8516 80.6094C68.6484 78.6094 68.0469 76.0391 68.0469 72.8984C68.0469 69.7109 68.5938 67.0938 69.6875 65.0469C70.7812 62.9844 72.3125 61.4609 74.2812 60.4766C76.25 59.4766 78.5391 58.9766 81.1484 58.9766ZM81.4766 65.2109C80.3984 65.2109 79.4922 65.5547 78.7578 66.2422C78.0391 66.9141 77.6172 67.9766 77.4922 69.4297H85.3672C85.3516 68.6484 85.1953 67.9375 84.8984 67.2969C84.6016 66.6562 84.1641 66.1484 83.5859 65.7734C83.0234 65.3984 82.3203 65.2109 81.4766 65.2109ZM114.898 58.9766C115.398 58.9766 115.922 59.0156 116.469 59.0938C117.016 59.1562 117.422 59.2109 117.688 59.2578L116.867 67.9062C116.57 67.8281 116.188 67.7656 115.719 67.7188C115.25 67.6562 114.594 67.625 113.75 67.625C113.172 67.625 112.555 67.6797 111.898 67.7891C111.242 67.8984 110.617 68.1328 110.023 68.4922C109.445 68.8359 108.969 69.3672 108.594 70.0859C108.219 70.7891 108.031 71.7422 108.031 72.9453V86H98.8672V59.4453H105.688L107.117 63.6875H107.562C108.047 62.8125 108.664 62.0234 109.414 61.3203C110.18 60.6016 111.031 60.0312 111.969 59.6094C112.922 59.1875 113.898 58.9766 114.898 58.9766ZM128.375 86L118.25 59.4453H127.812L132.312 75.1484C132.359 75.2891 132.438 75.6484 132.547 76.2266C132.672 76.8047 132.734 77.3438 132.734 77.8438H132.898C132.898 77.3125 132.953 76.8047 133.062 76.3203C133.172 75.8359 133.258 75.4609 133.32 75.1953L138.031 59.4453H147.57L137.445 86H128.375ZM159.969 59.4453V86H150.805V59.4453H159.969ZM155.422 48.7578C156.734 48.7578 157.875 49.0312 158.844 49.5781C159.828 50.125 160.32 51.2109 160.32 52.8359C160.32 54.4141 159.828 55.4844 158.844 56.0469C157.875 56.5938 156.734 56.8672 155.422 56.8672C154.078 56.8672 152.93 56.5938 151.977 56.0469C151.039 55.4844 150.57 54.4141 150.57 52.8359C150.57 51.2109 151.039 50.125 151.977 49.5781C152.93 49.0312 154.078 48.7578 155.422 48.7578ZM178.32 58.9766C180.898 58.9766 183.125 59.4297 185 60.3359C186.875 61.2266 188.32 62.5703 189.336 64.3672C190.352 66.1641 190.859 68.4141 190.859 71.1172V75.1953H174.477C174.555 76.5859 175.07 77.7266 176.023 78.6172C176.992 79.5078 178.414 79.9531 180.289 79.9531C181.945 79.9531 183.461 79.7891 184.836 79.4609C186.227 79.1328 187.656 78.625 189.125 77.9375V84.5234C187.844 85.1953 186.445 85.6875 184.93 86C183.414 86.3125 181.5 86.4688 179.188 86.4688C176.516 86.4688 174.125 85.9922 172.016 85.0391C169.906 84.0859 168.242 82.6094 167.023 80.6094C165.82 78.6094 165.219 76.0391 165.219 72.8984C165.219 69.7109 165.766 67.0938 166.859 65.0469C167.953 62.9844 169.484 61.4609 171.453 60.4766C173.422 59.4766 175.711 58.9766 178.32 58.9766ZM178.648 65.2109C177.57 65.2109 176.664 65.5547 175.93 66.2422C175.211 66.9141 174.789 67.9766 174.664 69.4297H182.539C182.523 68.6484 182.367 67.9375 182.07 67.2969C181.773 66.6562 181.336 66.1484 180.758 65.7734C180.195 65.3984 179.492 65.2109 178.648 65.2109ZM218.891 86L216.102 74.375C215.961 73.7812 215.82 73.1094 215.68 72.3594C215.539 71.5938 215.398 70.8281 215.258 70.0625C215.133 69.2969 215.023 68.5938 214.93 67.9531C214.836 67.3125 214.766 66.8125 214.719 66.4531H214.578C214.531 66.8125 214.453 67.3203 214.344 67.9766C214.234 68.6172 214.109 69.3281 213.969 70.1094C213.828 70.8906 213.672 71.6875 213.5 72.5C213.344 73.2969 213.188 74.0391 213.031 74.7266L210.336 86H200.703L193.461 59.4453H202.484L204.641 69.6406C204.797 70.3906 204.953 71.2891 205.109 72.3359C205.281 73.3672 205.43 74.4219 205.555 75.5C205.695 76.5625 205.789 77.5156 205.836 78.3594H205.977C206.008 77.7188 206.078 76.9844 206.188 76.1562C206.312 75.3125 206.445 74.4766 206.586 73.6484C206.742 72.8203 206.883 72.0938 207.008 71.4688C207.133 70.8281 207.219 70.3906 207.266 70.1562L209.727 59.4453H219.852L222.102 70.2969C222.242 70.9062 222.398 71.6875 222.57 72.6406C222.758 73.5781 222.93 74.5625 223.086 75.5938C223.258 76.6094 223.383 77.5312 223.461 78.3594H223.602C223.664 77.5 223.758 76.5234 223.883 75.4297C224.008 74.3359 224.148 73.2734 224.305 72.2422C224.477 71.1953 224.641 70.3281 224.797 69.6406L227.141 59.4453H235.977L228.688 86H218.891Z" fill="white"/>
</svg>
