<svg width="1267" height="87" viewBox="0 0 1267 87" fill="none" xmlns="http://www.w3.org/2000/svg">
<path d="M35.5166 9.84686C48.5253 9.84686 58.2585 12.6779 64.716 18.34C71.2204 24.002 74.4725 32.0506 74.4725 42.4856C74.4725 47.165 73.794 51.6572 72.437 55.9623C71.1268 60.2673 68.9509 64.1044 65.9093 67.4736C62.9145 70.8428 58.9136 73.51 53.9066 75.4754C48.9465 77.4407 42.8165 78.4234 35.5166 78.4234H27.7254V112.466H0V9.84686H35.5166ZM34.8849 32.2378H27.7254V55.8219H33.2003C35.5868 55.8219 37.8095 55.4242 39.8684 54.6287C41.9274 53.7864 43.5652 52.4527 44.7818 50.6278C46.0452 48.756 46.677 46.2759 46.677 43.1875C46.677 39.9588 45.7177 37.3383 43.7991 35.3262C41.8806 33.2672 38.9092 32.2378 34.8849 32.2378Z" fill="white"/>
<path d="M137.223 31.5359C138.721 31.5359 140.288 31.6528 141.926 31.8868C143.564 32.074 144.78 32.2378 145.576 32.3781L143.119 58.2786C142.23 58.0446 141.084 57.8574 139.68 57.7171C138.276 57.5299 136.311 57.4363 133.784 57.4363C132.053 57.4363 130.204 57.6001 128.239 57.9276C126.273 58.2552 124.402 58.9571 122.624 60.0334C120.892 61.0628 119.465 62.6538 118.342 64.8063C117.219 66.9121 116.657 69.7665 116.657 73.3696V112.466H89.2126V32.9397H109.638L113.92 45.6442H115.253C116.704 43.0238 118.552 40.6607 120.799 38.5549C123.091 36.4024 125.642 34.6944 128.449 33.431C131.304 32.1676 134.228 31.5359 137.223 31.5359Z" fill="white"/>
<path d="M232.683 72.5273C232.683 79.1721 231.77 85.0681 229.945 90.2155C228.12 95.3628 225.477 99.6912 222.014 103.201C218.551 106.71 214.363 109.378 209.45 111.203C204.536 112.981 198.991 113.87 192.814 113.87C187.059 113.87 181.771 112.981 176.951 111.203C172.178 109.378 168.014 106.71 164.457 103.201C160.901 99.6912 158.14 95.3628 156.175 90.2155C154.256 85.0681 153.297 79.1721 153.297 72.5273C153.297 63.7301 154.888 56.2898 158.07 50.2066C161.299 44.1234 165.885 39.4908 171.827 36.3088C177.817 33.1268 184.953 31.5359 193.236 31.5359C200.863 31.5359 207.648 33.1268 213.591 36.3088C219.534 39.4908 224.19 44.1234 227.559 50.2066C230.975 56.2898 232.683 63.7301 232.683 72.5273ZM181.163 72.5273C181.163 77.0664 181.56 80.9035 182.356 84.0387C183.151 87.1271 184.415 89.4901 186.146 91.1279C187.924 92.7189 190.241 93.5144 193.095 93.5144C195.95 93.5144 198.219 92.7189 199.904 91.1279C201.588 89.4901 202.805 87.1271 203.554 84.0387C204.349 80.9035 204.747 77.0664 204.747 72.5273C204.747 67.9883 204.349 64.198 203.554 61.1564C202.805 58.1148 201.565 55.8219 199.833 54.2777C198.149 52.7335 195.856 51.9614 192.955 51.9614C188.79 51.9614 185.772 53.6928 183.9 57.1555C182.075 60.6183 181.163 65.7422 181.163 72.5273Z" fill="white"/>
<path d="M246.37 147C244.171 147 241.644 146.813 238.789 146.438C235.888 146.111 233.502 145.713 231.63 145.245V123.837C233.127 124.258 234.508 124.562 235.771 124.749C237.035 124.983 238.462 125.1 240.053 125.1C242.299 125.1 244.241 124.305 245.879 122.714C247.563 121.17 248.406 117.988 248.406 113.168V32.9397H275.85V118.924C275.85 123.697 274.914 128.212 273.043 132.47C271.171 136.775 268.082 140.262 263.777 142.929C259.472 145.643 253.67 147 246.37 147ZM247.704 13.1458C247.704 8.27927 249.108 5.02709 251.915 3.3893C254.77 1.75151 258.209 0.932617 262.233 0.932617C266.164 0.932617 269.58 1.75151 272.481 3.3893C275.429 5.02709 276.903 8.27927 276.903 13.1458C276.903 17.872 275.429 21.0774 272.481 22.762C269.58 24.3998 266.164 25.2187 262.233 25.2187C258.209 25.2187 254.77 24.3998 251.915 22.762C249.108 21.0774 247.704 17.872 247.704 13.1458Z" fill="white"/>
<path d="M330.81 31.5359C338.531 31.5359 345.199 32.8929 350.814 35.6069C356.429 38.2742 360.758 42.2985 363.799 47.6798C366.841 53.0611 368.362 59.7994 368.362 67.8947V80.108H319.298C319.532 84.2726 321.077 87.6886 323.931 90.3558C326.832 93.0231 331.091 94.3567 336.706 94.3567C341.666 94.3567 346.205 93.8654 350.323 92.8827C354.487 91.9 358.769 90.3792 363.168 88.3203V108.044C359.331 110.056 355.143 111.53 350.604 112.466C346.065 113.402 340.332 113.87 333.407 113.87C325.405 113.87 318.246 112.443 311.928 109.588C305.611 106.734 300.628 102.312 296.978 96.3221C293.375 90.3324 291.573 82.6348 291.573 73.2292C291.573 63.6833 293.211 55.8453 296.486 49.7153C299.762 43.5385 304.348 38.9761 310.244 36.0281C316.14 33.0333 322.995 31.5359 330.81 31.5359ZM331.792 50.2066C328.564 50.2066 325.85 51.2361 323.65 53.295C321.498 55.3072 320.234 58.4892 319.86 62.841H343.444C343.397 60.5013 342.929 58.3722 342.04 56.4536C341.151 54.5351 339.841 53.0143 338.11 51.8912C336.425 50.7682 334.319 50.2066 331.792 50.2066Z" fill="white"/>
<path d="M420.093 113.87C412.044 113.87 405.048 112.443 399.105 109.588C393.163 106.687 388.553 102.241 385.278 96.2519C382.049 90.2155 380.435 82.4944 380.435 73.0889C380.435 63.4493 382.236 55.5645 385.839 49.4345C389.489 43.3045 394.473 38.7889 400.79 35.8877C407.107 32.9865 414.267 31.5359 422.268 31.5359C427.135 31.5359 431.744 32.074 436.096 33.1502C440.495 34.2265 444.566 35.7005 448.309 37.5723L440.237 57.8574C436.962 56.4068 433.897 55.2604 431.042 54.4181C428.235 53.529 425.31 53.0845 422.268 53.0845C419.508 53.0845 417.074 53.8098 414.969 55.2604C412.863 56.711 411.225 58.9103 410.055 61.8583C408.885 64.7595 408.301 68.4563 408.301 72.9485C408.301 77.5343 408.885 81.231 410.055 84.0387C411.272 86.8463 412.933 88.8818 415.039 90.1453C417.191 91.4087 419.648 92.0404 422.409 92.0404C426.386 92.0404 430.34 91.4321 434.271 90.2155C438.249 88.952 442.016 87.2206 445.572 85.0213V106.851C442.296 109.003 438.6 110.711 434.482 111.975C430.364 113.238 425.567 113.87 420.093 113.87Z" fill="white"/>
<path d="M500.321 92.1808C502.801 92.1808 505.07 91.9234 507.129 91.4087C509.188 90.894 511.341 90.2388 513.587 89.4434V109.448C510.592 110.758 507.41 111.811 504.041 112.606C500.719 113.449 496.46 113.87 491.266 113.87C486.119 113.87 481.58 113.074 477.649 111.483C473.718 109.846 470.653 107.038 468.454 103.06C466.302 99.0361 465.225 93.4442 465.225 86.2848V53.5056H455.609V42.3453L467.822 33.7118L474.912 17.0063H492.881V32.9397H512.394V53.5056H492.881V84.4598C492.881 87.0335 493.536 88.9754 494.846 90.2856C496.156 91.5491 497.981 92.1808 500.321 92.1808Z" fill="white"/>
<path d="M662.462 61.016C662.462 68.9242 661.503 76.1305 659.584 82.6348C657.712 89.0924 654.764 94.6609 650.74 99.3403C646.716 104.02 641.545 107.623 635.228 110.15C628.911 112.63 621.353 113.87 612.556 113.87C603.946 113.87 596.482 112.63 590.165 110.15C583.895 107.623 578.724 104.043 574.653 99.4105C570.582 94.7311 567.564 89.1392 565.598 82.6348C563.633 76.1305 562.65 68.8774 562.65 60.8757C562.65 50.2066 564.405 40.9414 567.915 33.0801C571.471 25.1719 576.946 19.0653 584.339 14.7602C591.733 10.4084 601.185 8.23247 612.696 8.23247C624.395 8.23247 633.894 10.4084 641.194 14.7602C648.541 19.1121 653.922 25.2421 657.338 33.1502C660.754 41.0584 662.462 50.347 662.462 61.016ZM591.85 61.016C591.85 67.1928 592.552 72.5039 593.955 76.9494C595.359 81.3948 597.582 84.8108 600.624 87.1972C603.665 89.5837 607.643 90.777 612.556 90.777C617.657 90.777 621.704 89.5837 624.699 87.1972C627.741 84.8108 629.917 81.3948 631.227 76.9494C632.584 72.5039 633.262 67.1928 633.262 61.016C633.262 51.7508 631.718 44.4276 628.63 39.0463C625.541 33.665 620.23 30.9743 612.696 30.9743C607.689 30.9743 603.642 32.191 600.553 34.6243C597.512 37.0575 595.289 40.5203 593.885 45.0125C592.528 49.5047 591.85 54.8392 591.85 61.016Z" fill="white"/>
<path d="M700.224 112.466L669.902 32.9397H698.54L712.017 79.9676C712.157 80.3887 712.391 81.465 712.719 83.1964C713.093 84.9277 713.28 86.5421 713.28 88.0395H713.771C713.771 86.4485 713.935 84.9277 714.263 83.4771C714.59 82.0265 714.848 80.9035 715.035 80.108L729.143 32.9397H757.711L727.388 112.466H700.224Z" fill="white"/>
<path d="M803.054 31.5359C810.775 31.5359 817.443 32.8929 823.059 35.6069C828.674 38.2742 833.002 42.2985 836.044 47.6798C839.086 53.0611 840.606 59.7994 840.606 67.8947V80.108H791.543C791.777 84.2726 793.321 87.6886 796.175 90.3558C799.077 93.0231 803.335 94.3567 808.95 94.3567C813.91 94.3567 818.449 93.8654 822.567 92.8827C826.732 91.9 831.014 90.3792 835.412 88.3203V108.044C831.575 110.056 827.387 111.53 822.848 112.466C818.309 113.402 812.577 113.87 805.651 113.87C797.649 113.87 790.49 112.443 784.173 109.588C777.856 106.734 772.872 102.312 769.222 96.3221C765.619 90.3324 763.817 82.6348 763.817 73.2292C763.817 63.6833 765.455 55.8453 768.731 49.7153C772.006 43.5385 776.592 38.9761 782.488 36.0281C788.384 33.0333 795.24 31.5359 803.054 31.5359ZM804.037 50.2066C800.808 50.2066 798.094 51.2361 795.895 53.295C793.742 55.3072 792.479 58.4892 792.104 62.841H815.689C815.642 60.5013 815.174 58.3722 814.285 56.4536C813.396 54.5351 812.085 53.0143 810.354 51.8912C808.669 50.7682 806.564 50.2066 804.037 50.2066Z" fill="white"/>
<path d="M904.129 31.5359C905.626 31.5359 907.194 31.6528 908.832 31.8868C910.47 32.074 911.686 32.2378 912.482 32.3781L910.025 58.2786C909.136 58.0446 907.99 57.8574 906.586 57.7171C905.182 57.5299 903.217 57.4363 900.69 57.4363C898.958 57.4363 897.11 57.6001 895.145 57.9276C893.179 58.2552 891.308 58.9571 889.529 60.0334C887.798 61.0628 886.371 62.6538 885.248 64.8063C884.125 66.9121 883.563 69.7665 883.563 73.3696V112.466H856.118V32.9397H876.544L880.826 45.6442H882.159C883.61 43.0238 885.458 40.6607 887.704 38.5549C889.997 36.4024 892.548 34.6944 895.355 33.431C898.21 32.1676 901.134 31.5359 904.129 31.5359Z" fill="white"/>
<path d="M944.489 112.466L914.166 32.9397H942.804L956.281 79.9676C956.421 80.3887 956.655 81.465 956.983 83.1964C957.357 84.9277 957.544 86.5421 957.544 88.0395H958.036C958.036 86.4485 958.199 84.9277 958.527 83.4771C958.855 82.0265 959.112 80.9035 959.299 80.108L973.407 32.9397H1001.98L971.653 112.466H944.489Z" fill="white"/>
<path d="M1039.11 32.9397V112.466H1011.66V32.9397H1039.11ZM1025.49 0.932617C1029.42 0.932617 1032.84 1.75151 1035.74 3.3893C1038.69 5.02709 1040.16 8.27927 1040.16 13.1458C1040.16 17.872 1038.69 21.0774 1035.74 22.762C1032.84 24.3998 1029.42 25.2187 1025.49 25.2187C1021.46 25.2187 1018.03 24.3998 1015.17 22.762C1012.36 21.0774 1010.96 17.872 1010.96 13.1458C1010.96 8.27927 1012.36 5.02709 1015.17 3.3893C1018.03 1.75151 1021.46 0.932617 1025.49 0.932617Z" fill="white"/>
<path d="M1094.07 31.5359C1101.79 31.5359 1108.45 32.8929 1114.07 35.6069C1119.69 38.2742 1124.01 42.2985 1127.06 47.6798C1130.1 53.0611 1131.62 59.7994 1131.62 67.8947V80.108H1082.55C1082.79 84.2726 1084.33 87.6886 1087.19 90.3558C1090.09 93.0231 1094.35 94.3567 1099.96 94.3567C1104.92 94.3567 1109.46 93.8654 1113.58 92.8827C1117.74 91.9 1122.03 90.3792 1126.42 88.3203V108.044C1122.59 110.056 1118.4 111.53 1113.86 112.466C1109.32 113.402 1103.59 113.87 1096.66 113.87C1088.66 113.87 1081.5 112.443 1075.18 109.588C1068.87 106.734 1063.88 102.312 1060.23 96.3221C1056.63 90.3324 1054.83 82.6348 1054.83 73.2292C1054.83 63.6833 1056.47 55.8453 1059.74 49.7153C1063.02 43.5385 1067.6 38.9761 1073.5 36.0281C1079.4 33.0333 1086.25 31.5359 1094.07 31.5359ZM1095.05 50.2066C1091.82 50.2066 1089.11 51.2361 1086.91 53.295C1084.75 55.3072 1083.49 58.4892 1083.12 62.841H1106.7C1106.65 60.5013 1106.19 58.3722 1105.3 56.4536C1104.41 54.5351 1103.1 53.0143 1101.37 51.8912C1099.68 50.7682 1097.58 50.2066 1095.05 50.2066Z" fill="white"/>
<path d="M1215.57 112.466L1207.21 77.6513C1206.79 75.8731 1206.37 73.861 1205.95 71.6149C1205.53 69.322 1205.11 67.0291 1204.69 64.7362C1204.31 62.4432 1203.98 60.3375 1203.7 58.419C1203.42 56.5004 1203.21 55.003 1203.07 53.9268H1202.65C1202.51 55.003 1202.28 56.5238 1201.95 58.4892C1201.62 60.4077 1201.25 62.5368 1200.83 64.8765C1200.4 67.2162 1199.94 69.6027 1199.42 72.036C1198.95 74.4225 1198.49 76.6452 1198.02 78.7041L1189.95 112.466H1161.1L1139.41 32.9397H1166.43L1172.89 63.4727C1173.36 65.7188 1173.83 68.4095 1174.29 71.5447C1174.81 74.6331 1175.25 77.7917 1175.63 81.0204C1176.05 84.2024 1176.33 87.0569 1176.47 89.5837H1176.89C1176.98 87.6652 1177.2 85.4659 1177.52 82.9858C1177.9 80.4589 1178.29 77.9554 1178.72 75.4754C1179.18 72.9953 1179.6 70.8194 1179.98 68.9476C1180.35 67.0291 1180.61 65.7188 1180.75 65.0169L1188.12 32.9397H1218.44L1225.18 65.4381C1225.6 67.263 1226.07 69.6027 1226.59 72.4572C1227.15 75.2648 1227.66 78.2128 1228.13 81.3012C1228.65 84.3428 1229.02 87.1037 1229.25 89.5837H1229.67C1229.86 87.0101 1230.14 84.0854 1230.52 80.8099C1230.89 77.5343 1231.31 74.3523 1231.78 71.2639C1232.3 68.1287 1232.79 65.5316 1233.25 63.4727L1240.27 32.9397H1266.74L1244.91 112.466H1215.57Z" fill="white"/>
</svg>
