<svg width="698" height="1057" viewBox="0 0 698 1057" fill="none" xmlns="http://www.w3.org/2000/svg">
<g clip-path="url(#clip0_420_2117)">
<path d="M189.79 257.85C201.95 257.26 213.31 258.27 225.23 260.29C247.9 264.14 267.96 270.99 291.43 271.5C294.33 271.56 301.5 271.97 303.86 271.35C304.91 271.07 306.25 269.56 307.54 269.03C314.28 266.23 320.26 265.79 326.08 260.86C331.44 256.32 335.17 250.6 335.9 243.43C331.21 237.44 324.78 232.82 321.62 225.51C316.08 212.72 321.05 195.29 323.35 182.07C322.25 180.99 310.07 191.38 308.63 192.69C301.6 199.05 295.28 206.9 288.21 213.16C286.58 214.61 276.45 222.94 274.84 221.32C276.79 211.84 284.97 203.28 291.46 196.23C308.18 178.09 317.99 173.96 338.44 161.98C358.03 150.5 369.8 135.75 375.65 113.59C377.37 107.06 378.27 95.6498 380.6 90.1798C381.23 88.7098 381.54 88.5598 383.27 88.8798C389.45 110.07 381.4 133.91 368.04 150.69C359.1 161.93 346.36 169.51 333.69 175.88C333.48 178.62 333.49 181.83 333.17 184.51C332.08 193.64 328.62 209.64 330.69 218.08C332.57 225.78 342.89 232.7 348.45 237.94C361.15 249.92 376.8 268.66 395.99 265.88C415.18 263.1 432.9 249.35 444.37 234.12C451.86 224.17 450.34 215.34 451.48 204.15C452.62 192.96 462.21 195.12 463.4 205.29C463.76 208.4 463.7 216.2 463.45 219.4C462.39 233.24 453.47 242.61 444.39 252.14C436.58 260.33 427.88 266.94 417.49 271.58C415 272.69 402.57 276.48 401.99 277.07C401.1 277.97 401.58 279.9 401.21 280.95C400.95 281.67 399.97 281.58 399.57 282.6C397.73 287.28 399.04 299.9 401.44 304.34C403.01 307.24 409.67 309.04 412.58 310.64C426.49 318.29 440.05 328.54 452.81 338.01C454.23 339.07 454.87 341.16 456.92 340.51C459.39 339.72 472.26 323.57 474.03 320.51C482.39 306.07 475.57 290.67 482.06 275.65C483.51 272.3 486.76 266.63 490.7 266.58C489.92 271.71 487.61 276.4 486.9 281.58C485.75 289.93 487.92 298.33 487.43 306.65C486.52 321.93 478.47 331.18 468.64 341.83C467.18 343.41 465.45 345.36 463.53 346.25L463.5 347.49C467.49 351.27 471.8 354.88 475.73 358.71C512.39 394.4 554.06 437.68 581.64 480.68C587.93 490.49 596.85 502.22 592.21 514.26C598.56 526.62 606.58 539.22 611.59 552.14C614.97 560.86 617.48 570.36 620.44 579.27C623.55 588.63 629.74 598.3 625.62 608.42C623.25 614.26 618.42 616.56 612.29 614.98C611.44 622.55 606.03 634.93 596.76 633.47C595.53 633.28 594.56 632.17 593.23 632.44C590.75 642.11 575.19 654.87 568.93 641.13C565.73 634.1 566.76 610.32 566.45 601.08C566.25 594.97 566.62 588.89 565.92 582.8C564.9 582.56 564.86 583.14 564.38 583.71C558.9 590.05 554.7 605.88 543.33 604.03C539.56 603.42 537.07 597.94 537.02 594.49C536.9 586.38 540.41 576.71 540.35 568.35C540.31 562.43 537.65 555.73 535.06 550.66C528.94 551.96 525.57 558.61 519.31 553.37C495.15 521.57 469.52 490.51 438.09 465.58C437.96 468.68 438.11 472.01 438.37 475.11C439.85 492.96 442.1 510.73 445.08 528.37C445.65 531.71 447.51 537.11 447.58 540.05C447.62 542.13 445.58 546.31 445.7 546.86C445.88 547.64 452.56 556.97 453.73 558.98C469.42 585.92 480.23 616.81 493.51 645.14C500.41 659.87 508.13 674.25 515.16 688.91C530.35 720.58 544.32 752.86 562.02 783.25C574.38 804.47 603.1 836.24 569.29 853.58C569.03 861.71 567.7 869.89 565.66 877.76C565.2 879.53 562.82 884.75 563.45 885.93L616.63 922.2C643.99 962.74 671.13 1003.47 697.43 1044.75C698.3 1046.62 698.02 1051 696.38 1052.26C695.92 1052.61 689.54 1055.44 688.88 1055.52C682.13 1056.33 671.64 1055.05 664.31 1054.98C633.65 1054.68 602.48 1055.59 571.69 1056.07L183.95 1055.63C177.85 1051.56 181.14 1044.62 187.88 1044.57C307.22 1044.25 426.47 1045.08 545.78 1045.13L470.87 990.02C458.57 989.13 450.64 983.06 446 971.82L225.22 812.58L224.15 812.53C196.03 831.03 165.88 806.96 173.92 775.34C164.29 769.37 155.49 761.69 146.06 755.49C140.32 751.72 138.58 753.01 135.21 746.16C116.95 709 131.11 672.93 165.47 653.01C167.21 652 173.84 649.5 174.03 647.93C168.89 629.5 164.37 610.89 162.57 591.77C160.45 569.36 159.51 537.19 177.82 520.89C189.24 510.72 215.73 502.42 230.62 505.72C233.99 506.47 236.8 508 239.97 509.18C240.12 505.84 239.77 502.44 239.97 499.1C240.52 490.22 242.35 481.3 242.71 472.4C243.34 456.78 240.48 441.09 241.03 425.47C241.1 423.54 242.59 412.12 242.14 411.59C226.28 419 218.58 435.44 210.29 449.79L208.35 450.29C205.5 433.93 217.03 416.52 229.65 406.99C233.89 403.79 238.75 401.62 243.13 398.66C243.5 397.82 243.68 396.95 243.78 396.03C244.55 388.56 243.16 381.42 243.19 374.22C243.2 371.31 245.64 363.07 243.64 361C237.33 358.43 230.26 352.89 223.73 351.2C219.98 350.23 215.41 350.05 211.51 349.24C200.75 347 179.03 340.73 169.25 346.03C168.52 346.43 167.85 346.77 167.59 347.64C164.16 358.22 162.5 370.09 158.29 380.32C155.92 386.06 146.81 402.09 142.11 405.57C136.9 409.42 132.56 405.34 133.79 399.42C134.64 395.32 144.77 382.4 147.39 376.49C149.31 372.15 151.55 365.49 152.49 360.88C152.61 360.29 153.13 359.04 152.47 358.68C143.5 368.67 132.75 376.77 123.02 385.92C114.04 394.36 103.41 407.04 94.1304 414.27C92.7905 415.31 90.0704 417.09 88.4504 417.32C86.4504 417.6 84.3105 415.73 83.5105 416.15C76.8204 425.99 68.8005 435.38 59.5305 442.92C37.8305 460.57 21.1105 454.07 7.51045 431.69C-4.24955 412.34 -3.63955 381.89 20.0805 372.38C24.6005 370.57 38.0705 368.73 38.8105 375.9C39.5505 383.07 30.1905 380.03 26.5905 380.53C17.3705 381.82 11.5605 394.25 11.0205 402.57C10.1505 416.08 22.8805 444.04 38.9505 441.95C51.7905 440.28 67.3605 419.53 77.5505 411.85L77.8204 410.48L51.6005 378.32L39.0905 394.67C33.9905 399.97 28.9605 407.67 20.5305 406.67C16.5105 406.19 13.5505 402.27 15.6905 398.53C17.6305 395.15 21.1005 396.52 23.7505 395.15C27.5605 393.18 35.3805 384.18 39.3405 380.76C42.0205 378.45 44.8405 376.07 48.0005 374.43C46.6105 368.64 40.6705 369.56 41.5105 362.21C42.4505 353.99 53.7005 342.73 59.5005 337.14C78.5505 318.77 100.29 301.37 122.02 286.27C132 279.34 154.73 262.86 165.36 259.83C167.27 259.28 176.55 258.3 177 257.84C178.51 253.16 181.15 248.51 182.72 243.93C185.12 236.93 185.55 229.55 188.78 222.73C196.83 205.75 211.66 188.07 226.06 176.05C242.97 161.93 253.8 154.36 267.1 135.86C293.43 99.2198 310.81 64.2498 355.53 46.0198C376.13 37.6198 422.5 28.7998 439.48 47.0798C441.17 48.8998 444.82 54.1098 441.4 55.5498C434.58 51.1798 426.99 48.5998 418.95 47.4398C379.87 41.7698 341.67 58.2398 315.71 86.8798C295.85 108.79 283.07 136.51 263.67 158.05C247.65 175.84 225.8 188.1 213.01 208.25C205.28 220.43 201.66 228.55 197.31 242.16C195.55 247.66 191.58 252.31 189.8 257.82L189.79 257.85ZM388.21 278.03C376.79 277.11 366.58 270.38 357.98 263.29C353.75 259.8 350.2 255.45 345.71 252.4C342.19 263.41 332.16 272.56 321.31 276.26C318.74 277.13 309.42 278.57 308.75 280.6C307.5 284.44 307.78 297.74 308.06 302.31C310.66 344.06 335.66 352.98 369.64 331.68C377.83 326.55 384.47 320.57 391.27 313.76C390.28 304.65 386.54 296.38 387.14 287.02C387.23 285.57 388.8 278.6 388.22 278.02L388.21 278.03ZM268.83 539.19C256.69 535.76 242.91 528.76 239.98 515.42L226.32 515.74L243 550.59L268.84 539.19H268.83ZM214.25 517.99C201.32 518.83 181.23 527.83 177.62 541.47C176.8 544.56 177.93 543.84 179 545.89C180.75 549.25 192.29 573.82 193.87 573.95L231.72 556.04L214.25 517.99ZM607.36 576.26C603.66 559.01 594.79 544.56 587.27 529.02C586.5 527.43 583.44 519.37 582.47 519.07C581.07 518.63 576.71 521.22 575.25 522.06C563.67 528.69 552.92 538.3 541.41 545.2C540.83 546.05 544.54 548.95 545.21 549.84C554.23 561.69 550.79 573.6 549.04 587.17C553.95 581.27 559.27 565.85 569.35 569.31C577.32 572.04 576.86 582.79 577.92 589.63L578.47 633.51C579.37 634.52 582.08 629.57 582.38 628.97C587.46 619.08 587.31 607.54 587.21 596.68C587.18 593.37 585.48 587.25 590.05 585.39C595.68 583.1 598.39 588 598.63 592.89L599.73 614.16L600.82 614.97C601.97 609.14 602.33 602.64 601.94 596.68C601.46 589.51 594.96 574.95 607.37 576.25L607.36 576.26ZM295 545.19L313.32 589.87L351.1 572.1L345.05 554.82L344.24 554L294.99 545.19H295ZM303.17 596.43C303.97 595.52 299.31 584.73 298.52 582.82C293.63 570.98 287.92 559.44 283.02 547.6C281.75 546.71 272.56 550.81 270.64 551.63C263.17 554.8 256.15 558.93 248.7 562.13L263.39 594.25L263.42 587.47C267.7 575.52 281.5 587.1 288.25 590.37C293.03 592.69 298.2 594.55 303.17 596.43ZM439.96 552.86C439.11 552.26 435.21 554.81 434 555.26C429.05 557.1 424.34 557.84 419.27 559.11L439.22 598.64L456.94 590.63L439.95 552.85L439.96 552.86ZM380.58 558.27L358.78 556.09L363.45 566.47C368.32 564.18 373.86 562.26 378.6 559.83C379.32 559.46 380.36 559.16 380.58 558.27ZM411.58 559.43L401.83 559.61L368.1 577.06L389.09 621.46L429.61 602.64L411.59 559.42L411.58 559.43ZM173.44 561.54V583.08L174.71 583.82L182.75 579.75C180.46 573.49 177.49 566.85 173.44 561.54ZM215.42 620.42L254.63 602.64L237.5 567.59L199.64 585.02L215.42 620.42ZM316.81 602.42C334.81 610.21 355.04 615.48 368.44 630.71L376.19 627.18L355.73 582.84L318.06 600.68L316.81 602.41V602.42ZM182.75 635.65C183.66 635.93 184.45 635.55 185.28 635.27C191.05 633.29 197.59 628.4 203.63 626.36L204.47 625.52L187.85 590.45L175.05 596.25C176.07 609.65 179.34 622.72 182.75 635.64V635.65ZM425.28 792.71C417.93 774.59 409.11 757.09 401.98 738.87C392.73 715.24 385.97 690.65 375.93 667.33C368.45 649.94 359.57 632.43 340.98 624.86L276.46 598.07C284.43 620.35 293.59 642.2 303.07 663.86C306.88 672.57 317.21 690.49 318.21 698.92C318.57 701.93 315.79 706.92 312.95 707.9C310.11 708.88 306.95 707.69 304.26 706.57C304.04 706.86 305.44 711.74 305.86 712.32C306.42 713.09 317.82 721.18 319.67 722.5C353.2 746.43 388.88 767.55 422.49 791.41L425.27 792.71H425.28ZM462.35 601.34L444.35 609.27L466.98 656.88L483.06 649.56L462.35 601.34ZM280.83 654.77L258.7 611.2L220.91 631.14L241.08 673.82L280.83 654.77ZM435.05 613.93L393.67 631.88L416.38 680.9L456.31 661.51L435.05 613.94V613.93ZM231.22 679.85L209.96 636.47L186.6 647.22C186.21 647.84 186.62 649.15 186.77 649.89C188.38 657.63 192.14 668.56 194.85 676.16C195.95 679.24 197.45 685.97 200.93 686.43C203.57 686.78 216.89 686.3 219.38 685.74C222.32 685.08 227.62 680.32 231.21 679.85H231.22ZM381.61 638.48C380.62 637.85 375.54 640.11 375.73 641.32C385.07 656.48 390.75 673.56 396.98 690.16C397.33 690.41 404.79 688.09 403.94 686.24L381.6 638.47L381.61 638.48ZM220.31 728.92C224.5 719.85 228.27 710.49 229.9 700.55L211.32 697.85C199.77 697.93 192.43 699.56 186.98 687.85C183.01 679.32 181.05 669.08 177.8 660.22C171.81 662.73 165.6 666.39 160.65 670.6C158.73 672.23 151.07 679.7 150.27 681.51C150.09 681.93 149.85 682.27 150.05 682.75L220.32 728.92H220.31ZM488.51 660.23C483.66 662.52 477.39 664.48 472.85 667.16C472.42 667.41 471.96 667.25 472.12 668.12L494.69 715.23C498.67 712.37 506.36 710.87 509.99 708.14C510.46 707.78 510.94 707.59 510.88 706.87L488.52 660.23H488.51ZM302.63 692.93L286.49 665.17L247.02 684.76C246.59 686.18 248.46 686.3 249.47 686.39C255.67 686.92 262.74 686.48 269.09 686.94C280.48 687.76 291.81 689.16 302.62 692.93H302.63ZM462.3 672.81C461.46 672.22 455.79 674.99 454.52 675.56C443.37 680.61 432.18 686.4 421.51 692.2L442.21 738.7L483.58 719.85L462.3 672.8V672.81ZM144.27 692.96C136.68 707.7 138.65 726.58 145.62 741.21L180.17 764.34C182.62 761.14 185.56 758.42 188.74 755.97C196.45 750.03 206.36 746.97 212.08 739.02L144.27 692.97V692.96ZM409.47 697.85C407.55 698.7 401.14 700.71 401.38 702.89C407.07 718.02 411.48 735.03 418.61 749.5C418.86 750 418.53 750.41 419.53 750.19C420.12 750.11 429.65 745.72 430.4 745.22C430.87 744.91 431.36 744.69 431.21 744.02L409.47 697.85ZM242.46 701.73C241.46 702.07 239.64 710.86 239.12 712.56C235.79 723.35 231.49 735.13 223.86 743.65C214.5 754.1 191.69 764.1 186.41 776.53C179.52 792.78 190.84 811.02 209.29 806.51C220.86 803.68 241.31 784.98 250.84 776.64C261.62 767.2 293.7 738.23 295.49 724.79C295.8 722.48 293.83 704.79 292.85 704.08L242.46 701.73ZM516.82 718.61C516 718.03 511.7 720.14 510.5 720.65C507.42 721.96 502.89 723.85 500.1 725.5C499.67 725.75 499.21 725.59 499.37 726.46L520.38 770.37L537.62 762.41L516.81 718.62L516.82 718.61ZM466.71 896.31L478.13 868.3C474.2 866.35 469.41 865.38 465.45 862.95C449.72 853.29 442.49 830.52 434.57 814.78C397.47 790.35 360.81 765.21 323.63 740.9C319.86 738.43 310.88 731.65 307.52 730.29C306.96 730.07 306.53 729.88 305.91 730C304.9 735.88 300.74 740.55 297.63 745.44L277.82 768.17L466.71 896.29V896.31ZM467.81 794.9L509.72 775.01L489.05 730.56L447.67 749.14L467.81 794.9ZM434.95 755.17C434.33 755.26 423.87 760.18 423.77 760.8L444.53 806.82C445.55 806.72 455.34 801.69 456.56 800.82C457 800.5 457.54 800.33 457.38 799.63L435.83 755.14C435.53 755.03 435.25 755.14 434.95 755.17ZM566.47 812.33L543.58 773.32H541.93L525.27 781.25L543.58 820.82L566.48 812.32L566.47 812.33ZM445.45 956.83C447.4 939.62 453.9 923.45 461.2 907.93L460.72 906.96L268.84 777.12L236.13 803.64L445.45 956.84V956.83ZM490.22 842.81L532.63 825.07L514.36 786.21L472.76 805.51L490.22 842.8V842.81ZM479.77 848.3L462.37 810.4L448.18 816.72C450.03 822.76 464.56 851.7 470.25 851.94L479.77 848.31V848.3ZM554.56 844.98C559.98 844.95 571.79 841.09 573.3 835.26C573.85 833.15 573.86 824.13 571.93 822.93L549.07 832.01L554.56 844.97V844.98ZM538.61 836.95L495.63 854.05L496.7 855.73L543.04 847.79L538.61 836.96V836.95ZM556.11 857.06L490.21 868.02C489.7 870.62 489.23 873.21 488.39 875.74C480.61 899.09 465.01 920.99 459.35 945.39C454.66 965.6 454.76 982.24 480.79 976.64C496.56 973.25 504.9 965.36 514.67 953.28C528.4 936.3 536.77 917.77 545.31 897.78C550.85 884.8 551.67 870.41 556.12 857.07L556.11 857.06ZM558.56 897.96C556.1 903.18 554.89 909.02 552.71 914.45C548.49 925 542.07 934.44 535.98 943.95L563.42 962.82C573.17 947.55 587.28 935.93 602.97 927.12L558.55 897.96H558.56ZM630.25 1040.8C630.93 1028.27 637.19 1015.91 645.53 1006.74C646.74 1005.41 652.62 1000.45 652.61 999.64L611.55 935.63C595.54 943.45 581.92 954.99 572.46 970.18C563 985.37 559.27 1001.52 559.37 1019.28L561.58 1038.61L630.26 1040.8H630.25ZM548.48 1032.07C545.27 1011.98 548.7 991.63 557.63 973.45L528.68 954.15C520.28 964.87 511.66 976.23 499.25 982.55C495.5 984.46 491.72 985.18 488.2 986.77C487.56 987.06 487.22 986.52 487.44 987.9L548.48 1032.07Z" fill="#4C4D55"/>
<path d="M457.99 73.0101C456.81 71.2301 461.53 69.6101 462.65 69.2301C487.79 60.8801 513.05 80.2701 522.56 102.47C532.01 124.52 529.1 146.69 521.08 168.56C511.43 194.89 490.5 222.51 507.91 250.71C510.51 254.92 516.44 260.03 517.58 264.48C519.72 272.9 511.17 270.11 507.05 266.84C500.69 261.8 494.86 252.73 492.32 245.04C479.43 206.03 515.5 173.06 517.41 134.88C518.72 108.77 503.81 82.3501 477.74 75.3401C470.85 73.4901 464.91 73.7401 458 73.0001L457.99 73.0101Z" fill="#4C4D55"/>
<path d="M448.18 63.7399C450.36 48.1399 450.77 30.0699 437.54 19.0499C432.34 14.7199 426.21 13.5099 421.29 10.2199C413.84 5.24991 418.26 -1.61009 427.36 0.339908C442.88 3.66991 457.57 20.4999 459.02 36.2799C459.84 45.2699 458.83 61.1099 448.19 63.7399H448.18Z" fill="#4C4D55"/>
<path d="M467.81 97.0097C469.24 95.6097 475.47 102.08 476.51 103.29C487.78 116.46 489.06 133.63 481.37 149.01C479.53 152.69 474.03 162.17 469.03 159.86C463.63 157.36 471.91 145.68 473.35 142.09C477.03 132.91 477.32 125.61 474.61 116.1C473.87 113.5 466.95 97.8497 467.8 97.0197L467.81 97.0097Z" fill="#4C4D55"/>
<path d="M436.19 97.28C436.68 95.67 439.25 96.66 440.24 97.59C446.18 103.2 443.56 116.96 440.82 123.71C438.08 130.46 430.55 140.17 425 144.42C421.94 146.77 417.27 147.32 417.06 142.54C416.86 138.11 424.47 131.2 427.15 127.49C430.76 122.49 436.19 112.15 436.19 106C436.19 104.1 435.8 98.56 436.19 97.28Z" fill="#4C4D55"/>
<path d="M365.7 205.61C368.63 204.7 369.94 207.02 371.04 209.33C373.04 213.52 373.34 217.94 376.31 222.05C379.45 226.4 389.51 229.97 384.69 236.07C380.58 241.28 372.6 235.43 369.39 231.69C364.78 226.31 361.01 215.65 363.4 208.79C363.76 207.76 364.64 205.94 365.68 205.62L365.7 205.61Z" fill="#4C4D55"/>
<path d="M451.81 115.62C453.53 115.04 455.07 116.1 455.56 117.7C458.06 125.92 445.11 150.22 437.12 153.28C432.58 155.02 430.7 151.38 432.25 147.32C433.43 144.2 440.26 136.96 442.62 133.16C444.2 130.61 450.87 115.93 451.81 115.62Z" fill="#4C4D55"/>
<path d="M414.79 174.02C416.24 175.53 415.8 184.22 416.07 186.64C416.62 191.53 419.55 194.59 417.2 199.88C414.06 206.98 402.39 206.04 403.5 198.73C403.94 195.81 406.8 195.4 407.2 194.24C407.89 192.24 406.73 189.82 406.78 187.87C406.88 184.35 408.61 176.21 411.68 174.18C412.63 173.55 413.85 173.04 414.79 174.02Z" fill="#4C4D55"/>
<path d="M445.3 171.31C448.44 174.46 444.08 177.22 444.39 178.47C453.11 184.33 442.58 194.78 435.69 188.28C432.96 185.71 433.01 181.53 434.28 178.25C434.55 177.55 439.22 171.01 439.6 170.76C440.95 169.87 444.12 170.13 445.3 171.31Z" fill="#4C4D55"/>
<path d="M386.24 158.98C386.32 159.17 387.11 159.19 387.15 159.51C387.25 160.39 386.39 161.3 386.68 162.56C387 163.97 389.35 165.48 389.74 167.18C392.27 178.04 376.21 178.42 376.19 167.62C376.19 165.57 378.85 156.93 380.42 156C384.28 153.72 385.1 156.29 386.25 158.98H386.24Z" fill="#4C4D55"/>
</g>
<defs>
<clipPath id="clip0_420_2117">
<rect width="697.91" height="1056.09" fill="white"/>
</clipPath>
</defs>
</svg>
