<svg width="820" height="997" viewBox="0 0 820 997" fill="none" xmlns="http://www.w3.org/2000/svg">
<g clip-path="url(#clip0_420_2144)">
<path d="M280.42 996.36L280.4 921.91C281.6 912.24 280.3 902.37 282.6 892.77C211.66 907.45 172.32 836.12 149.34 781.52C142.16 764.47 130.95 736.51 128.91 718.51C128.53 715.12 130.14 713.14 133.24 712.02C134.24 711.66 137.89 711.66 137.55 710.44C133.99 699.35 124.1 694.35 117.15 686.13C109.77 677.4 102.34 660.82 113.89 652.32C126.87 642.76 141.49 657.44 153.93 660.25C162.92 662.29 171.48 660.73 177.85 669.04C184.77 678.06 185.67 689.86 189.92 700.08C200.07 698.6 202.73 694.75 208.37 705.03C224.55 734.5 235.55 769.81 251.61 799.72C252.64 803.21 256.01 805.02 259.37 803.27C265.07 800.31 274.549 777.07 278.15 770.26C281.41 764.1 293.21 746.8 294.47 741.87C295.05 739.58 294.35 736.31 294.609 733.83C295.559 724.7 299.309 715.23 296.109 706.14C293.49 698.68 289.329 694.16 288.609 685.29C287.539 672.12 293.54 644.6 300.15 633.05C303.04 628 309.94 624.85 310.94 632.46C311.53 636.95 306.77 647.54 305.359 652.44C302.029 664.06 297.98 677.92 301.54 689.81C302.98 694.62 308.78 703.33 308.78 707.65V716.65C311.89 713.45 314.1 709.55 317.5 706.56C324.29 700.58 334.62 696.12 343.26 693.61C353.15 690.74 360.69 691.8 368.76 684.77C371.59 682.3 378.1 675.1 379.1 671.66C379.46 670.4 376.41 670.86 375.27 670.61C362.57 667.88 355.42 657.11 348.91 646.82C335.96 626.35 334.799 614.12 336.609 589.9C337.149 582.62 340.089 575.48 339.359 568.06C338.85 562.88 329.719 555.25 335.859 550.44C341.999 545.63 349.38 558.99 350.09 563.86C351.32 572.36 347.46 584.21 346.94 593.14C345.51 617.52 348.47 628.34 362.87 647.58C368.21 654.72 372.81 660.24 382.6 659.34C395.2 658.18 416.329 652.47 429.28 649.33C439.87 646.76 447.82 644.5 454.25 635.05C461.03 625.08 469.24 590.89 470.15 578.44C470.4 575.06 470.009 571.5 470.15 568.1C454.06 548.02 436.81 526.26 429 501.3C426.53 493.41 423.58 482.36 427.19 474.67L429.45 474.56C433.23 483.28 435.67 492.51 439.38 501.28C445.37 515.47 453.57 528.87 462.63 541.27C481.42 566.98 499.52 580.89 502.859 615.53C503.629 623.53 503.26 649.34 498.5 655.32C496.16 658.27 491.57 658.63 490.07 655.04C488.41 651.09 492.14 638.55 492.5 633.51C493.72 616.4 490.81 597.86 481.07 583.63C480.38 584.14 478.58 598.39 478.1 600.56C476.46 607.92 473.76 617.25 471.53 624.52C466.81 639.87 458.82 652.04 443.17 657.77C443.24 660.02 442.28 663.11 442.329 665.12C442.479 670.15 453.5 688.09 457.96 690.42C460.43 691.71 467.38 692.51 470.7 693.49C487.91 698.54 497.14 704.38 506.91 719.43C515.13 732.11 521.52 746.02 529.859 758.64C530.939 758.89 530.62 758.22 530.95 757.58C543.53 733.08 556.33 711.6 550.59 682.29C545.32 655.36 518.2 650.34 520.32 619.89C521.99 595.89 534.879 574.52 533.419 548.44C531.02 505.62 482.58 447.95 437.72 447.33C427.37 447.19 417.759 451.13 408.68 451.55C406.109 451.67 405.68 450.17 406.66 447.87C407.82 445.17 416.3 440.73 419.17 439.67C476.69 418.52 542.52 496.38 544.83 549C545.9 573.4 535.889 592.46 532.469 615.14C528.879 638.97 539.82 640.38 551.59 656.74C574.51 688.61 560.74 729.22 543.09 759.89C541.85 762.05 536.549 769.21 536.659 770.86C540.349 776.99 549.48 802.34 556.13 803.78C557.69 804.12 559.21 803.74 560.609 803.04L607.84 701.98C611.2 694.98 618.1 699.81 623.81 699.69C628.279 688 630.099 667.93 644.039 663.5C650.359 661.49 657.01 661.6 663.4 659.42C674.39 655.69 687.19 644.33 699.06 652.63C711.02 660.99 703.569 677.84 696.099 686.68C689.269 694.76 678.59 700.05 676.19 711.21C680.47 711.46 685.82 712.73 685.479 718.01C685.149 723.14 682.299 732.14 680.82 737.38C668.039 782.7 634.599 858.7 592.599 883.05C573.77 893.97 551.96 896.82 530.64 892.77L533.909 996.36H280.43H280.42ZM148.5 709.03L178.25 702.51L172.04 680.85C167.27 671.9 160.24 673.54 151.87 671.58C149.45 671.01 146.74 670.1 144.4 669.23C138.72 667.12 114.38 651.89 120.13 669.52C123.98 681.35 137.12 686.53 143.15 696.66C145.25 700.18 147.7 705.1 148.51 709.02L148.5 709.03ZM431.42 661.05L392.72 669.5C388.549 680.42 381.52 691.87 370.37 696.49C383.59 724.34 412.01 729.27 436.72 711.87C440.74 709.04 447.859 702.97 450.53 698.97C450.88 698.45 451.19 698.03 451.09 697.35C451.03 696.94 445.63 693.51 444.51 692.4C439.22 687.15 429.389 670.95 430.37 663.53C430.5 662.53 431.039 661.9 431.43 661.05H431.42ZM664.729 709.03C666.56 704.01 669.33 697.48 672.68 693.26C676.409 688.56 682.45 685.15 686.549 680.42C689.39 677.14 697.59 665.66 692.21 662.19C687.53 659.18 674.04 667.85 668.84 669.78C654.09 675.25 644.36 669.58 638.84 687.75C637.45 692.33 636.479 697.73 635.349 702.43L664.74 709.02L664.729 709.03ZM296.93 884.42C300.689 887.45 305.55 882.87 307.95 880.23C322.4 864.32 344.33 819.46 345.28 798.16C345.35 796.54 345.78 792.95 344.2 792.15C342.15 791.25 341.51 792.55 340.63 794.05C335.62 802.56 331.41 816.93 326.85 826.61C322.1 836.69 316.53 847.29 310.63 856.73C307.58 861.6 297.35 874.11 296.109 878.19C295.529 880.09 295.24 883.05 296.93 884.42ZM463.109 793.61C461.939 796.02 462.879 798.69 463.299 801.18C466.71 821.57 480.28 847.2 491.71 864.37C495.21 869.63 507.299 886.82 512.43 888.9C515.84 890.28 519.85 889.6 520.27 885.36C520.69 881.12 512.549 874.04 509.94 870.67C501.04 859.21 493.09 846.67 486.2 833.89C479.72 821.88 474.46 807.94 467.5 796.44C466.34 794.53 465.84 792.87 463.12 793.61H463.109Z" fill="#4C4D56"/>
<path d="M400.32 0.0999283C441.37 -2.06007 472.76 32.5299 471.29 72.7199C470.4 97.0699 462.4 106.07 454.3 126.6C447.99 142.57 452.83 165.99 450.53 182.81C449.7 188.94 444.52 191.25 439.66 187.23C430.63 178.06 423.09 166.78 414.33 157.5C408.93 151.78 407.28 152.19 399.6 151.52C375.61 149.43 355.62 150.78 334.29 137.24C296.45 113.21 302.64 64.9999 329.27 34.8299C347.72 13.9399 372.2 1.57993 400.32 0.0999283ZM423.73 24.0499C421.45 24.5299 415.51 28.8299 413 30.2199C385.14 45.6199 358.15 62.9999 330.81 79.4099C321.78 85.8399 330.53 95.4899 338.85 89.0899C369.47 70.4699 400.73 52.5899 430.88 33.3799C434.15 27.5999 430.28 22.6599 423.73 24.0499ZM437.38 42.5899C433.9 42.7899 426.62 48.2899 423.16 50.1899C395.35 65.4399 368.65 82.4499 341.5 98.8299C331.85 104.91 340.64 115.38 349.21 108.73L440.75 54.1599C445.79 50.7399 443.81 42.2299 437.38 42.5899ZM395.93 90.5699C393.77 91.0099 383.93 97.1599 381.2 98.7299C373.29 103.27 359.14 110.91 352.52 116.39C347.3 120.72 350.07 128.07 355.95 127.49C359.52 127.14 367.51 120.82 371.18 118.7C379.52 113.88 393.35 107.79 400.4 102.13C406.3 97.3899 403.91 88.9499 395.93 90.5699Z" fill="#4C4D56"/>
<path d="M191.56 108.16C197.92 106.85 198.58 112.48 200.88 116.58C216.95 145.25 233.67 173.6 247.61 203.42C265.99 215.02 284.33 226.86 302 239.53C308.19 243.97 317.31 249.94 322.8 254.71C325.79 257.31 326.85 259.47 324.95 263.38C282.44 299.32 238.1 333.34 194.1 367.49C191.8 369.04 190.39 367.42 189.08 365.56C184.12 358.51 179.42 346.82 174.91 338.84C165.6 322.39 155.21 306.53 146.72 289.61C123.01 265.36 96.66 243.62 72.59 219.82C66.33 213.63 64.86 210.52 72.08 204.01C111.08 174.73 147.49 140.31 186.56 111.32C187.9 110.32 190 108.48 191.58 108.16H191.56ZM191.68 123.32L81.59 211.09L152.25 278.65L236.87 209.06L191.67 123.32H191.68ZM261.27 299.74C272.06 291.2 283.1 282.88 293.89 274.3C298.58 270.57 305.61 265.71 309.63 261.69C310 261.32 310.76 261.23 310.54 260.43L246.99 217.06C245.79 217.04 239.55 222.12 239.7 222.76C246.62 230.2 253.88 237.36 260.38 245.17C262.82 248.1 264.87 251.77 267.26 254.65C268.59 256.25 270.81 256.53 271.26 259.37C271.77 262.54 271.12 264.11 268.83 266.14C260.88 273.18 251.15 279.63 242.94 286.59C232.21 295.68 222.81 304.24 211.61 313.05C206.17 317.33 201.64 325.39 193.7 320.04C190.85 318.11 181 302.27 178.4 298.27C174.84 292.79 171.41 287.14 168.26 281.42C167.45 281.19 167.35 281.65 166.9 281.96C165.72 282.75 159.58 287.85 159.56 288.77L195.24 352.19C217.34 334.83 239.23 317.18 261.28 299.75L261.27 299.74ZM239.6 241.54V240.35L230.14 230.12L218.91 238.66L226.91 250.92C229.09 251.24 236.92 242.52 239.59 241.54H239.6ZM210.17 246.6L208.62 246.81L195.07 258.24L203.97 270.5L218.39 258.72L210.17 246.6ZM247.58 249.89L234.8 260.5C234.69 261.15 242.59 270.26 243.32 270.45C243.89 270.6 244.09 270.45 244.55 270.24C245.4 269.87 256.4 261.11 256.53 260.34L247.58 249.89ZM194.9 278.07C195.36 277.28 191.42 271.36 190.63 270.22C190.08 269.43 187.01 265.06 186.53 265.06L177.07 273.58L184.38 285.8L194.9 278.06V278.07ZM218.48 290.64C218.96 290.97 220.07 290.15 220.56 289.83C222.09 288.83 233.95 279.17 234.17 278.31C234.58 276.63 227.21 268.94 225.78 267.27L210.87 279.59L218.48 290.64ZM201.31 286.9L191.15 296.4L199.06 308.67L210.2 298.54C210.36 297.89 203.5 288.53 202.6 287.69C202.21 287.33 202 286.76 201.31 286.91V286.9Z" fill="#4C4D56"/>
<path d="M817.45 460.56C816.27 461.77 811.97 463.61 810.2 464.48C793.98 472.5 776.83 478.87 760.58 486.82C759.73 487.24 757.42 488.1 757.18 488.91L782.25 550.44C782.36 555.63 778.29 557.73 773.58 556.34L733.49 540.99C730.03 544.24 726.62 547.58 723.31 550.98C711.31 563.3 699.24 578.22 686.82 589.73C682.65 593.59 677.35 593.26 675.51 587.37L667.17 537.09C656.58 540.54 646.1 544.38 635.43 547.6C630.81 548.99 625.43 549.76 621.08 551.24C618.07 552.26 617.81 554.26 613.74 553.19C609.67 552.12 609.14 547.59 610.77 544.19L634.35 493.1L607.52 456.91C605.02 452.88 605.57 447.96 610.36 446.19L663.13 438.99L656.8 385.27C655.5 378.18 661.11 373.92 667.13 378.2L711.61 410.06C712.12 410.06 715.02 407.64 715.7 407.06C726.72 397.69 737.42 385.57 748.69 376.81C754.32 372.43 758.45 373.26 760.35 380.39C761.01 397.46 762.16 414.56 763.15 431.57C763.28 433.78 762.51 439.8 763.93 441.15L814.37 449.59C818.98 450.98 820.91 457.04 817.46 460.58L817.45 460.56ZM794.74 458.02C781.51 455.81 767.92 454.57 754.99 451.16C752.76 449.83 751.92 446.58 751.68 444.11C750.14 428.23 751.29 410.7 749.52 395.02C749.43 394.2 749.46 393.64 748.67 393.14L714.36 423.15C711.94 424.33 709.9 423.26 707.77 422.06C696.44 415.65 684.55 404.45 673.35 397.06C672.77 396.68 670.34 394.86 669.91 395.33L675.9 443.03C675.63 445.48 674.8 448.25 672.3 449.24L621.93 456.39L646.18 489.1C648.18 492.76 645.81 496.43 644.37 499.83C638.64 513.32 631.43 526.28 625.74 539.8L671.81 523.45C674.03 523.53 675.72 524.73 676.9 526.53L685.17 573.61C688.93 570.23 692.55 566.63 696.08 562.99C704.39 554.43 712.23 545.31 720.58 536.79C724.2 533.09 727.96 527.51 733.71 528.6C741.63 530.1 753.5 536.48 761.75 539.26C762.5 539.51 765.41 540.67 765.85 540.34L743.48 486.62C743.3 484.06 744.72 481.5 746.94 480.26C761.64 472.46 779.01 467.09 793.49 459.21C794 458.93 794.69 458.69 794.75 458.02H794.74Z" fill="#4C4D56"/>
<path d="M746.53 112.6C746 114.86 747.07 117.44 747.07 119.42C747.12 153.35 745.7 187.45 744.91 221.4C744.74 228.63 744.17 235.88 744.32 243.21C744.43 248.56 746.46 252.91 738.64 253.84C677.57 254.57 616.49 252.32 555.43 253.25C548.32 253.36 541.5 256.21 541.51 245.37C541.55 204.22 542.73 162.83 542.08 121.59C542.51 116.54 544.16 114.15 549.44 113.68C615.18 113.69 680.8 112.18 746.53 112.61V112.6ZM553.55 125.96V146.13L732.89 148.58L733.99 124.59L710.25 124.62C672.37 124.23 633.46 124.73 595.27 125.16C583.17 125.3 566.89 123.76 555.43 125.11C554.64 125.2 554.03 125.18 553.55 125.96ZM732.9 159.49L554.45 158.48L553.79 158.91C553.45 186.53 553.53 214.21 553 241.82L732.89 241.54V159.48L732.9 159.49Z" fill="#4C4D56"/>
<path d="M45.0296 438.69C43.5996 427.83 42.7796 416.91 46.9496 406.53C55.4496 385.35 77.2596 383.78 95.3496 394.09C107.64 401.09 113.03 412.16 113.72 426.15L126.43 417.34C163.33 396.83 197.06 427.5 173.67 464.04C173.85 464.92 179.37 465.22 180.87 465.58C206.33 471.69 220.53 504.65 193.31 519.68C187.6 522.83 181.38 524.47 175.32 526.76C189.01 538.75 199.94 562.88 182.95 576.93C166.59 590.45 142.37 579.99 129.25 566.85C126.75 573.18 125.13 579.67 120.79 585.09C101.74 608.88 63.7796 592.16 59.7296 564.67C53.5596 566.7 47.9296 569.87 41.3196 571.04C14.4296 575.82 -0.250408 552.68 7.80959 528.25C10.8996 518.9 17.1596 511 24.2996 504.41C14.8896 499.7 6.80959 494.19 2.62959 484.11C-5.08041 465.51 4.91959 450.37 21.9296 442.61C24.2596 441.55 31.6596 438.72 33.8396 438.72H45.0196L45.0296 438.69ZM72.1896 399.58C55.0796 400.57 53.8996 423.26 56.8496 435.87C57.9196 440.47 61.9396 446.9 58.1296 450.97C54.3196 455.04 47.5196 450.55 42.5696 450.15C31.9896 449.3 13.3696 457.29 11.8296 469C9.86959 483.83 23.1896 492.24 35.7396 495.15C38.7296 495.84 43.1496 494.93 44.9696 498.46C48.6696 505.64 38.4196 508.55 33.9596 511.84C22.5396 520.24 11.9196 538.45 20.0796 552.26C28.1596 565.94 45.5096 558.54 56.3196 552.74C60.0796 550.72 62.4796 547.06 67.2496 548.71C72.0196 550.36 70.2296 555.29 70.6796 558.91C72.0796 570.29 78.5696 580.52 90.0496 583.7C106.97 588.38 115.86 576.28 118.03 561.04C118.59 557.08 117.42 551.32 120.81 548.55C127.05 543.45 130.9 551.95 134.44 555.67C143.69 565.37 161.88 577.36 174.98 568.38C185.58 561.11 176.91 545.05 170.17 537.93C167.2 534.79 156.86 528.04 156.3 524.55C154.77 515.14 163.92 516.61 170 515.41C178.56 513.72 196.62 508.78 196.6 497.86C196.57 481.33 175.6 472.37 161.57 477.54C158.31 478.74 157.31 480.94 153.26 480.73C149.21 480.52 147.57 477.66 148.13 473.91C148.78 469.53 154.06 467.97 157.08 465.41C179.18 446.6 171.4 414.12 138.83 424.26C133.6 425.89 118.93 433.37 114.87 436.83C113.44 438.05 113.42 439.76 111.78 440.82C108.55 442.91 104.09 441.42 103.11 437.64C102.02 433.39 102.44 426.65 101.52 421.79C98.8996 407.95 86.2696 398.79 72.2296 399.61L72.1896 399.58Z" fill="#4C4D56"/>
<path d="M378.54 449.49C365.98 448.73 353.72 451.53 342.74 457.58C308.94 476.21 300.17 518.67 301.65 554.47C302.45 573.76 306.56 588.35 297.41 606.89C292.8 616.23 274.7 640.36 264.19 641.84C262.49 642.08 261.26 642.21 261.35 640.12C261.71 631.92 277.82 616.6 282.93 608.77C298.21 585.39 289.37 566.31 290.2 540.8C291 516.16 298.57 485.28 315.02 466.39C325.64 454.2 343.34 442.66 359.8 441.39C366.18 440.9 377.11 441.85 378.54 449.5V449.49Z" fill="#4C4D56"/>
<path d="M392.12 448.36C385.08 447.22 386.39 436.28 387.65 431.07C391.19 416.46 404.7 403.46 418.87 399.05C424.85 397.19 443.86 393.41 442.88 403.96C442.27 410.58 433.56 408.21 429.02 408.66C408.21 410.74 396.97 430.1 392.11 448.35L392.12 448.36Z" fill="#4C4D56"/>
<path d="M347.32 478.49C348.12 478.31 348.92 478.23 349.68 478.63C351.21 479.69 348.03 485.12 347.46 486.83C341.53 504.72 342.1 516.8 351.19 533.28C353.94 538.26 360.61 545.75 359.46 551.72C358.89 554.7 353.37 551.66 351.86 550.6C339.07 541.59 331.92 518.86 333.36 503.81C334 497.1 339.85 480.13 347.31 478.49H347.32Z" fill="#4C4D56"/>
<path d="M402.37 477.42C410.19 475.6 405.23 482.45 404.41 486.54C402.33 496.91 406.86 506.281 413.7 513.841C418.46 519.101 426.2 523.88 429.34 530.37C429.64 531 430.62 532.741 429.81 533.211C423.13 534.311 416.57 529.73 411.55 525.81C399.79 516.61 390.02 500.61 395.57 485.34C396.47 482.85 399.73 478.04 402.37 477.43V477.42Z" fill="#4C4D56"/>
<path d="M370.33 489.33C370.77 492.65 370.13 496.02 370.37 499.37C370.99 508.04 374.32 516.32 378.86 523.59C382.85 529.98 390.05 535.82 389.45 543.81C383.41 544.24 378.38 539.07 374.72 534.83C366.15 524.9 359.45 508.87 364.12 495.84C364.72 494.17 367.91 487.25 370.34 489.32L370.33 489.33Z" fill="#4C4D56"/>
<path d="M425.07 606.16C429.28 602.23 435.41 604.97 435.28 610.6C435.1 618.53 423.041 628.371 415.641 629.711C409.991 630.731 402.01 629.76 403.74 622.17C404.65 618.16 409.6 619.12 412.37 618.26C417.51 616.67 421.54 609.46 425.07 606.16Z" fill="#4C4D56"/>
<path d="M392.17 588.52C396.11 589.16 403.05 591.06 400.27 596.36C397.03 602.53 379.05 599.77 380.17 588.25C380.83 581.52 386.71 580.26 389.12 575.94C390.58 573.33 391.21 560.57 396.97 568.71C402.13 576.01 397.9 583.38 392.16 588.51L392.17 588.52Z" fill="#4C4D56"/>
<path d="M426.94 560.06C428.45 557.48 424.06 547.92 432.78 548.7C438.8 549.23 438.94 560.24 438.52 564.83C437.38 577.39 422.2 573.75 423.81 563.75C424.27 560.92 426.5 560.8 426.93 560.06H426.94Z" fill="#4C4D56"/>
<path d="M363.46 575.8C361.15 573.38 361.16 570.07 363.26 567.52C363.88 566.77 365.34 566.22 365.46 565.79C366.4 562.4 362.71 557.47 368.03 554.85C376.9 550.49 378.76 569.35 373.92 574.91C371.28 577.94 366.4 578.88 363.46 575.8Z" fill="#4C4D56"/>
<path d="M152.41 254.65C149.57 256.55 147.23 248.42 146.62 246.64C142.62 234.9 138.67 208.8 139.99 196.7C141.1 186.53 151.44 187.03 151.92 196.65C152.24 203.01 151.64 210.24 151.89 216.82C152.05 221.11 152.91 226.13 153.03 230.41C153.11 233.47 153.42 253.97 152.41 254.64V254.65Z" fill="#4C4D56"/>
<path d="M173.56 164.85C177.93 163.85 181.15 166.62 181.25 171C181.39 177.13 180.33 184.46 180.24 190.61C180.08 201.75 181.24 215.7 179.57 226.47C179.07 229.71 177.7 231.64 175.59 228.01C170.38 219.07 167.97 181.06 169.4 170.5C169.7 168.28 171.18 165.39 173.55 164.84L173.56 164.85Z" fill="#4C4D56"/>
<path d="M709.71 498.36C707.04 503.71 705.73 519.04 696.76 515.39C691.71 513.34 688.58 494.52 686.48 494.04C681.15 495.64 668.75 507.21 665.12 497.97C664.11 495.41 664.55 494.92 665.45 492.54C668.4 484.77 674.18 476.64 677.63 468.74C680.62 461.91 682.68 453.53 685.85 446.98C687.8 442.95 690.83 442.2 694.81 444.27C698.31 446.09 710.59 457.27 712.72 457.47C715.47 457.73 724.11 450.45 727.99 449.86C730.88 449.42 734.23 450.5 735.05 453.63C735.95 457.05 734.1 467.13 733.6 471.29C732.56 479.97 731.67 492.56 729.72 500.67C728.68 505.03 726.07 506.81 721.53 505.86C719.15 505.36 710.66 497.65 709.69 498.35L709.71 498.36Z" fill="#4C4D56"/>
<path d="M611.18 171.6C617.29 170.21 620.76 175.09 617.8 180.4L595 200.11L618.99 215.36C622.81 221.53 618.35 225.99 611.5 223.95C608.02 222.91 590.36 211.53 586.32 208.79C578.54 203.51 577.38 199.73 584.63 193.02C589.1 188.88 594.88 184.15 599.64 180.23C601.64 178.59 609.42 172.01 611.19 171.61L611.18 171.6Z" fill="#4C4D56"/>
<path d="M675.5 174.33C677.05 173.98 678.91 174.07 680.41 174.64C682.29 175.35 689.11 181.25 691.18 182.95C695.23 186.28 706.59 195.2 709.2 198.73C712.03 202.57 711.24 206.25 707.78 209.33C704.02 212.68 686.46 223.11 681.47 225.55C674.19 229.11 667.63 226.28 671.82 218.08L695.81 202.83L673.22 183.45C670.92 180.71 671.78 175.17 675.49 174.33H675.5Z" fill="#4C4D56"/>
<path d="M658.63 173.22C664.03 172.43 666.22 178.12 664.07 182.51L638.83 224.88C633.94 230.25 626.51 225.09 629.2 218.52C637.44 205.79 644 190.56 652.75 178.28C654.15 176.31 656.09 173.59 658.63 173.22Z" fill="#4C4D56"/>
<path d="M717.51 129.61C726.12 128.37 726.68 140.95 718.93 141.48C710.84 142.04 710.74 130.59 717.51 129.61Z" fill="#4C4D56"/>
<path d="M703.82 131.87C709.05 137.23 700.84 145.43 695.3 140.66C689.76 135.89 697.83 125.74 703.82 131.87Z" fill="#4C4D56"/>
<path d="M101.67 453.03C105.73 453.01 107 455.76 107.8 459.16C109.41 466.01 112.26 473.76 115.89 479.97C121.96 490.35 132.74 493.64 143.03 498.63C150.73 509.71 133.39 509.09 126.65 512.09C116.18 516.75 111.86 530.84 110.78 541.51C110.46 544.64 112.54 547.56 111.64 551.6C110.92 554.83 106.48 555.58 103.91 554.11C101.02 552.46 98.0196 540.82 96.4096 537.07C92.0196 526.88 86.7796 515.86 76.6796 510.46C71.6896 507.79 61.4996 506.63 63.4896 499.09C64.5696 495.01 70.0896 495.24 73.5496 493.33C80.8596 489.29 87.4996 479.51 90.9596 472.03C93.0496 467.53 94.5396 459.89 96.5696 456.38C97.5896 454.62 99.5896 453.04 101.67 453.04V453.03Z" fill="#4C4D56"/>
<path d="M123.38 516.73C127.98 515.48 142.23 528.2 145.08 531.91C149.19 537.25 146.34 543.07 139.59 540.67C135.06 539.06 125.09 527.3 123.06 522.85C122.32 521.22 120.72 517.45 123.38 516.73Z" fill="#4C4D56"/>
<path d="M135.39 446.43C139.06 445.72 141.48 449.06 140.94 452.56C140.05 458.32 126.23 468.98 120.55 470.86C119.03 469.78 120.01 467.9 120.43 466.38C121.7 461.72 130.62 447.35 135.4 446.42L135.39 446.43Z" fill="#4C4D56"/>
<path d="M75.01 515.56C76.39 521.66 66.21 538.5 60.07 537.91C57.48 537.66 55.75 535.42 55.94 532.8C56.15 529.95 62.4 523.37 64.64 521.27C66.09 519.91 73.19 513.75 75.01 515.55V515.56Z" fill="#4C4D56"/>
<path d="M77.8996 482.82C75.4196 486.29 58.3296 463.62 57.2196 461.33C55.9996 458.81 55.1696 455.13 58.1096 453.47C65.7596 449.17 79.6396 477.48 77.8996 482.82Z" fill="#4C4D56"/>
</g>
<defs>
<clipPath id="clip0_420_2144">
<rect width="819.21" height="996.36" fill="white"/>
</clipPath>
</defs>
</svg>
