<svg width="20" height="21" viewBox="0 0 20 21" fill="none" xmlns="http://www.w3.org/2000/svg">
<rect y="0.625" width="20" height="20" rx="10" fill="#31323A"/>
<path d="M9.72852 13.8496H8.69727V15.625H6.92773V13.8496H3.27148V12.5898L7.02734 7.05859H8.69727V12.4434H9.72852V13.8496ZM6.92773 12.4434V10.9902C6.92773 10.8535 6.92969 10.6914 6.93359 10.5039C6.94141 10.3164 6.94922 10.1289 6.95703 9.94141C6.96484 9.75391 6.97266 9.58789 6.98047 9.44336C6.99219 9.29492 7 9.19141 7.00391 9.13281H6.95703C6.88281 9.29297 6.80469 9.44922 6.72266 9.60156C6.64062 9.75 6.54492 9.90625 6.43555 10.0703L4.86523 12.4434H6.92773Z" fill="#DFFFAD"/>
<path d="M14.1328 10.7559H16.4004V12.0391H14.1328V14.2949H12.8496V12.0391H10.582V10.7559H12.8496V8.4707H14.1328V10.7559Z" fill="#DFFFAD"/>
</svg>
